<svg width="168" height="167" viewBox="0 0 168 167" fill="none" xmlns="http://www.w3.org/2000/svg">
<path d="M0.527344 43.68C0.527344 28.3906 0.527344 20.7458 3.50287 14.9061C6.12021 9.76923 10.2966 5.59286 15.4334 2.97552C21.2732 0 28.9179 0 44.2073 0L123.377 0C138.667 0 146.311 0 152.151 2.97552C157.288 5.59286 161.464 9.76923 164.082 14.9061C167.057 20.7458 167.057 28.3906 167.057 43.68L167.057 122.85C167.057 138.139 167.057 145.784 164.082 151.624C161.464 156.761 157.288 160.937 152.151 163.554C146.311 166.53 138.667 166.53 123.377 166.53L44.2074 166.53C28.9179 166.53 21.2732 166.53 15.4334 163.554C10.2966 160.937 6.12021 156.761 3.50287 151.624C0.527344 145.784 0.527344 138.139 0.527344 122.85L0.527344 43.68Z" fill="url(#paint0_linear_1389_13537)"/>
<path d="M0.527344 43.68C0.527344 28.3906 0.527344 20.7458 3.50287 14.9061C6.12021 9.76923 10.2966 5.59286 15.4334 2.97552C21.2732 0 28.9179 0 44.2073 0L123.377 0C138.667 0 146.311 0 152.151 2.97552C157.288 5.59286 161.464 9.76923 164.082 14.9061C167.057 20.7458 167.057 28.3906 167.057 43.68L167.057 122.85C167.057 138.139 167.057 145.784 164.082 151.624C161.464 156.761 157.288 160.937 152.151 163.554C146.311 166.53 138.667 166.53 123.377 166.53L44.2074 166.53C28.9179 166.53 21.2732 166.53 15.4334 163.554C10.2966 160.937 6.12021 156.761 3.50287 151.624C0.527344 145.784 0.527344 138.139 0.527344 122.85L0.527344 43.68Z" fill="url(#paint1_linear_1389_13537)"/>
<path d="M164.327 43.68L164.327 122.85C164.327 130.54 164.325 136.143 163.964 140.558C163.606 144.942 162.908 147.914 161.649 150.385C159.294 155.008 155.535 158.766 150.912 161.122C148.441 162.381 145.469 163.079 141.086 163.437C136.67 163.798 131.067 163.8 123.377 163.8L44.2074 163.8C36.5176 163.8 30.9145 163.798 26.4991 163.437C22.1156 163.079 19.1437 162.381 16.6728 161.122C12.0497 158.766 8.29092 155.008 5.93531 150.385C4.67633 147.914 3.97836 144.942 3.62022 140.558C3.25947 136.143 3.25734 130.54 3.25734 122.85L3.25734 43.68C3.25734 35.9903 3.25947 30.3871 3.62022 25.9717C3.97836 21.5882 4.67633 18.6164 5.93531 16.1455C8.29092 11.5223 12.0497 7.76358 16.6728 5.40797C19.1437 4.14898 22.1156 3.45102 26.4991 3.09287C30.9144 2.73212 36.5176 2.73 44.2073 2.73L123.377 2.73C131.067 2.73 136.67 2.73212 141.086 3.09287C145.469 3.45102 148.441 4.14898 150.912 5.40797C155.535 7.76358 159.294 11.5223 161.649 16.1455C162.908 18.6164 163.606 21.5882 163.964 25.9717C164.325 30.3871 164.327 35.9902 164.327 43.68Z" stroke="#7289DA" stroke-opacity="0.5" stroke-width="5.46"/>
<path d="M120.29 57.0766C108.415 48.2235 97.0368 48.4707 97.0368 48.4707L95.8749 49.7977C109.995 54.0194 116.556 60.225 116.556 60.225C107.919 55.5935 99.4457 53.2713 91.5598 52.3606C85.5802 51.6971 79.8486 51.8663 74.7828 52.5232C74.2867 52.5232 73.8689 52.6078 73.3728 52.6859C70.4678 53.0176 63.4045 54.0129 54.5198 57.8963C51.4451 59.2232 49.6173 60.212 49.6173 60.212C49.6173 60.212 56.426 53.6746 71.3752 49.453L70.5461 48.4577C70.5461 48.4577 59.2527 48.2105 47.2933 57.0636C47.2933 57.0636 35.334 78.4971 35.334 104.894C35.334 104.894 42.3124 116.811 60.6627 117.39C60.6627 117.39 63.7374 113.747 66.2246 110.605C55.6753 107.463 51.6932 100.926 51.6932 100.926C51.6932 100.926 52.5223 101.505 54.0172 102.331C54.102 102.331 54.1804 102.415 54.3501 102.493C54.5982 102.656 54.8462 102.741 55.0943 102.91C57.1702 104.068 59.2461 104.978 61.1588 105.726C64.5665 107.131 68.6334 108.374 73.3662 109.285C79.594 110.442 86.9054 110.859 94.8761 109.369C98.7798 108.627 102.768 107.548 106.92 105.811C109.825 104.738 113.063 103.163 116.471 100.926C116.471 100.926 112.319 107.626 101.437 110.69C103.93 113.753 106.92 117.311 106.92 117.311C125.271 116.733 132.249 104.816 132.249 104.9C132.249 78.5036 120.29 57.0701 120.29 57.0701V57.0766ZM68.3005 97.2115C63.6525 97.2115 59.8271 93.159 59.8271 88.1112C59.8271 83.0635 63.5611 79.011 68.3005 79.011C73.0398 79.011 76.8522 83.0635 76.7739 88.1112C76.7739 93.159 73.0398 97.2115 68.3005 97.2115ZM98.6101 97.2115C93.9621 97.2115 90.1367 93.159 90.1367 88.1112C90.1367 83.0635 93.8707 79.011 98.6101 79.011C103.349 79.011 107.083 83.0635 107.083 88.1112C107.083 93.159 103.349 97.2115 98.6101 97.2115Z" fill="#7289DA"/>
<defs>
<linearGradient id="paint0_linear_1389_13537" x1="75.535" y1="6.85062" x2="127.961" y2="165.536" gradientUnits="userSpaceOnUse">
<stop stop-color="white"/>
<stop offset="1" stop-color="#D7D7D7"/>
</linearGradient>
<linearGradient id="paint1_linear_1389_13537" x1="75.1579" y1="0.530193" x2="135.742" y2="170.053" gradientUnits="userSpaceOnUse">
<stop stop-color="#322D37"/>
<stop offset="1" stop-color="#18151B"/>
</linearGradient>
</defs>
</svg>
