<?xml version="1.0" encoding="utf-8"?>
<!-- Generator: Adobe Illustrator 26.3.1, SVG Export Plug-In . SVG Version: 6.00 Build 0)  -->
<svg version="1.1" id="Layer_1" xmlns="http://www.w3.org/2000/svg" xmlns:xlink="http://www.w3.org/1999/xlink" x="0px" y="0px"
	 viewBox="0 0 178 178" style="enable-background:new 0 0 178 178;" xml:space="preserve">
<style type="text/css">
	.st0{fill:url(#SVGID_1_);}
	.st1{fill:url(#SVGID_00000075885553861638269230000003817784211871796404_);}
	.st2{fill:none;stroke:#7289DA;stroke-width:5.46;stroke-opacity:0.5;}
	.st3{fill:#7289DA;}
</style>
<linearGradient id="SVGID_1_" gradientUnits="userSpaceOnUse" x1="65.2186" y1="161.4792" x2="117.6446" y2="2.7938" gradientTransform="matrix(1 0 0 -1 0 178.89)">
	<stop  offset="0" style="stop-color:#FFFFFF"/>
	<stop  offset="1" style="stop-color:#D7D7D7"/>
</linearGradient>
<path class="st0" d="M5.5,49.2c0-15.3,0-22.9,3-28.8c2.6-5.1,6.8-9.3,11.9-11.9c5.8-3,13.5-3,28.8-3h79.2c15.3,0,22.9,0,28.8,3
	c5.1,2.6,9.3,6.8,11.9,11.9c3,5.8,3,13.5,3,28.8v79.2c0,15.3,0,22.9-3,28.8c-2.6,5.1-6.8,9.3-11.9,11.9c-5.8,3-13.5,3-28.8,3H49.2
	c-15.3,0-22.9,0-28.8-3c-5.1-2.6-9.3-6.8-11.9-11.9c-3-5.8-3-13.5-3-28.8V49.2z"/>
<linearGradient id="SVGID_00000098190712852339457260000006524662773902646179_" gradientUnits="userSpaceOnUse" x1="61.5954" y1="166.2259" x2="122.1795" y2="-3.2969" gradientTransform="matrix(1 0 0 -1 0 178.89)">
	<stop  offset="0" style="stop-color:#322D37"/>
	<stop  offset="1" style="stop-color:#18151B"/>
</linearGradient>
<path style="fill:url(#SVGID_00000098190712852339457260000006524662773902646179_);" d="M5.5,49.2c0-15.3,0-22.9,3-28.8
	c2.6-5.1,6.8-9.3,11.9-11.9c5.8-3,13.5-3,28.8-3h79.2c15.3,0,22.9,0,28.8,3c5.1,2.6,9.3,6.8,11.9,11.9c3,5.8,3,13.5,3,28.8v79.2
	c0,15.3,0,22.9-3,28.8c-2.6,5.1-6.8,9.3-11.9,11.9c-5.8,3-13.5,3-28.8,3H49.2c-15.3,0-22.9,0-28.8-3c-5.1-2.6-9.3-6.8-11.9-11.9
	c-3-5.8-3-13.5-3-28.8V49.2z"/>
<path class="st2" d="M169.3,49.2v79.2c0,7.7,0,13.3-0.4,17.7c-0.4,4.4-1.1,7.4-2.3,9.8c-2.4,4.6-6.1,8.4-10.7,10.7
	c-2.5,1.3-5.4,2-9.8,2.3c-4.4,0.4-10,0.4-17.7,0.4H49.2c-7.7,0-13.3,0-17.7-0.4c-4.4-0.4-7.4-1.1-9.8-2.3
	c-4.6-2.4-8.4-6.1-10.7-10.7c-1.3-2.5-2-5.4-2.3-9.8c-0.4-4.4-0.4-10-0.4-17.7V49.2c0-7.7,0-13.3,0.4-17.7c0.4-4.4,1.1-7.4,2.3-9.8
	c2.4-4.6,6.1-8.4,10.7-10.7c2.5-1.3,5.4-2,9.8-2.3c4.4-0.4,10-0.4,17.7-0.4h79.2c7.7,0,13.3,0,17.7,0.4c4.4,0.4,7.4,1.1,9.8,2.3
	c4.6,2.4,8.4,6.1,10.7,10.7c1.3,2.5,2,5.4,2.3,9.8C169.3,35.9,169.3,41.5,169.3,49.2z"/>
<path class="st3" d="M125.3,62.6C113.4,53.7,102,54,102,54l-1.2,1.3c14.1,4.2,20.7,10.4,20.7,10.4c-8.6-4.6-17.1-7-25-7.9
	c-6-0.7-11.7-0.5-16.8,0.2c-0.5,0-0.9,0.1-1.4,0.2c-2.9,0.3-10,1.3-18.9,5.2c-3.1,1.3-4.9,2.3-4.9,2.3s6.8-6.5,21.8-10.8l-0.8-1
	c0,0-11.3-0.2-23.3,8.6c0,0-12,21.4-12,47.8c0,0,7,11.9,25.3,12.5c0,0,3.1-3.6,5.6-6.8c-10.5-3.1-14.5-9.7-14.5-9.7s0.8,0.6,2.3,1.4
	c0.1,0,0.2,0.1,0.3,0.2c0.2,0.2,0.5,0.2,0.7,0.4c2.1,1.2,4.2,2.1,6.1,2.8c3.4,1.4,7.5,2.6,12.2,3.6c6.2,1.2,13.5,1.6,21.5,0.1
	c3.9-0.7,7.9-1.8,12-3.6c2.9-1.1,6.1-2.6,9.6-4.9c0,0-4.2,6.7-15,9.8c2.5,3.1,5.5,6.6,5.5,6.6c18.4-0.6,25.3-12.5,25.3-12.4
	C137.2,84,125.3,62.6,125.3,62.6L125.3,62.6z M73.3,102.7c-4.6,0-8.5-4.1-8.5-9.1c0-5,3.7-9.1,8.5-9.1c4.7,0,8.6,4.1,8.5,9.1
	C81.8,98.7,78,102.7,73.3,102.7z M103.6,102.7c-4.6,0-8.5-4.1-8.5-9.1c0-5,3.7-9.1,8.5-9.1c4.7,0,8.5,4.1,8.5,9.1
	C112.1,98.7,108.3,102.7,103.6,102.7z"/>
</svg>
