<svg width="167" height="167" viewBox="0 0 167 167" fill="none" xmlns="http://www.w3.org/2000/svg">
<path d="M-0.00195313 43.68C-0.00195313 28.3906 -0.00195313 20.7458 2.97357 14.9061C5.59091 9.76923 9.76728 5.59286 14.9041 2.97552C20.7439 0 28.3886 0 43.678 0L122.848 0C138.137 0 145.782 0 151.622 2.97552C156.759 5.59286 160.935 9.76923 163.553 14.9061C166.528 20.7458 166.528 28.3906 166.528 43.68L166.528 122.85C166.528 138.139 166.528 145.784 163.553 151.624C160.935 156.761 156.759 160.937 151.622 163.554C145.782 166.53 138.137 166.53 122.848 166.53L43.6781 166.53C28.3886 166.53 20.7439 166.53 14.9041 163.554C9.76728 160.937 5.59091 156.761 2.97357 151.624C-0.00195313 145.784 -0.00195313 138.139 -0.00195313 122.85L-0.00195313 43.68Z" fill="url(#paint0_linear_1389_13534)"/>
<path d="M-0.00195313 43.68C-0.00195313 28.3906 -0.00195313 20.7458 2.97357 14.9061C5.59091 9.76923 9.76728 5.59286 14.9041 2.97552C20.7439 0 28.3886 0 43.678 0L122.848 0C138.137 0 145.782 0 151.622 2.97552C156.759 5.59286 160.935 9.76923 163.553 14.9061C166.528 20.7458 166.528 28.3906 166.528 43.68L166.528 122.85C166.528 138.139 166.528 145.784 163.553 151.624C160.935 156.761 156.759 160.937 151.622 163.554C145.782 166.53 138.137 166.53 122.848 166.53L43.6781 166.53C28.3886 166.53 20.7439 166.53 14.9041 163.554C9.76728 160.937 5.59091 156.761 2.97357 151.624C-0.00195313 145.784 -0.00195313 138.139 -0.00195313 122.85L-0.00195313 43.68Z" fill="url(#paint1_linear_1389_13534)"/>
<path d="M163.798 43.68L163.798 122.85C163.798 130.54 163.796 136.143 163.435 140.558C163.077 144.942 162.379 147.914 161.12 150.385C158.764 155.008 155.006 158.766 150.383 161.122C147.912 162.381 144.94 163.079 140.556 163.437C136.141 163.798 130.538 163.8 122.848 163.8L43.6781 163.8C35.9883 163.8 30.3852 163.798 25.9698 163.437C21.5863 163.079 18.6144 162.381 16.1435 161.122C11.5204 158.766 7.76163 155.008 5.40602 150.385C4.14703 147.914 3.44907 144.942 3.09092 140.558C2.73017 136.143 2.72805 130.54 2.72805 122.85L2.72805 43.68C2.72805 35.9903 2.73017 30.3871 3.09092 25.9717C3.44907 21.5882 4.14703 18.6164 5.40602 16.1455C7.76163 11.5223 11.5204 7.76358 16.1435 5.40797C18.6144 4.14898 21.5863 3.45102 25.9698 3.09287C30.3851 2.73212 35.9883 2.73 43.678 2.73L122.848 2.73C130.538 2.73 136.141 2.73212 140.556 3.09287C144.94 3.45102 147.912 4.14898 150.383 5.40797C155.006 7.76358 158.764 11.5223 161.12 16.1455C162.379 18.6164 163.077 21.5882 163.435 25.9717C163.796 30.3871 163.798 35.9902 163.798 43.68Z" stroke="white" stroke-opacity="0.5" stroke-width="5.46"/>
<path fill-rule="evenodd" clip-rule="evenodd" d="M82.961 37.5391C57.4644 37.5391 36.8535 58.3411 36.8535 84.0758C36.8535 104.646 50.0595 122.059 68.38 128.223C70.6704 128.686 71.5096 127.221 71.5096 125.99C71.5096 124.911 71.4341 121.213 71.4341 117.36C58.6085 120.134 55.9377 111.812 55.9377 111.812C53.8767 106.419 50.8225 105.033 50.8225 105.033C46.6243 102.182 51.1282 102.182 51.1282 102.182C55.7845 102.49 58.2281 106.959 58.2281 106.959C62.3494 114.047 68.9913 112.044 71.6628 110.811C72.0439 107.806 73.2665 105.726 74.5638 104.571C64.3342 103.492 53.571 99.4854 53.571 81.6105C53.571 76.5251 55.4019 72.365 58.3029 69.1295C57.8448 67.9743 56.2418 63.1959 58.7617 56.8019C58.7617 56.8019 62.655 55.5689 71.4327 61.5789C75.1906 60.5601 79.0669 60.0419 82.9603 60.0374C86.8536 60.0374 90.8217 60.5772 94.4864 61.5789C103.266 55.5689 107.158 56.8019 107.158 56.8019C109.678 63.1966 108.074 67.9743 107.616 69.1295C110.594 72.365 112.35 76.5251 112.35 81.6105C112.35 99.4862 101.586 103.414 91.2805 104.571C92.9604 106.034 94.4102 108.808 94.4102 113.199C94.4102 119.44 94.3347 124.448 94.3347 125.989C94.3347 127.222 95.1746 128.686 97.4643 128.224C115.785 122.059 128.991 104.647 128.991 84.0765C129.067 58.3411 108.381 37.5391 82.961 37.5391Z" fill="white"/>
<defs>
<linearGradient id="paint0_linear_1389_13534" x1="75.0057" y1="6.85062" x2="127.432" y2="165.536" gradientUnits="userSpaceOnUse">
<stop stop-color="white"/>
<stop offset="1" stop-color="#D7D7D7"/>
</linearGradient>
<linearGradient id="paint1_linear_1389_13534" x1="74.6286" y1="0.530193" x2="135.213" y2="170.053" gradientUnits="userSpaceOnUse">
<stop stop-color="#322D37"/>
<stop offset="1" stop-color="#18151B"/>
</linearGradient>
</defs>
</svg>
