<svg width="167" height="167" viewBox="0 0 167 167" fill="none" xmlns="http://www.w3.org/2000/svg">
<path d="M0.234375 43.9147C0.234375 28.6252 0.234375 20.9805 3.2099 15.1407C5.82724 10.0039 10.0036 5.82748 15.1404 3.21014C20.9802 0.234619 28.6249 0.234619 43.9144 0.234619L123.084 0.234619C138.374 0.234619 146.019 0.234619 151.858 3.21014C156.995 5.82748 161.172 10.0039 163.789 15.1407C166.764 20.9805 166.764 28.6252 166.764 43.9146L166.764 123.085C166.764 138.374 166.764 146.019 163.789 151.859C161.172 156.995 156.995 161.172 151.858 163.789C146.019 166.765 138.374 166.765 123.084 166.765L43.9144 166.765C28.625 166.765 20.9802 166.765 15.1404 163.789C10.0036 161.172 5.82724 156.995 3.2099 151.859C0.234375 146.019 0.234375 138.374 0.234375 123.085L0.234375 43.9147Z" fill="url(#paint0_linear_1_5336)"/>
<path d="M0.234375 43.9147C0.234375 28.6252 0.234375 20.9805 3.2099 15.1407C5.82724 10.0039 10.0036 5.82748 15.1404 3.21014C20.9802 0.234619 28.6249 0.234619 43.9144 0.234619L123.084 0.234619C138.374 0.234619 146.019 0.234619 151.858 3.21014C156.995 5.82748 161.172 10.0039 163.789 15.1407C166.764 20.9805 166.764 28.6252 166.764 43.9146L166.764 123.085C166.764 138.374 166.764 146.019 163.789 151.859C161.172 156.995 156.995 161.172 151.858 163.789C146.019 166.765 138.374 166.765 123.084 166.765L43.9144 166.765C28.625 166.765 20.9802 166.765 15.1404 163.789C10.0036 161.172 5.82724 156.995 3.2099 151.859C0.234375 146.019 0.234375 138.374 0.234375 123.085L0.234375 43.9147Z" fill="url(#paint1_linear_1_5336)"/>
<path d="M164.034 43.9146L164.034 123.085C164.034 130.774 164.032 136.378 163.672 140.793C163.313 145.176 162.615 148.148 161.356 150.619C159.001 155.242 155.242 159.001 150.619 161.357C148.148 162.616 145.176 163.314 140.793 163.672C136.377 164.033 130.774 164.035 123.084 164.035L43.9144 164.035C36.2246 164.035 30.6215 164.033 26.2061 163.672C21.8226 163.314 18.8507 162.616 16.3798 161.357C11.7567 159.001 7.99795 155.242 5.64234 150.619C4.38336 148.148 3.6854 145.176 3.32725 140.793C2.9665 136.378 2.96438 130.774 2.96438 123.085L2.96438 43.9147C2.96438 36.2249 2.9665 30.6217 3.32725 26.2064C3.6854 21.8228 4.38336 18.851 5.64234 16.3801C7.99795 11.7569 11.7567 7.9982 16.3798 5.64259C18.8507 4.3836 21.8226 3.68564 26.2061 3.32749C30.6215 2.96674 36.2246 2.96462 43.9144 2.96462L123.084 2.96462C130.774 2.96462 136.377 2.96674 140.793 3.32749C145.176 3.68564 148.148 4.3836 150.619 5.64259C155.242 7.9982 159.001 11.7569 161.356 16.3801C162.615 18.851 163.313 21.8228 163.672 26.2063C164.032 30.6217 164.034 36.2249 164.034 43.9146Z" stroke="url(#paint2_linear_1_5336)" stroke-opacity="0.7" stroke-width="5.46"/>
<g clip-path="url(#clip0_1_5336)">
<path d="M83.5144 39.8193C65.2789 39.8193 59.9455 39.8386 58.9086 39.9242C55.1661 40.2352 52.8379 40.8248 50.3001 42.0881C48.345 43.0595 46.8031 44.1847 45.2813 45.7633C42.5102 48.6409 40.8303 52.1808 40.2223 56.3898C39.927 58.4323 39.8405 58.849 39.823 69.285C39.8169 72.7637 39.823 77.3413 39.823 83.4819C39.823 101.708 39.8431 107.038 39.9305 108.073C40.2327 111.716 40.8041 114.007 42.0131 116.514C44.3247 121.312 48.739 124.914 53.9387 126.259C55.7391 126.722 57.7283 126.978 60.281 127.099C61.3625 127.146 72.3882 127.179 83.42 127.179C94.4519 127.179 105.485 127.166 106.539 127.112C109.495 126.973 111.212 126.743 113.11 126.252C118.344 124.901 122.678 121.352 125.036 116.486C126.221 114.04 126.823 111.661 127.095 108.209C127.154 107.456 127.179 95.4554 127.179 83.4705C127.179 71.4856 127.152 59.505 127.093 58.752C126.818 55.2436 126.216 52.8849 124.992 50.3916C123.987 48.3509 122.873 46.8265 121.253 45.268C118.363 42.5074 114.829 40.8266 110.618 40.2194C108.577 39.9242 108.171 39.8368 97.7296 39.8193H83.5126L83.5144 39.8193Z" fill="url(#paint3_radial_1_5336)"/>
<path d="M83.5144 39.8193C65.2789 39.8193 59.9455 39.8386 58.9086 39.9242C55.1661 40.2352 52.8379 40.8248 50.3001 42.0881C48.345 43.0595 46.8031 44.1847 45.2813 45.7633C42.5102 48.6409 40.8303 52.1808 40.2223 56.3898C39.927 58.4323 39.8405 58.849 39.823 69.285C39.8169 72.7637 39.823 77.3413 39.823 83.4819C39.823 101.708 39.8431 107.038 39.9305 108.073C40.2327 111.716 40.8041 114.007 42.0131 116.514C44.3247 121.312 48.739 124.914 53.9387 126.259C55.7391 126.722 57.7283 126.978 60.281 127.099C61.3625 127.146 72.3882 127.179 83.42 127.179C94.4519 127.179 105.485 127.166 106.539 127.112C109.495 126.973 111.212 126.743 113.11 126.252C118.344 124.901 122.678 121.352 125.036 116.486C126.221 114.04 126.823 111.661 127.095 108.209C127.154 107.456 127.179 95.4554 127.179 83.4705C127.179 71.4856 127.152 59.505 127.093 58.752C126.818 55.2436 126.216 52.8849 124.992 50.3916C123.987 48.3509 122.873 46.8265 121.253 45.268C118.363 42.5074 114.829 40.8266 110.618 40.2194C108.577 39.9242 108.171 39.8368 97.7296 39.8193H83.5126L83.5144 39.8193Z" fill="url(#paint4_radial_1_5336)"/>
<path d="M83.5144 39.8193C65.2789 39.8193 59.9455 39.8386 58.9086 39.9242C55.1661 40.2352 52.8379 40.8248 50.3001 42.0881C48.345 43.0595 46.8031 44.1847 45.2813 45.7633C42.5102 48.6409 40.8303 52.1808 40.2223 56.3898C39.927 58.4323 39.8405 58.849 39.823 69.285C39.8169 72.7637 39.823 77.3413 39.823 83.4819C39.823 101.708 39.8431 107.038 39.9305 108.073C40.2327 111.716 40.8041 114.007 42.0131 116.514C44.3247 121.312 48.739 124.914 53.9387 126.259C55.7391 126.722 57.7283 126.978 60.281 127.099C61.3625 127.146 72.3882 127.179 83.42 127.179C94.4519 127.179 105.485 127.166 106.539 127.112C109.495 126.973 111.212 126.743 113.11 126.252C118.344 124.901 122.678 121.352 125.036 116.486C126.221 114.04 126.823 111.661 127.095 108.209C127.154 107.456 127.179 95.4554 127.179 83.4705C127.179 71.4856 127.152 59.505 127.093 58.752C126.818 55.2436 126.216 52.8849 124.992 50.3916C123.987 48.3509 122.873 46.8265 121.253 45.268C118.363 42.5074 114.829 40.8266 110.618 40.2194C108.577 39.9242 108.171 39.8368 97.7296 39.8193H83.5126L83.5144 39.8193Z" fill="url(#paint5_radial_1_5336)"/>
<path d="M83.5144 39.8193C65.2789 39.8193 59.9455 39.8386 58.9086 39.9242C55.1661 40.2352 52.8379 40.8248 50.3001 42.0881C48.345 43.0595 46.8031 44.1847 45.2813 45.7633C42.5102 48.6409 40.8303 52.1808 40.2223 56.3898C39.927 58.4323 39.8405 58.849 39.823 69.285C39.8169 72.7637 39.823 77.3413 39.823 83.4819C39.823 101.708 39.8431 107.038 39.9305 108.073C40.2327 111.716 40.8041 114.007 42.0131 116.514C44.3247 121.312 48.739 124.914 53.9387 126.259C55.7391 126.722 57.7283 126.978 60.281 127.099C61.3625 127.146 72.3882 127.179 83.42 127.179C94.4519 127.179 105.485 127.166 106.539 127.112C109.495 126.973 111.212 126.743 113.11 126.252C118.344 124.901 122.678 121.352 125.036 116.486C126.221 114.04 126.823 111.661 127.095 108.209C127.154 107.456 127.179 95.4554 127.179 83.4705C127.179 71.4856 127.152 59.505 127.093 58.752C126.818 55.2436 126.216 52.8849 124.992 50.3916C123.987 48.3509 122.873 46.8265 121.253 45.268C118.363 42.5074 114.829 40.8266 110.618 40.2194C108.577 39.9242 108.171 39.8368 97.7296 39.8193H83.5126L83.5144 39.8193Z" fill="url(#paint6_radial_1_5336)"/>
<path d="M83.5182 51.0366C74.6966 51.0366 73.5898 51.0751 70.1251 51.2323C66.6674 51.3904 64.3069 51.9373 62.2417 52.7401C60.1057 53.5692 58.293 54.6778 56.4882 56.4826C54.6816 58.2866 53.5712 60.0976 52.7396 62.2318C51.9341 64.2961 51.3863 66.6557 51.2308 70.1091C51.0762 73.5711 51.0352 74.678 51.0352 83.4926C51.0352 92.3072 51.0745 93.4106 51.2317 96.8727C51.3907 100.328 51.9385 102.686 52.7404 104.75C53.5703 106.885 54.6807 108.695 56.4864 110.5C58.2913 112.306 60.1031 113.417 62.2382 114.246C64.3051 115.049 66.6656 115.596 70.1233 115.754C73.588 115.911 74.694 115.949 83.5147 115.949C92.3355 115.949 93.4406 115.911 96.9053 115.754C100.363 115.596 102.726 115.049 104.793 114.246C106.929 113.417 108.738 112.306 110.543 110.5C112.35 108.696 113.46 106.885 114.292 104.751C115.09 102.686 115.638 100.327 115.8 96.8735C115.956 93.4115 115.997 92.3081 115.997 83.4935C115.997 74.6789 115.957 73.5729 115.8 70.1108C115.638 66.6557 115.09 64.297 114.292 62.2336C113.459 60.0985 112.35 58.2884 110.543 56.4835C108.736 54.6778 106.93 53.5692 104.791 52.741C102.721 51.9382 100.359 51.3913 96.9009 51.2332C93.4362 51.0759 92.3329 51.0375 83.5095 51.0375H83.52L83.5182 51.0366ZM80.6048 56.8854C81.4696 56.8836 82.435 56.8854 83.5182 56.8854C92.1905 56.8854 93.2187 56.9168 96.6432 57.0723C99.81 57.2173 101.529 57.7459 102.674 58.1897C104.189 58.7776 105.27 59.4808 106.407 60.6174C107.543 61.7531 108.247 62.8355 108.837 64.3503C109.282 65.493 109.811 67.2104 109.955 70.3755C110.111 73.7974 110.145 74.8247 110.145 83.4865C110.145 92.1482 110.111 93.1765 109.955 96.5975C109.81 99.7617 109.282 101.479 108.837 102.623C108.248 104.138 107.543 105.216 106.407 106.351C105.27 107.487 104.19 108.19 102.674 108.779C101.53 109.225 99.81 109.753 96.6432 109.897C93.2196 110.053 92.1905 110.087 83.5182 110.087C74.846 110.087 73.8169 110.053 70.3933 109.897C67.2265 109.751 65.5072 109.223 64.3619 108.778C62.8462 108.19 61.7638 107.487 60.6264 106.35C59.4899 105.215 58.7857 104.135 58.1961 102.62C57.7514 101.477 57.222 99.7599 57.0778 96.5949C56.9223 93.173 56.8909 92.1456 56.8909 83.4778C56.8909 74.8099 56.9223 73.7878 57.0778 70.3668C57.2229 67.2026 57.7514 65.4851 58.1961 64.3407C58.7849 62.8259 59.4899 61.7443 60.6264 60.6078C61.763 59.4721 62.8462 58.7689 64.3619 58.1792C65.5072 57.7328 67.2265 57.2051 70.3933 57.0601C73.3897 56.9247 74.5507 56.8845 80.6048 56.8775V56.8854ZM100.857 62.2746C98.7049 62.2746 96.9586 64.0174 96.9586 66.1682C96.9586 68.319 98.7049 70.0628 100.857 70.0628C103.008 70.0628 104.755 68.3182 104.755 66.1682C104.755 64.0183 103.008 62.2737 100.857 62.2737V62.2755V62.2746ZM83.5182 66.8252C74.3061 66.8252 66.8377 74.2884 66.8377 83.4935C66.8377 92.6986 74.3061 100.158 83.5182 100.158C92.7303 100.158 100.196 92.6986 100.196 83.4935C100.196 74.2884 92.7295 66.8252 83.5174 66.8252H83.5182ZM83.5182 72.6739C89.4971 72.6739 94.3456 77.5172 94.3456 83.4926C94.3456 89.468 89.498 94.3113 83.5182 94.3113C77.5384 94.3113 72.6908 89.4672 72.6908 83.4926C72.6908 77.5181 77.5376 72.6739 83.5182 72.6739Z" fill="white"/>
</g>
<defs>
<linearGradient id="paint0_linear_1_5336" x1="75.242" y1="7.08524" x2="127.668" y2="165.771" gradientUnits="userSpaceOnUse">
<stop stop-color="white"/>
<stop offset="1" stop-color="#D7D7D7"/>
</linearGradient>
<linearGradient id="paint1_linear_1_5336" x1="74.8649" y1="0.764812" x2="135.449" y2="170.288" gradientUnits="userSpaceOnUse">
<stop stop-color="#322D37"/>
<stop offset="1" stop-color="#18151B"/>
</linearGradient>
<linearGradient id="paint2_linear_1_5336" x1="100.562" y1="-2.49538" x2="66.4369" y2="169.495" gradientUnits="userSpaceOnUse">
<stop stop-color="#7F0CFD"/>
<stop offset="0.52" stop-color="#FD01C4"/>
<stop offset="1" stop-color="#FFC201"/>
</linearGradient>
<radialGradient id="paint3_radial_1_5336" cx="0" cy="0" r="1" gradientUnits="userSpaceOnUse" gradientTransform="translate(124.514 80.6502) rotate(164.25) scale(55.7942 40.1993)">
<stop stop-color="#FF005F"/>
<stop offset="1" stop-color="#FC01D8"/>
</radialGradient>
<radialGradient id="paint4_radial_1_5336" cx="0" cy="0" r="1" gradientUnits="userSpaceOnUse" gradientTransform="translate(62.9322 133.828) rotate(-90) scale(69.7428 73.9959)">
<stop stop-color="#FFCC00"/>
<stop offset="0.12" stop-color="#FFCC00"/>
<stop offset="0.57" stop-color="#FE4A05"/>
<stop offset="0.69" stop-color="#FF0F3F"/>
<stop offset="1" stop-color="#FE0657" stop-opacity="0"/>
</radialGradient>
<radialGradient id="paint5_radial_1_5336" cx="0" cy="0" r="1" gradientUnits="userSpaceOnUse" gradientTransform="translate(85.7658 125.907) rotate(-59.87) scale(28.8463 37.5342)">
<stop stop-color="#FFCC00"/>
<stop offset="1" stop-color="#FFCC00" stop-opacity="0"/>
</radialGradient>
<radialGradient id="paint6_radial_1_5336" cx="0" cy="0" r="1" gradientUnits="userSpaceOnUse" gradientTransform="translate(51.7053 43.4529) rotate(164.27) scale(55.2022 18.8109)">
<stop stop-color="#780CFF"/>
<stop offset="1" stop-color="#820BFF" stop-opacity="0"/>
</radialGradient>
<clipPath id="clip0_1_5336">
<rect width="87.36" height="87.36" fill="white" transform="translate(39.8203 39.8196)"/>
</clipPath>
</defs>
</svg>
