<?xml version="1.0" encoding="utf-8"?>
<!-- Generator: Adobe Illustrator 26.3.1, SVG Export Plug-In . SVG Version: 6.00 Build 0)  -->
<svg version="1.1" id="Layer_1" xmlns="http://www.w3.org/2000/svg" xmlns:xlink="http://www.w3.org/1999/xlink" x="0px" y="0px"
	 viewBox="0 0 178 178" style="enable-background:new 0 0 178 178;" xml:space="preserve">
<style type="text/css">
	.st0{fill:url(#SVGID_1_);}
	.st1{fill:url(#SVGID_00000145058210553626718590000014218365069151887268_);}
	.st2{fill:none;stroke:url(#SVGID_00000004516738603998527800000016623416181534947498_);stroke-width:5.46;stroke-opacity:0.7;}
	.st3{clip-path:url(#SVGID_00000020383743292625287970000007002766911814331523_);}
	.st4{fill:url(#SVGID_00000075883039363158350400000008791687800270377360_);}
	.st5{fill:url(#SVGID_00000145044127403496912920000010023013199574101150_);}
	.st6{fill:url(#SVGID_00000005965561115051675260000017112754549002666166_);}
	.st7{fill:url(#SVGID_00000106865773773419951400000010697887421322211213_);}
	.st8{fill:#FFFFFF;}
</style>
<linearGradient id="SVGID_1_" gradientUnits="userSpaceOnUse" x1="65.4256" y1="161.2446" x2="117.8516" y2="2.5588" gradientTransform="matrix(1 0 0 -1 0 178.89)">
	<stop  offset="0" style="stop-color:#FFFFFF"/>
	<stop  offset="1" style="stop-color:#D7D7D7"/>
</linearGradient>
<path class="st0" d="M5.7,49.4c0-15.3,0-22.9,3-28.8c2.6-5.1,6.8-9.3,11.9-11.9c5.8-3,13.5-3,28.8-3h79.2c15.3,0,22.9,0,28.8,3
	c5.1,2.6,9.3,6.8,11.9,11.9c3,5.8,3,13.5,3,28.8v79.2c0,15.3,0,22.9-3,28.8c-2.6,5.1-6.8,9.3-11.9,11.9c-5.8,3-13.5,3-28.8,3H49.4
	c-15.3,0-22.9,0-28.8-3c-5.1-2.6-9.3-6.8-11.9-11.9c-3-5.8-3-13.5-3-28.8V49.4z"/>
<linearGradient id="SVGID_00000050638585406285086390000015282109501759961009_" gradientUnits="userSpaceOnUse" x1="61.8024" y1="165.9913" x2="122.3865" y2="-3.5319" gradientTransform="matrix(1 0 0 -1 0 178.89)">
	<stop  offset="0" style="stop-color:#322D37"/>
	<stop  offset="1" style="stop-color:#18151B"/>
</linearGradient>
<path style="fill:url(#SVGID_00000050638585406285086390000015282109501759961009_);" d="M5.7,49.4c0-15.3,0-22.9,3-28.8
	c2.6-5.1,6.8-9.3,11.9-11.9c5.8-3,13.5-3,28.8-3h79.2c15.3,0,22.9,0,28.8,3c5.1,2.6,9.3,6.8,11.9,11.9c3,5.8,3,13.5,3,28.8v79.2
	c0,15.3,0,22.9-3,28.8c-2.6,5.1-6.8,9.3-11.9,11.9c-5.8,3-13.5,3-28.8,3H49.4c-15.3,0-22.9,0-28.8-3c-5.1-2.6-9.3-6.8-11.9-11.9
	c-3-5.8-3-13.5-3-28.8V49.4z"/>
<linearGradient id="SVGID_00000091732190612255687430000003311358628522137474_" gradientUnits="userSpaceOnUse" x1="106.0618" y1="175.8854" x2="71.9367" y2="3.895" gradientTransform="matrix(1 0 0 -1 0 178.89)">
	<stop  offset="0" style="stop-color:#7F0CFD"/>
	<stop  offset="0.52" style="stop-color:#FD01C4"/>
	<stop  offset="1" style="stop-color:#FFC201"/>
</linearGradient>
<path style="fill:none;stroke:url(#SVGID_00000091732190612255687430000003311358628522137474_);stroke-width:5.46;stroke-opacity:0.7;" d="
	M169.5,49.4v79.2c0,7.7,0,13.3-0.4,17.7c-0.4,4.4-1.1,7.4-2.3,9.8c-2.4,4.6-6.1,8.4-10.7,10.7c-2.5,1.3-5.4,2-9.8,2.3
	c-4.4,0.4-10,0.4-17.7,0.4H49.4c-7.7,0-13.3,0-17.7-0.4c-4.4-0.4-7.4-1.1-9.8-2.3c-4.6-2.4-8.4-6.1-10.7-10.7
	c-1.3-2.5-2-5.4-2.3-9.8c-0.4-4.4-0.4-10-0.4-17.7V49.4c0-7.7,0-13.3,0.4-17.7c0.4-4.4,1.1-7.4,2.3-9.8c2.4-4.6,6.1-8.4,10.7-10.7
	c2.5-1.3,5.4-2,9.8-2.3c4.4-0.4,10-0.4,17.7-0.4h79.2c7.7,0,13.3,0,17.7,0.4c4.4,0.4,7.4,1.1,9.8,2.3c4.6,2.4,8.4,6.1,10.7,10.7
	c1.3,2.5,2,5.4,2.3,9.8C169.5,36.1,169.5,41.7,169.5,49.4z"/>
<g>
	<defs>
		<rect id="SVGID_00000137106849672345022760000010940486150419244702_" x="45.3" y="45.3" width="87.4" height="87.4"/>
	</defs>
	<clipPath id="SVGID_00000135671398819526834160000016927009125391221178_">
		<use xlink:href="#SVGID_00000137106849672345022760000010940486150419244702_"  style="overflow:visible;"/>
	</clipPath>
	<g style="clip-path:url(#SVGID_00000135671398819526834160000016927009125391221178_);">
		
			<radialGradient id="SVGID_00000114036400340140717770000013394676989506974857_" cx="-210.552" cy="519.9035" r="1" gradientTransform="matrix(-53.6994 15.1448 10.9117 38.69 -16849.5449 -16840.1602)" gradientUnits="userSpaceOnUse">
			<stop  offset="0" style="stop-color:#FF005F"/>
			<stop  offset="1" style="stop-color:#FC01D8"/>
		</radialGradient>
		<path style="fill:url(#SVGID_00000114036400340140717770000013394676989506974857_);" d="M89,45.3c-18.2,0-23.6,0-24.6,0.1
			c-3.7,0.3-6.1,0.9-8.6,2.2c-2,1-3.5,2.1-5,3.7c-2.8,2.9-4.5,6.4-5.1,10.6c-0.3,2-0.4,2.5-0.4,12.9c0,3.5,0,8.1,0,14.2
			c0,18.2,0,23.6,0.1,24.6c0.3,3.6,0.9,5.9,2.1,8.4c2.3,4.8,6.7,8.4,11.9,9.7c1.8,0.5,3.8,0.7,6.3,0.8c1.1,0,12.1,0.1,23.1,0.1
			c11,0,22.1,0,23.1-0.1c3-0.1,4.7-0.4,6.6-0.9c5.2-1.4,9.6-4.9,11.9-9.8c1.2-2.4,1.8-4.8,2.1-8.3c0.1-0.8,0.1-12.8,0.1-24.7
			s0-24-0.1-24.7c-0.3-3.5-0.9-5.9-2.1-8.4c-1-2-2.1-3.6-3.7-5.1c-2.9-2.8-6.4-4.4-10.6-5c-2-0.3-2.4-0.4-12.9-0.4H89L89,45.3z"/>
		
			<radialGradient id="SVGID_00000137838198703981164360000000096701699572581795_" cx="-213.332" cy="507.498" r="1" gradientTransform="matrix(4.270515e-15 -69.7428 -73.9959 -4.530942e-15 37621.1992 -14739.0449)" gradientUnits="userSpaceOnUse">
			<stop  offset="0" style="stop-color:#FFCC00"/>
			<stop  offset="0.12" style="stop-color:#FFCC00"/>
			<stop  offset="0.57" style="stop-color:#FE4A05"/>
			<stop  offset="0.69" style="stop-color:#FF0F3F"/>
			<stop  offset="1" style="stop-color:#FE0657;stop-opacity:0"/>
		</radialGradient>
		<path style="fill:url(#SVGID_00000137838198703981164360000000096701699572581795_);" d="M89,45.3c-18.2,0-23.6,0-24.6,0.1
			c-3.7,0.3-6.1,0.9-8.6,2.2c-2,1-3.5,2.1-5,3.7c-2.8,2.9-4.5,6.4-5.1,10.6c-0.3,2-0.4,2.5-0.4,12.9c0,3.5,0,8.1,0,14.2
			c0,18.2,0,23.6,0.1,24.6c0.3,3.6,0.9,5.9,2.1,8.4c2.3,4.8,6.7,8.4,11.9,9.7c1.8,0.5,3.8,0.7,6.3,0.8c1.1,0,12.1,0.1,23.1,0.1
			c11,0,22.1,0,23.1-0.1c3-0.1,4.7-0.4,6.6-0.9c5.2-1.4,9.6-4.9,11.9-9.8c1.2-2.4,1.8-4.8,2.1-8.3c0.1-0.8,0.1-12.8,0.1-24.7
			s0-24-0.1-24.7c-0.3-3.5-0.9-5.9-2.1-8.4c-1-2-2.1-3.6-3.7-5.1c-2.9-2.8-6.4-4.4-10.6-5c-2-0.3-2.4-0.4-12.9-0.4H89L89,45.3z"/>
		
			<radialGradient id="SVGID_00000034786238537083403710000011958123047065023163_" cx="-214.8803" cy="500.952" r="1" gradientTransform="matrix(14.4798 -24.9488 -32.4629 -18.8408 19465.0449 4208.7324)" gradientUnits="userSpaceOnUse">
			<stop  offset="0" style="stop-color:#FFCC00"/>
			<stop  offset="1" style="stop-color:#FFCC00;stop-opacity:0"/>
		</radialGradient>
		<path style="fill:url(#SVGID_00000034786238537083403710000011958123047065023163_);" d="M89,45.3c-18.2,0-23.6,0-24.6,0.1
			c-3.7,0.3-6.1,0.9-8.6,2.2c-2,1-3.5,2.1-5,3.7c-2.8,2.9-4.5,6.4-5.1,10.6c-0.3,2-0.4,2.5-0.4,12.9c0,3.5,0,8.1,0,14.2
			c0,18.2,0,23.6,0.1,24.6c0.3,3.6,0.9,5.9,2.1,8.4c2.3,4.8,6.7,8.4,11.9,9.7c1.8,0.5,3.8,0.7,6.3,0.8c1.1,0,12.1,0.1,23.1,0.1
			c11,0,22.1,0,23.1-0.1c3-0.1,4.7-0.4,6.6-0.9c5.2-1.4,9.6-4.9,11.9-9.8c1.2-2.4,1.8-4.8,2.1-8.3c0.1-0.8,0.1-12.8,0.1-24.7
			s0-24-0.1-24.7c-0.3-3.5-0.9-5.9-2.1-8.4c-1-2-2.1-3.6-3.7-5.1c-2.9-2.8-6.4-4.4-10.6-5c-2-0.3-2.4-0.4-12.9-0.4H89L89,45.3z"/>
		
			<radialGradient id="SVGID_00000122698480059587373780000009565097319256885653_" cx="-210.5764" cy="530.7184" r="1" gradientTransform="matrix(-53.1349 14.9656 5.0997 18.1064 -13838.2617 -6409.0688)" gradientUnits="userSpaceOnUse">
			<stop  offset="0" style="stop-color:#780CFF"/>
			<stop  offset="1" style="stop-color:#820BFF;stop-opacity:0"/>
		</radialGradient>
		<path style="fill:url(#SVGID_00000122698480059587373780000009565097319256885653_);" d="M89,45.3c-18.2,0-23.6,0-24.6,0.1
			c-3.7,0.3-6.1,0.9-8.6,2.2c-2,1-3.5,2.1-5,3.7c-2.8,2.9-4.5,6.4-5.1,10.6c-0.3,2-0.4,2.5-0.4,12.9c0,3.5,0,8.1,0,14.2
			c0,18.2,0,23.6,0.1,24.6c0.3,3.6,0.9,5.9,2.1,8.4c2.3,4.8,6.7,8.4,11.9,9.7c1.8,0.5,3.8,0.7,6.3,0.8c1.1,0,12.1,0.1,23.1,0.1
			c11,0,22.1,0,23.1-0.1c3-0.1,4.7-0.4,6.6-0.9c5.2-1.4,9.6-4.9,11.9-9.8c1.2-2.4,1.8-4.8,2.1-8.3c0.1-0.8,0.1-12.8,0.1-24.7
			s0-24-0.1-24.7c-0.3-3.5-0.9-5.9-2.1-8.4c-1-2-2.1-3.6-3.7-5.1c-2.9-2.8-6.4-4.4-10.6-5c-2-0.3-2.4-0.4-12.9-0.4H89L89,45.3z"/>
		<path class="st8" d="M89,56.5c-8.8,0-9.9,0-13.4,0.2c-3.5,0.2-5.8,0.7-7.9,1.5c-2.1,0.8-3.9,1.9-5.8,3.7c-1.8,1.8-2.9,3.6-3.7,5.7
			c-0.8,2.1-1.4,4.4-1.5,7.9c-0.2,3.5-0.2,4.6-0.2,13.4s0,9.9,0.2,13.4c0.2,3.5,0.7,5.8,1.5,7.9c0.8,2.1,1.9,3.9,3.7,5.8
			c1.8,1.8,3.6,2.9,5.8,3.7c2.1,0.8,4.4,1.3,7.9,1.5c3.5,0.2,4.6,0.2,13.4,0.2c8.8,0,9.9,0,13.4-0.2c3.5-0.2,5.8-0.7,7.9-1.5
			c2.1-0.8,3.9-1.9,5.8-3.7c1.8-1.8,2.9-3.6,3.7-5.7c0.8-2.1,1.3-4.4,1.5-7.9c0.2-3.5,0.2-4.6,0.2-13.4s0-9.9-0.2-13.4
			c-0.2-3.5-0.7-5.8-1.5-7.9c-0.8-2.1-1.9-3.9-3.7-5.8c-1.8-1.8-3.6-2.9-5.8-3.7c-2.1-0.8-4.4-1.3-7.9-1.5
			C98.9,56.6,97.8,56.5,89,56.5L89,56.5L89,56.5z M86.1,62.4c0.9,0,1.8,0,2.9,0c8.7,0,9.7,0,13.1,0.2c3.2,0.1,4.9,0.7,6,1.1
			c1.5,0.6,2.6,1.3,3.7,2.4c1.1,1.1,1.8,2.2,2.4,3.7c0.4,1.1,1,2.9,1.1,6c0.2,3.4,0.2,4.4,0.2,13.1c0,8.7,0,9.7-0.2,13.1
			c-0.1,3.2-0.7,4.9-1.1,6c-0.6,1.5-1.3,2.6-2.4,3.7c-1.1,1.1-2.2,1.8-3.7,2.4c-1.1,0.4-2.9,1-6,1.1c-3.4,0.2-4.5,0.2-13.1,0.2
			c-8.7,0-9.7,0-13.1-0.2c-3.2-0.1-4.9-0.7-6-1.1c-1.5-0.6-2.6-1.3-3.7-2.4c-1.1-1.1-1.8-2.2-2.4-3.7c-0.4-1.1-1-2.9-1.1-6
			c-0.2-3.4-0.2-4.4-0.2-13.1c0-8.7,0-9.7,0.2-13.1c0.1-3.2,0.7-4.9,1.1-6c0.6-1.5,1.3-2.6,2.4-3.7c1.1-1.1,2.2-1.8,3.7-2.4
			c1.1-0.4,2.9-1,6-1.1C78.9,62.4,80.1,62.4,86.1,62.4L86.1,62.4z M106.4,67.8c-2.2,0-3.9,1.7-3.9,3.9c0,2.2,1.7,3.9,3.9,3.9
			c2.2,0,3.9-1.7,3.9-3.9C110.3,69.5,108.5,67.8,106.4,67.8L106.4,67.8L106.4,67.8z M89,72.3c-9.2,0-16.7,7.5-16.7,16.7
			s7.5,16.7,16.7,16.7s16.7-7.5,16.7-16.7S98.2,72.3,89,72.3L89,72.3z M89,78.2c6,0,10.8,4.8,10.8,10.8S95,99.8,89,99.8
			c-6,0-10.8-4.8-10.8-10.8C78.2,83,83,78.2,89,78.2z"/>
	</g>
</g>
</svg>
