<svg width="167" height="167" viewBox="0 0 167 167" fill="none" xmlns="http://www.w3.org/2000/svg">
<path d="M0.292969 43.68C0.292969 28.3906 0.292969 20.7458 3.26849 14.9061C5.88583 9.76923 10.0622 5.59286 15.199 2.97552C21.0388 0 28.6835 0 43.973 0L123.143 0C138.432 0 146.077 0 151.917 2.97552C157.054 5.59286 161.23 9.76923 163.847 14.9061C166.823 20.7458 166.823 28.3906 166.823 43.68L166.823 122.85C166.823 138.139 166.823 145.784 163.847 151.624C161.23 156.761 157.054 160.937 151.917 163.554C146.077 166.53 138.432 166.53 123.143 166.53L43.973 166.53C28.6836 166.53 21.0388 166.53 15.199 163.554C10.0622 160.937 5.88583 156.761 3.26849 151.624C0.292969 145.784 0.292969 138.139 0.292969 122.85L0.292969 43.68Z" fill="url(#paint0_linear_1389_13503)"/>
<path d="M0.292969 43.68C0.292969 28.3906 0.292969 20.7458 3.26849 14.9061C5.88583 9.76923 10.0622 5.59286 15.199 2.97552C21.0388 0 28.6835 0 43.973 0L123.143 0C138.432 0 146.077 0 151.917 2.97552C157.054 5.59286 161.23 9.76923 163.847 14.9061C166.823 20.7458 166.823 28.3906 166.823 43.68L166.823 122.85C166.823 138.139 166.823 145.784 163.847 151.624C161.23 156.761 157.054 160.937 151.917 163.554C146.077 166.53 138.432 166.53 123.143 166.53L43.973 166.53C28.6836 166.53 21.0388 166.53 15.199 163.554C10.0622 160.937 5.88583 156.761 3.26849 151.624C0.292969 145.784 0.292969 138.139 0.292969 122.85L0.292969 43.68Z" fill="url(#paint1_linear_1389_13503)"/>
<path d="M164.093 43.68L164.093 122.85C164.093 130.54 164.091 136.143 163.73 140.558C163.372 144.942 162.674 147.914 161.415 150.385C159.059 155.008 155.301 158.766 150.678 161.122C148.207 162.381 145.235 163.079 140.851 163.437C136.436 163.798 130.833 163.8 123.143 163.8L43.973 163.8C36.2832 163.8 30.6801 163.798 26.2647 163.437C21.8812 163.079 18.9093 162.381 16.4384 161.122C11.8153 158.766 8.05655 155.008 5.70094 150.385C4.44195 147.914 3.74399 144.942 3.38584 140.558C3.02509 136.143 3.02297 130.54 3.02297 122.85L3.02297 43.68C3.02297 35.9903 3.02509 30.3871 3.38584 25.9717C3.74399 21.5882 4.44195 18.6164 5.70094 16.1455C8.05655 11.5223 11.8153 7.76358 16.4384 5.40797C18.9093 4.14898 21.8812 3.45102 26.2647 3.09287C30.6801 2.73212 36.2832 2.73 43.973 2.73L123.143 2.73C130.833 2.73 136.436 2.73212 140.851 3.09287C145.235 3.45102 148.207 4.14898 150.678 5.40797C155.301 7.76358 159.059 11.5223 161.415 16.1455C162.674 18.6164 163.372 21.5882 163.73 25.9717C164.091 30.3871 164.093 35.9902 164.093 43.68Z" stroke="#006699" stroke-opacity="0.7" stroke-width="5.46"/>
<path d="M40.5605 46.3101C40.5605 42.8826 43.4093 40.1133 46.9162 40.1133L120.2 40.1133C123.707 40.1133 126.556 42.8939 126.556 46.3101L126.556 120.445C126.556 123.872 123.707 126.642 120.2 126.642L46.9162 126.642C43.4093 126.642 40.5605 123.861 40.5605 120.445L40.5605 46.3101Z" fill="#006699"/>
<path fill-rule="evenodd" clip-rule="evenodd" d="M66.6188 112.557L66.6188 73.4808H53.635L53.635 112.557H66.6188ZM60.1269 68.1465C64.6554 68.1465 67.4701 65.1502 67.4701 61.3936C67.3906 57.5574 64.6554 54.6406 60.2064 54.6406C55.7574 54.6406 52.8633 57.5574 52.8633 61.3936C52.8633 65.2297 55.6779 68.1465 60.0361 68.1465H60.1156H60.1269Z" fill="white"/>
<path fill-rule="evenodd" clip-rule="evenodd" d="M73.8164 112.558H86.8002V90.733C86.8002 89.564 86.8797 88.395 87.2315 87.5665C88.1735 85.2285 90.3072 82.8111 93.8936 82.8111C98.5923 82.8111 100.476 86.3975 100.476 91.6523V112.558H113.46V90.1542C113.46 78.1464 107.048 72.5625 98.5015 72.5625C91.4989 72.5625 88.4232 76.4781 86.7094 79.1452H86.8002V73.4818H73.8164C73.9866 77.1477 73.8164 112.558 73.8164 112.558Z" fill="white"/>
<defs>
<linearGradient id="paint0_linear_1389_13503" x1="75.3006" y1="6.85062" x2="127.727" y2="165.536" gradientUnits="userSpaceOnUse">
<stop stop-color="white"/>
<stop offset="1" stop-color="#D7D7D7"/>
</linearGradient>
<linearGradient id="paint1_linear_1389_13503" x1="74.9235" y1="0.530193" x2="135.508" y2="170.053" gradientUnits="userSpaceOnUse">
<stop stop-color="#322D37"/>
<stop offset="1" stop-color="#18151B"/>
</linearGradient>
</defs>
</svg>
