<?xml version="1.0" encoding="utf-8"?>
<!-- Generator: Adobe Illustrator 26.3.1, SVG Export Plug-In . SVG Version: 6.00 Build 0)  -->
<svg version="1.1" id="Layer_1" xmlns="http://www.w3.org/2000/svg" xmlns:xlink="http://www.w3.org/1999/xlink" x="0px" y="0px"
	 viewBox="0 0 178 178" style="enable-background:new 0 0 178 178;" xml:space="preserve">
<style type="text/css">
	.st0{fill:url(#SVGID_1_);}
	.st1{fill:url(#SVGID_00000031921534457903750890000017585137181057044393_);}
	.st2{fill:none;stroke:#006699;stroke-width:5.46;stroke-opacity:0.7;}
	.st3{fill:#006699;}
	.st4{fill-rule:evenodd;clip-rule:evenodd;fill:#FFFFFF;}
</style>
<linearGradient id="SVGID_1_" gradientUnits="userSpaceOnUse" x1="65.4839" y1="161.4791" x2="117.9103" y2="2.7937" gradientTransform="matrix(1 0 0 -1 0 178.89)">
	<stop  offset="0" style="stop-color:#FFFFFF"/>
	<stop  offset="1" style="stop-color:#D7D7D7"/>
</linearGradient>
<path class="st0" d="M5.8,49.2c0-15.3,0-22.9,3-28.8c2.6-5.1,6.8-9.3,11.9-11.9c5.8-3,13.5-3,28.8-3h79.2c15.3,0,22.9,0,28.8,3
	c5.1,2.6,9.3,6.8,11.9,11.9c3,5.8,3,13.5,3,28.8v79.2c0,15.3,0,22.9-3,28.8c-2.6,5.1-6.8,9.3-11.9,11.9c-5.8,3-13.5,3-28.8,3H49.5
	c-15.3,0-22.9,0-28.8-3c-5.1-2.6-9.3-6.8-11.9-11.9c-3-5.8-3-13.5-3-28.8V49.2z"/>
<linearGradient id="SVGID_00000154384423166124543430000015749213732042112388_" gradientUnits="userSpaceOnUse" x1="61.8607" y1="166.2258" x2="122.4452" y2="-3.297" gradientTransform="matrix(1 0 0 -1 0 178.89)">
	<stop  offset="0" style="stop-color:#322D37"/>
	<stop  offset="1" style="stop-color:#18151B"/>
</linearGradient>
<path style="fill:url(#SVGID_00000154384423166124543430000015749213732042112388_);" d="M5.8,49.2c0-15.3,0-22.9,3-28.8
	c2.6-5.1,6.8-9.3,11.9-11.9c5.8-3,13.5-3,28.8-3h79.2c15.3,0,22.9,0,28.8,3c5.1,2.6,9.3,6.8,11.9,11.9c3,5.8,3,13.5,3,28.8v79.2
	c0,15.3,0,22.9-3,28.8c-2.6,5.1-6.8,9.3-11.9,11.9c-5.8,3-13.5,3-28.8,3H49.5c-15.3,0-22.9,0-28.8-3c-5.1-2.6-9.3-6.8-11.9-11.9
	c-3-5.8-3-13.5-3-28.8V49.2z"/>
<path class="st2" d="M169.6,49.2v79.2c0,7.7,0,13.3-0.4,17.7c-0.4,4.4-1.1,7.4-2.3,9.8c-2.4,4.6-6.1,8.4-10.7,10.7
	c-2.5,1.3-5.4,2-9.8,2.3c-4.4,0.4-10,0.4-17.7,0.4H49.5c-7.7,0-13.3,0-17.7-0.4c-4.4-0.4-7.4-1.1-9.8-2.3
	c-4.6-2.4-8.4-6.1-10.7-10.7c-1.3-2.5-2-5.4-2.3-9.8c-0.4-4.4-0.4-10-0.4-17.7V49.2c0-7.7,0-13.3,0.4-17.7c0.4-4.4,1.1-7.4,2.3-9.8
	c2.4-4.6,6.1-8.4,10.7-10.7c2.5-1.3,5.4-2,9.8-2.3c4.4-0.4,10-0.4,17.7-0.4h79.2c7.7,0,13.3,0,17.7,0.4c4.4,0.4,7.4,1.1,9.8,2.3
	c4.6,2.4,8.4,6.1,10.7,10.7c1.3,2.5,2,5.4,2.3,9.8C169.6,35.9,169.6,41.5,169.6,49.2z"/>
<path class="st3" d="M46.1,51.8c0-3.4,2.8-6.2,6.4-6.2h73.3c3.5,0,6.4,2.8,6.4,6.2v74.1c0,3.4-2.8,6.2-6.4,6.2H52.4
	c-3.5,0-6.4-2.8-6.4-6.2V51.8z"/>
<path class="st4" d="M72.1,118.1V79h-13v39.1H72.1z M65.6,73.6c4.5,0,7.3-3,7.3-6.8c-0.1-3.8-2.8-6.8-7.3-6.8
	c-4.4,0-7.3,2.9-7.3,6.8C58.4,70.7,61.2,73.6,65.6,73.6L65.6,73.6L65.6,73.6z"/>
<path class="st4" d="M79.3,118.1h13V96.2c0-1.2,0.1-2.3,0.4-3.2c0.9-2.3,3.1-4.8,6.7-4.8c4.7,0,6.6,3.6,6.6,8.8v20.9h13V95.7
	c0-12-6.4-17.6-15-17.6c-7,0-10.1,3.9-11.8,6.6h0.1V79h-13C79.5,82.6,79.3,118.1,79.3,118.1z"/>
</svg>
