<svg width="168" height="167" viewBox="0 0 168 167" fill="none" xmlns="http://www.w3.org/2000/svg">
<path d="M0.939453 43.68C0.939453 28.3906 0.939453 20.7458 3.91498 14.9061C6.53232 9.76923 10.7087 5.59286 15.8455 2.97552C21.6853 0 29.33 0 44.6195 0L123.789 0C139.079 0 146.724 0 152.563 2.97552C157.7 5.59286 161.877 9.76923 164.494 14.9061C167.469 20.7458 167.469 28.3906 167.469 43.68L167.469 122.85C167.469 138.139 167.469 145.784 164.494 151.624C161.877 156.761 157.7 160.937 152.563 163.554C146.724 166.53 139.079 166.53 123.789 166.53L44.6195 166.53C29.33 166.53 21.6853 166.53 15.8455 163.554C10.7087 160.937 6.53232 156.761 3.91498 151.624C0.939453 145.784 0.939453 138.139 0.939453 122.85L0.939453 43.68Z" fill="url(#paint0_linear_1389_13522)"/>
<path d="M0.939453 43.68C0.939453 28.3906 0.939453 20.7458 3.91498 14.9061C6.53232 9.76923 10.7087 5.59286 15.8455 2.97552C21.6853 0 29.33 0 44.6195 0L123.789 0C139.079 0 146.724 0 152.563 2.97552C157.7 5.59286 161.877 9.76923 164.494 14.9061C167.469 20.7458 167.469 28.3906 167.469 43.68L167.469 122.85C167.469 138.139 167.469 145.784 164.494 151.624C161.877 156.761 157.7 160.937 152.563 163.554C146.724 166.53 139.079 166.53 123.789 166.53L44.6195 166.53C29.33 166.53 21.6853 166.53 15.8455 163.554C10.7087 160.937 6.53232 156.761 3.91498 151.624C0.939453 145.784 0.939453 138.139 0.939453 122.85L0.939453 43.68Z" fill="url(#paint1_linear_1389_13522)"/>
<path d="M164.739 43.68L164.739 122.85C164.739 130.54 164.737 136.143 164.377 140.558C164.018 144.942 163.32 147.914 162.061 150.385C159.706 155.008 155.947 158.766 151.324 161.122C148.853 162.381 145.881 163.079 141.498 163.437C137.082 163.798 131.479 163.8 123.789 163.8L44.6195 163.8C36.9297 163.8 31.3266 163.798 26.9112 163.437C22.5277 163.079 19.5558 162.381 17.0849 161.122C12.4618 158.766 8.70303 155.008 6.34742 150.385C5.08844 147.914 4.39047 144.942 4.03233 140.558C3.67158 136.143 3.66945 130.54 3.66945 122.85L3.66945 43.68C3.66945 35.9903 3.67158 30.3871 4.03233 25.9717C4.39047 21.5882 5.08844 18.6164 6.34742 16.1455C8.70303 11.5223 12.4618 7.76358 17.0849 5.40797C19.5558 4.14898 22.5277 3.45102 26.9112 3.09287C31.3266 2.73212 36.9297 2.73 44.6194 2.73L123.789 2.73C131.479 2.73 137.082 2.73212 141.498 3.09287C145.881 3.45102 148.853 4.14898 151.324 5.40797C155.947 7.76358 159.706 11.5223 162.061 16.1455C163.32 18.6164 164.018 21.5882 164.377 25.9717C164.737 30.3871 164.739 35.9902 164.739 43.68Z" stroke="white" stroke-opacity="0.5" stroke-width="5.46"/>
<path d="M90.2237 83.2637C90.2237 98.7066 77.7526 111.246 62.3033 111.246C46.8539 111.246 34.3828 98.7066 34.3828 83.2637C34.3828 67.8209 46.8539 55.2812 62.3033 55.2813C77.7526 55.2813 90.2237 67.8209 90.2237 83.2637ZM120.812 83.2637C120.812 97.7801 114.546 109.578 106.852 109.578C99.1583 109.578 92.8917 97.7801 92.8917 83.2637C92.8917 68.7474 99.1583 56.9491 106.852 56.9491C114.546 56.9491 120.812 68.6857 120.812 83.2637ZM133.345 83.2637C133.345 96.2975 131.174 106.86 128.444 106.86C125.714 106.86 123.542 96.2975 123.542 83.2637C123.542 70.23 125.714 59.667 128.444 59.667C131.174 59.667 133.345 70.23 133.345 83.2637Z" fill="white"/>
<defs>
<linearGradient id="paint0_linear_1389_13522" x1="75.9471" y1="6.85062" x2="128.373" y2="165.536" gradientUnits="userSpaceOnUse">
<stop stop-color="white"/>
<stop offset="1" stop-color="#D7D7D7"/>
</linearGradient>
<linearGradient id="paint1_linear_1389_13522" x1="75.57" y1="0.530193" x2="136.154" y2="170.053" gradientUnits="userSpaceOnUse">
<stop stop-color="#322D37"/>
<stop offset="1" stop-color="#18151B"/>
</linearGradient>
</defs>
</svg>
