<?xml version="1.0" encoding="utf-8"?>
<!-- Generator: Adobe Illustrator 26.3.1, SVG Export Plug-In . SVG Version: 6.00 Build 0)  -->
<svg version="1.1" id="Layer_1" xmlns="http://www.w3.org/2000/svg" xmlns:xlink="http://www.w3.org/1999/xlink" x="0px" y="0px"
	 viewBox="0 0 178 178" style="enable-background:new 0 0 178 178;" xml:space="preserve">
<style type="text/css">
	.st0{fill:url(#SVGID_1_);}
	.st1{fill:url(#SVGID_00000130642041620644051120000013357867476144945061_);}
	.st2{fill:none;stroke:#FF4500;stroke-width:5.46;stroke-opacity:0.7;}
	.st3{fill:#FF4500;}
	.st4{fill:#FFFFFF;}
</style>
<linearGradient id="SVGID_1_" gradientUnits="userSpaceOnUse" x1="65.5135" y1="161.4792" x2="117.9396" y2="2.7938" gradientTransform="matrix(1 0 0 -1 0 178.89)">
	<stop  offset="0" style="stop-color:#FFFFFF"/>
	<stop  offset="1" style="stop-color:#D7D7D7"/>
</linearGradient>
<path class="st0" d="M5.8,49.2c0-15.3,0-22.9,3-28.8c2.6-5.1,6.8-9.3,11.9-11.9c5.8-3,13.5-3,28.8-3h79.2c15.3,0,22.9,0,28.8,3
	c5.1,2.6,9.3,6.8,11.9,11.9c3,5.8,3,13.5,3,28.8v79.2c0,15.3,0,22.9-3,28.8c-2.6,5.1-6.8,9.3-11.9,11.9c-5.8,3-13.5,3-28.8,3H49.5
	c-15.3,0-22.9,0-28.8-3c-5.1-2.6-9.3-6.8-11.9-11.9c-3-5.8-3-13.5-3-28.8V49.2z"/>
<linearGradient id="SVGID_00000119087595873995212020000001587960340158853031_" gradientUnits="userSpaceOnUse" x1="61.8903" y1="166.2259" x2="122.4745" y2="-3.2969" gradientTransform="matrix(1 0 0 -1 0 178.89)">
	<stop  offset="0" style="stop-color:#322D37"/>
	<stop  offset="1" style="stop-color:#18151B"/>
</linearGradient>
<path style="fill:url(#SVGID_00000119087595873995212020000001587960340158853031_);" d="M5.8,49.2c0-15.3,0-22.9,3-28.8
	c2.6-5.1,6.8-9.3,11.9-11.9c5.8-3,13.5-3,28.8-3h79.2c15.3,0,22.9,0,28.8,3c5.1,2.6,9.3,6.8,11.9,11.9c3,5.8,3,13.5,3,28.8v79.2
	c0,15.3,0,22.9-3,28.8c-2.6,5.1-6.8,9.3-11.9,11.9c-5.8,3-13.5,3-28.8,3H49.5c-15.3,0-22.9,0-28.8-3c-5.1-2.6-9.3-6.8-11.9-11.9
	c-3-5.8-3-13.5-3-28.8V49.2z"/>
<path class="st2" d="M169.6,49.2v79.2c0,7.7,0,13.3-0.4,17.7c-0.4,4.4-1.1,7.4-2.3,9.8c-2.4,4.6-6.1,8.4-10.7,10.7
	c-2.5,1.3-5.4,2-9.8,2.3c-4.4,0.4-10,0.4-17.7,0.4H49.5c-7.7,0-13.3,0-17.7-0.4c-4.4-0.4-7.4-1.1-9.8-2.3
	c-4.6-2.4-8.4-6.1-10.7-10.7c-1.3-2.5-2-5.4-2.3-9.8c-0.4-4.4-0.4-10-0.4-17.7V49.2c0-7.7,0-13.3,0.4-17.7c0.4-4.4,1.1-7.4,2.3-9.8
	c2.4-4.6,6.1-8.4,10.7-10.7c2.5-1.3,5.4-2,9.8-2.3c4.4-0.4,10-0.4,17.7-0.4h79.2c7.7,0,13.3,0,17.7,0.4c4.4,0.4,7.4,1.1,9.8,2.3
	c4.6,2.4,8.4,6.1,10.7,10.7c1.3,2.5,2,5.4,2.3,9.8C169.6,35.9,169.6,41.5,169.6,49.2z"/>
<path class="st3" d="M89.3,137.5c27,0,48.9-21.9,48.9-48.9c0-27-21.9-48.9-48.9-48.9c-27,0-48.9,21.9-48.9,48.9
	C40.4,115.6,62.3,137.5,89.3,137.5z"/>
<path class="st4" d="M121.9,88.6c-0.1-3.9-3.5-7-7.4-6.9c-1.8,0.1-3.4,0.8-4.7,2c-5.6-3.8-12.1-5.9-18.8-6l3.2-15.3l10.5,2.2
	c0.3,2.7,2.7,4.6,5.4,4.3c2.7-0.3,4.6-2.7,4.3-5.4c-0.3-2.7-2.7-4.6-5.4-4.3c-1.5,0.2-2.9,1.1-3.7,2.4l-12-2.4
	c-0.8-0.2-1.6,0.3-1.8,1.2v0l-3.6,17c-6.8,0.1-13.4,2.2-19.1,6c-2.9-2.7-7.4-2.6-10.1,0.3c-2.7,2.9-2.6,7.4,0.3,10.1
	c0.6,0.5,1.2,1,1.9,1.3c0,0.7,0,1.4,0,2.2c0,11,12.8,19.9,28.5,19.9c15.8,0,28.5-8.9,28.5-19.9c0-0.7,0-1.4,0-2.2
	C120.4,93.8,122,91.3,121.9,88.6z M73,93.5c0-2.7,2.2-4.9,4.9-4.9s4.9,2.2,4.9,4.9c0,2.7-2.2,4.9-4.9,4.9C75.2,98.3,73,96.2,73,93.5
	z M101.4,106.9c-3.5,2.6-7.7,4-12.1,3.8c-4.4,0.2-8.6-1.2-12.1-3.8c-0.5-0.6-0.4-1.4,0.2-1.9c0.5-0.4,1.2-0.4,1.7,0
	c2.9,2.2,6.5,3.2,10.2,3.1c3.6,0.2,7.2-0.9,10.2-3c0.5-0.5,1.4-0.5,1.9,0c0.5,0.5,0.5,1.4,0,1.9V106.9z M100.5,98.5
	c-2.7,0-4.9-2.2-4.9-4.9c0-2.7,2.2-4.9,4.9-4.9s4.9,2.2,4.9,4.9c0.1,2.7-2,5-4.7,5.1h-0.2L100.5,98.5z"/>
</svg>
