<svg width="168" height="167" viewBox="0 0 168 167" fill="none" xmlns="http://www.w3.org/2000/svg">
<path d="M0.822266 43.68C0.822266 28.3906 0.822266 20.7458 3.79779 14.9061C6.41513 9.76923 10.5915 5.59286 15.7283 2.97552C21.5681 0 29.2128 0 44.5023 0L123.672 0C138.962 0 146.606 0 152.446 2.97552C157.583 5.59286 161.759 9.76923 164.377 14.9061C167.352 20.7458 167.352 28.3906 167.352 43.68L167.352 122.85C167.352 138.139 167.352 145.784 164.377 151.624C161.759 156.761 157.583 160.937 152.446 163.554C146.606 166.53 138.962 166.53 123.672 166.53L44.5023 166.53C29.2128 166.53 21.5681 166.53 15.7283 163.554C10.5915 160.937 6.41513 156.761 3.79779 151.624C0.822266 145.784 0.822266 138.139 0.822266 122.85L0.822266 43.68Z" fill="url(#paint0_linear_1389_13510)"/>
<path d="M0.822266 43.68C0.822266 28.3906 0.822266 20.7458 3.79779 14.9061C6.41513 9.76923 10.5915 5.59286 15.7283 2.97552C21.5681 0 29.2128 0 44.5023 0L123.672 0C138.962 0 146.606 0 152.446 2.97552C157.583 5.59286 161.759 9.76923 164.377 14.9061C167.352 20.7458 167.352 28.3906 167.352 43.68L167.352 122.85C167.352 138.139 167.352 145.784 164.377 151.624C161.759 156.761 157.583 160.937 152.446 163.554C146.606 166.53 138.962 166.53 123.672 166.53L44.5023 166.53C29.2128 166.53 21.5681 166.53 15.7283 163.554C10.5915 160.937 6.41513 156.761 3.79779 151.624C0.822266 145.784 0.822266 138.139 0.822266 122.85L0.822266 43.68Z" fill="url(#paint1_linear_1389_13510)"/>
<path d="M164.622 43.68L164.622 122.85C164.622 130.54 164.62 136.143 164.259 140.558C163.901 144.942 163.203 147.914 161.944 150.385C159.589 155.008 155.83 158.766 151.207 161.122C148.736 162.381 145.764 163.079 141.381 163.437C136.965 163.798 131.362 163.8 123.672 163.8L44.5023 163.8C36.8125 163.8 31.2094 163.798 26.794 163.437C22.4105 163.079 19.4386 162.381 16.9677 161.122C12.3446 158.766 8.58584 155.008 6.23024 150.385C4.97125 147.914 4.27329 144.942 3.91514 140.558C3.55439 136.143 3.55227 130.54 3.55227 122.85L3.55227 43.68C3.55227 35.9903 3.55439 30.3871 3.91514 25.9717C4.27329 21.5882 4.97125 18.6164 6.23024 16.1455C8.58584 11.5223 12.3446 7.76358 16.9677 5.40797C19.4386 4.14898 22.4105 3.45102 26.794 3.09287C31.2094 2.73212 36.8125 2.73 44.5023 2.73L123.672 2.73C131.362 2.73 136.965 2.73212 141.381 3.09287C145.764 3.45102 148.736 4.14898 151.207 5.40797C155.83 7.76358 159.589 11.5223 161.944 16.1455C163.203 18.6164 163.901 21.5882 164.259 25.9717C164.62 30.3871 164.622 35.9902 164.622 43.68Z" stroke="#FF4500" stroke-opacity="0.7" stroke-width="5.46"/>
<path d="M84.2927 131.996C111.319 131.996 133.228 110.086 133.228 83.0603C133.228 56.0341 111.319 34.125 84.2927 34.125C57.2665 34.125 35.3574 56.0341 35.3574 83.0603C35.3574 110.086 57.2665 131.996 84.2927 131.996Z" fill="#FF4500"/>
<path d="M116.927 83.0611C116.781 79.12 113.472 76.0426 109.519 76.1764C107.768 76.2372 106.101 76.9548 104.836 78.1591C99.2651 74.3639 92.7209 72.2839 85.9943 72.138L89.169 56.8723L99.6421 59.074C99.9341 61.7622 102.343 63.7084 105.031 63.4165C107.719 63.1245 109.665 60.7161 109.373 58.0279C109.081 55.3396 106.673 53.3934 103.985 53.6854C102.44 53.8435 101.053 54.7436 100.287 56.0816L88.2932 53.6854C87.4783 53.5029 86.6633 54.0138 86.4808 54.8409V54.8653L82.8682 71.846C76.0564 71.9555 69.4271 74.0477 63.783 77.8671C60.9124 75.1668 56.3874 75.3006 53.687 78.1834C50.9866 81.0541 51.1204 85.579 54.0033 88.2794C54.5628 88.8025 55.2075 89.2525 55.9252 89.5688C55.8765 90.2864 55.8765 91.0041 55.9252 91.7218C55.9252 102.681 68.6972 111.598 84.4495 111.598C100.202 111.598 112.974 102.694 112.974 91.7218C113.022 91.0041 113.022 90.2864 112.974 89.5688C115.431 88.3402 116.976 85.8101 116.927 83.0611ZM67.9917 87.9632C67.9917 85.2628 70.1934 83.0611 72.8938 83.0611C75.5942 83.0611 77.7958 85.2628 77.7958 87.9632C77.7958 90.6635 75.5942 92.8652 72.8938 92.8652C70.1812 92.8409 67.9917 90.6635 67.9917 87.9632ZM96.4187 101.416C92.9398 104.032 88.6825 105.37 84.3278 105.187C79.9732 105.37 75.7158 104.032 72.2369 101.416C71.7747 100.857 71.8599 100.018 72.4194 99.5553C72.9059 99.1539 73.5993 99.1539 74.098 99.5553C77.0417 101.708 80.63 102.803 84.2792 102.633C87.9283 102.827 91.5288 101.781 94.509 99.6526C95.0442 99.1296 95.92 99.1418 96.443 99.677C96.9661 100.212 96.9539 101.088 96.4187 101.611V101.416ZM95.5429 93.0355C92.8425 93.0355 90.6409 90.8338 90.6409 88.1334C90.6409 85.4331 92.8425 83.2314 95.5429 83.2314C98.2433 83.2314 100.445 85.4331 100.445 88.1334C100.554 90.8338 98.4501 93.1085 95.7497 93.2179H95.5064L95.5429 93.0355Z" fill="white"/>
<defs>
<linearGradient id="paint0_linear_1389_13510" x1="75.8299" y1="6.85062" x2="128.256" y2="165.536" gradientUnits="userSpaceOnUse">
<stop stop-color="white"/>
<stop offset="1" stop-color="#D7D7D7"/>
</linearGradient>
<linearGradient id="paint1_linear_1389_13510" x1="75.4528" y1="0.530193" x2="136.037" y2="170.053" gradientUnits="userSpaceOnUse">
<stop stop-color="#322D37"/>
<stop offset="1" stop-color="#18151B"/>
</linearGradient>
</defs>
</svg>
