<svg width="168" height="167" viewBox="0 0 168 167" fill="none" xmlns="http://www.w3.org/2000/svg">
<path d="M0.880859 43.68C0.880859 28.3906 0.880859 20.7458 3.85638 14.9061C6.47372 9.76923 10.6501 5.59286 15.7869 2.97552C21.6267 0 29.2714 0 44.5609 0L123.731 0C139.02 0 146.665 0 152.505 2.97552C157.642 5.59286 161.818 9.76923 164.435 14.9061C167.411 20.7458 167.411 28.3906 167.411 43.68L167.411 122.85C167.411 138.139 167.411 145.784 164.435 151.624C161.818 156.761 157.642 160.937 152.505 163.554C146.665 166.53 139.02 166.53 123.731 166.53L44.5609 166.53C29.2714 166.53 21.6267 166.53 15.7869 163.554C10.6501 160.937 6.47372 156.761 3.85638 151.624C0.880859 145.784 0.880859 138.139 0.880859 122.85L0.880859 43.68Z" fill="url(#paint0_linear_1389_13516)"/>
<path d="M0.880859 43.68C0.880859 28.3906 0.880859 20.7458 3.85638 14.9061C6.47372 9.76923 10.6501 5.59286 15.7869 2.97552C21.6267 0 29.2714 0 44.5609 0L123.731 0C139.02 0 146.665 0 152.505 2.97552C157.642 5.59286 161.818 9.76923 164.435 14.9061C167.411 20.7458 167.411 28.3906 167.411 43.68L167.411 122.85C167.411 138.139 167.411 145.784 164.435 151.624C161.818 156.761 157.642 160.937 152.505 163.554C146.665 166.53 139.02 166.53 123.731 166.53L44.5609 166.53C29.2714 166.53 21.6267 166.53 15.7869 163.554C10.6501 160.937 6.47372 156.761 3.85638 151.624C0.880859 145.784 0.880859 138.139 0.880859 122.85L0.880859 43.68Z" fill="url(#paint1_linear_1389_13516)"/>
<path d="M164.681 43.68L164.681 122.85C164.681 130.54 164.679 136.143 164.318 140.558C163.96 144.942 163.262 147.914 162.003 150.385C159.647 155.008 155.889 158.766 151.265 161.122C148.795 162.381 145.823 163.079 141.439 163.437C137.024 163.798 131.421 163.8 123.731 163.8L44.5609 163.8C36.8711 163.8 31.268 163.798 26.8526 163.437C22.4691 163.079 19.4972 162.381 17.0263 161.122C12.4032 158.766 8.64444 155.008 6.28883 150.385C5.02984 147.914 4.33188 144.942 3.97373 140.558C3.61298 136.143 3.61086 130.54 3.61086 122.85L3.61086 43.68C3.61086 35.9903 3.61298 30.3871 3.97373 25.9717C4.33188 21.5882 5.02984 18.6164 6.28883 16.1455C8.64444 11.5223 12.4032 7.76358 17.0263 5.40797C19.4972 4.14898 22.4691 3.45102 26.8526 3.09287C31.268 2.73212 36.8711 2.73 44.5609 2.73L123.731 2.73C131.421 2.73 137.024 2.73212 141.439 3.09287C145.823 3.45102 148.795 4.14898 151.265 5.40797C155.889 7.76358 159.647 11.5223 162.003 16.1455C163.262 18.6164 163.96 21.5882 164.318 25.9717C164.679 30.3871 164.681 35.9902 164.681 43.68Z" stroke="#F58025" stroke-opacity="0.5" stroke-width="5.46"/>
<path fill-rule="evenodd" clip-rule="evenodd" d="M109.504 95.8086H117.253V126.806L47.5098 126.806L47.5098 95.8086H55.259V119.056L109.504 119.056V95.8086Z" fill="#BBBBBB"/>
<path d="M63.7072 93.5067L101.77 101.502L103.369 93.8941L65.3134 85.8913L63.7142 93.5067H63.7072ZM68.7442 75.2818L104.003 91.7032L107.286 84.6514L72.0271 68.23L68.7442 75.2818ZM78.5012 57.9869L108.392 82.8761L113.373 76.8951L83.4748 52.0059L78.4942 57.9799L78.5012 57.9869ZM97.7898 39.5859L91.5482 44.2284L114.761 75.4368L121.002 70.7943L97.7898 39.5859ZM63.0098 111.309H101.756L101.756 103.56H63.0098L63.0098 111.309Z" fill="#F58025"/>
<defs>
<linearGradient id="paint0_linear_1389_13516" x1="75.8885" y1="6.85062" x2="128.314" y2="165.536" gradientUnits="userSpaceOnUse">
<stop stop-color="white"/>
<stop offset="1" stop-color="#D7D7D7"/>
</linearGradient>
<linearGradient id="paint1_linear_1389_13516" x1="75.5114" y1="0.530193" x2="136.095" y2="170.053" gradientUnits="userSpaceOnUse">
<stop stop-color="#322D37"/>
<stop offset="1" stop-color="#18151B"/>
</linearGradient>
</defs>
</svg>
