<?xml version="1.0" encoding="utf-8"?>
<!-- Generator: Adobe Illustrator 26.3.1, SVG Export Plug-In . SVG Version: 6.00 Build 0)  -->
<svg version="1.1" id="Layer_1" xmlns="http://www.w3.org/2000/svg" xmlns:xlink="http://www.w3.org/1999/xlink" x="0px" y="0px"
	 viewBox="0 0 178 178" style="enable-background:new 0 0 178 178;" xml:space="preserve">
<style type="text/css">
	.st0{fill:url(#SVGID_1_);}
	.st1{fill:url(#SVGID_00000129901423359338671780000004048629966982700983_);}
	.st2{fill:none;stroke:#F58025;stroke-width:5.46;stroke-opacity:0.5;}
	.st3{fill-rule:evenodd;clip-rule:evenodd;fill:#BBBBBB;}
	.st4{fill:#F58025;}
</style>
<linearGradient id="SVGID_1_" gradientUnits="userSpaceOnUse" x1="65.5722" y1="161.4793" x2="117.9977" y2="2.7939" gradientTransform="matrix(1 0 0 -1 0 178.89)">
	<stop  offset="0" style="stop-color:#FFFFFF"/>
	<stop  offset="1" style="stop-color:#D7D7D7"/>
</linearGradient>
<path class="st0" d="M5.9,49.2c0-15.3,0-22.9,3-28.8c2.6-5.1,6.8-9.3,11.9-11.9c5.8-3,13.5-3,28.8-3h79.2c15.3,0,22.9,0,28.8,3
	c5.1,2.6,9.3,6.8,11.9,11.9c3,5.8,3,13.5,3,28.8v79.2c0,15.3,0,22.9-3,28.8c-2.6,5.1-6.8,9.3-11.9,11.9c-5.8,3-13.5,3-28.8,3H49.6
	c-15.3,0-22.9,0-28.8-3c-5.1-2.6-9.3-6.8-11.9-11.9c-3-5.8-3-13.5-3-28.8V49.2z"/>
<linearGradient id="SVGID_00000164481598043252566670000006028235877374407812_" gradientUnits="userSpaceOnUse" x1="61.949" y1="166.226" x2="122.5326" y2="-3.2968" gradientTransform="matrix(1 0 0 -1 0 178.89)">
	<stop  offset="0" style="stop-color:#322D37"/>
	<stop  offset="1" style="stop-color:#18151B"/>
</linearGradient>
<path style="fill:url(#SVGID_00000164481598043252566670000006028235877374407812_);" d="M5.9,49.2c0-15.3,0-22.9,3-28.8
	c2.6-5.1,6.8-9.3,11.9-11.9c5.8-3,13.5-3,28.8-3h79.2c15.3,0,22.9,0,28.8,3c5.1,2.6,9.3,6.8,11.9,11.9c3,5.8,3,13.5,3,28.8v79.2
	c0,15.3,0,22.9-3,28.8c-2.6,5.1-6.8,9.3-11.9,11.9c-5.8,3-13.5,3-28.8,3H49.6c-15.3,0-22.9,0-28.8-3c-5.1-2.6-9.3-6.8-11.9-11.9
	c-3-5.8-3-13.5-3-28.8V49.2z"/>
<path class="st2" d="M169.7,49.2v79.2c0,7.7,0,13.3-0.4,17.7c-0.4,4.4-1.1,7.4-2.3,9.8c-2.4,4.6-6.1,8.4-10.7,10.7
	c-2.5,1.3-5.4,2-9.8,2.3c-4.4,0.4-10,0.4-17.7,0.4H49.6c-7.7,0-13.3,0-17.7-0.4c-4.4-0.4-7.4-1.1-9.8-2.3
	c-4.6-2.4-8.4-6.1-10.7-10.7c-1.3-2.5-2-5.4-2.3-9.8c-0.4-4.4-0.4-10-0.4-17.7V49.2c0-7.7,0-13.3,0.4-17.7c0.4-4.4,1.1-7.4,2.3-9.8
	c2.4-4.6,6.1-8.4,10.7-10.7c2.5-1.3,5.4-2,9.8-2.3c4.4-0.4,10-0.4,17.7-0.4h79.2c7.7,0,13.3,0,17.7,0.4c4.4,0.4,7.4,1.1,9.8,2.3
	c4.6,2.4,8.4,6.1,10.7,10.7c1.3,2.5,2,5.4,2.3,9.8C169.7,35.9,169.7,41.5,169.7,49.2z"/>
<path class="st3" d="M114.5,101.3h7.7v31H52.5v-31h7.7v23.2h54.2V101.3z"/>
<path class="st4" d="M68.7,99l38.1,8l1.6-7.6l-38.1-8L68.7,99L68.7,99z M73.7,80.8L109,97.2l3.3-7.1L77,73.7L73.7,80.8z M83.5,63.5
	l29.9,24.9l5-6L88.5,57.5L83.5,63.5L83.5,63.5z M102.8,45.1l-6.2,4.6l23.2,31.2l6.2-4.6L102.8,45.1z M68,116.8h38.7v-7.7H68V116.8z"
	/>
</svg>
