<svg width="167" height="167" viewBox="0 0 167 167" fill="none" xmlns="http://www.w3.org/2000/svg">
<path d="M0.410156 43.68C0.410156 28.3906 0.410156 20.7458 3.38568 14.9061C6.00302 9.76923 10.1794 5.59286 15.3162 2.97552C21.156 0 28.8007 0 44.0902 0L123.26 0C138.55 0 146.194 0 152.034 2.97552C157.171 5.59286 161.347 9.76923 163.965 14.9061C166.94 20.7458 166.94 28.3906 166.94 43.68L166.94 122.85C166.94 138.139 166.94 145.784 163.965 151.624C161.347 156.761 157.171 160.937 152.034 163.554C146.194 166.53 138.55 166.53 123.26 166.53L44.0902 166.53C28.8007 166.53 21.156 166.53 15.3162 163.554C10.1794 160.937 6.00302 156.761 3.38568 151.624C0.410156 145.784 0.410156 138.139 0.410156 122.85L0.410156 43.68Z" fill="url(#paint0_linear_1389_13484)"/>
<path d="M0.410156 43.68C0.410156 28.3906 0.410156 20.7458 3.38568 14.9061C6.00302 9.76923 10.1794 5.59286 15.3162 2.97552C21.156 0 28.8007 0 44.0902 0L123.26 0C138.55 0 146.194 0 152.034 2.97552C157.171 5.59286 161.347 9.76923 163.965 14.9061C166.94 20.7458 166.94 28.3906 166.94 43.68L166.94 122.85C166.94 138.139 166.94 145.784 163.965 151.624C161.347 156.761 157.171 160.937 152.034 163.554C146.194 166.53 138.55 166.53 123.26 166.53L44.0902 166.53C28.8007 166.53 21.156 166.53 15.3162 163.554C10.1794 160.937 6.00302 156.761 3.38568 151.624C0.410156 145.784 0.410156 138.139 0.410156 122.85L0.410156 43.68Z" fill="url(#paint1_linear_1389_13484)"/>
<path d="M164.21 43.68L164.21 122.85C164.21 130.54 164.208 136.143 163.847 140.558C163.489 144.942 162.791 147.914 161.532 150.385C159.177 155.008 155.418 158.766 150.795 161.122C148.324 162.381 145.352 163.079 140.968 163.437C136.553 163.798 130.95 163.8 123.26 163.8L44.0902 163.8C36.4004 163.8 30.7973 163.798 26.3819 163.437C21.9984 163.079 19.0265 162.381 16.5556 161.122C11.9325 158.766 8.17373 155.008 5.81813 150.385C4.55914 147.914 3.86118 144.942 3.50303 140.558C3.14228 136.143 3.14016 130.54 3.14016 122.85L3.14016 43.68C3.14016 35.9903 3.14228 30.3871 3.50303 25.9717C3.86118 21.5882 4.55914 18.6164 5.81813 16.1455C8.17373 11.5223 11.9325 7.76358 16.5556 5.40797C19.0265 4.14898 21.9984 3.45102 26.3819 3.09287C30.7973 2.73212 36.4004 2.73 44.0902 2.73L123.26 2.73C130.95 2.73 136.553 2.73212 140.968 3.09287C145.352 3.45102 148.324 4.14898 150.795 5.40797C155.418 7.76358 159.177 11.5223 161.532 16.1455C162.791 18.6164 163.489 21.5882 163.847 25.9717C164.208 30.3871 164.21 35.9902 164.21 43.68Z" stroke="white" stroke-opacity="0.7" stroke-width="5.46"/>
<path d="M105.669 80.301C105.272 80.1056 104.876 79.9279 104.462 79.768C103.76 66.8538 96.5938 59.4641 84.5841 59.3931H84.4221C77.2379 59.3931 71.2601 62.4129 67.587 67.9197L74.195 72.3961C76.9498 68.2927 81.2531 67.4045 84.4221 67.4045H84.5301C88.4913 67.4223 91.4622 68.5591 93.4068 70.7796C94.8112 72.3961 95.7475 74.6166 96.2156 77.4232C92.7046 76.837 88.9234 76.6594 84.8722 76.8903C73.4567 77.5476 66.1105 84.1024 66.6147 93.2329C66.8667 97.8693 69.2075 101.848 73.2047 104.442C76.5897 106.645 80.929 107.71 85.4484 107.479C91.4262 107.16 96.1076 104.904 99.3666 100.8C101.851 97.6739 103.418 93.6415 104.12 88.5433C106.965 90.2309 109.072 92.4691 110.242 95.1514C112.222 99.6989 112.331 107.195 106.155 113.306C100.735 118.653 94.217 120.962 84.35 121.033C73.4207 120.962 65.1562 117.498 59.7726 110.748C54.7311 104.442 52.1383 95.3113 52.0483 83.6405C52.1383 71.9698 54.7491 62.857 59.7726 56.5331C65.1562 49.7829 73.4207 46.3368 84.35 46.2479C95.3694 46.3368 103.778 49.8007 109.36 56.5864C112.096 59.9082 114.167 64.0827 115.517 68.9499L123.26 66.9071C121.603 60.903 119.011 55.7515 115.481 51.4527C108.333 42.7663 97.8541 38.3253 84.3861 38.2188H84.332C70.882 38.3076 60.5288 42.784 53.5787 51.4882C47.3848 59.251 44.1979 70.0335 44.0898 83.5695V83.6405C44.1979 97.1765 47.3848 107.959 53.5787 115.722C60.5288 124.444 70.882 128.902 84.332 128.991H84.3861C96.3417 128.902 104.786 125.812 111.736 118.973C120.829 110.02 120.559 98.793 117.552 91.9006C115.373 86.9801 111.268 82.9655 105.669 80.301ZM85.0162 99.468C80.0107 99.7522 74.8072 97.5317 74.5551 92.7888C74.357 89.2716 77.0938 85.3458 85.3223 84.884C86.2586 84.8307 87.1949 84.8129 88.0952 84.8129C91.0841 84.8129 93.8749 85.0972 96.4137 85.6478C95.4774 97.3008 89.9137 99.2015 85.0162 99.468Z" fill="white"/>
<defs>
<linearGradient id="paint0_linear_1389_13484" x1="75.4178" y1="6.85062" x2="127.844" y2="165.536" gradientUnits="userSpaceOnUse">
<stop stop-color="white"/>
<stop offset="1" stop-color="#D7D7D7"/>
</linearGradient>
<linearGradient id="paint1_linear_1389_13484" x1="75.0407" y1="0.530193" x2="135.625" y2="170.053" gradientUnits="userSpaceOnUse">
<stop stop-color="#322D37"/>
<stop offset="1" stop-color="#18151B"/>
</linearGradient>
</defs>
</svg>
