<svg width="167" height="167" viewBox="0 0 167 167" fill="none" xmlns="http://www.w3.org/2000/svg">
<path d="M0.234375 43.68C0.234375 28.3906 0.234375 20.7458 3.2099 14.9061C5.82724 9.76923 10.0036 5.59286 15.1404 2.97552C20.9802 0 28.6249 0 43.9144 0L123.084 0C138.374 0 146.019 0 151.858 2.97552C156.995 5.59286 161.172 9.76923 163.789 14.9061C166.764 20.7458 166.764 28.3906 166.764 43.68L166.764 122.85C166.764 138.139 166.764 145.784 163.789 151.624C161.172 156.761 156.995 160.937 151.858 163.554C146.019 166.53 138.374 166.53 123.084 166.53L43.9144 166.53C28.625 166.53 20.9802 166.53 15.1404 163.554C10.0036 160.937 5.82724 156.761 3.2099 151.624C0.234375 145.784 0.234375 138.139 0.234375 122.85L0.234375 43.68Z" fill="url(#paint0_linear_1389_13493)"/>
<path d="M0.234375 43.68C0.234375 28.3906 0.234375 20.7458 3.2099 14.9061C5.82724 9.76923 10.0036 5.59286 15.1404 2.97552C20.9802 0 28.6249 0 43.9144 0L123.084 0C138.374 0 146.019 0 151.858 2.97552C156.995 5.59286 161.172 9.76923 163.789 14.9061C166.764 20.7458 166.764 28.3906 166.764 43.68L166.764 122.85C166.764 138.139 166.764 145.784 163.789 151.624C161.172 156.761 156.995 160.937 151.858 163.554C146.019 166.53 138.374 166.53 123.084 166.53L43.9144 166.53C28.625 166.53 20.9802 166.53 15.1404 163.554C10.0036 160.937 5.82724 156.761 3.2099 151.624C0.234375 145.784 0.234375 138.139 0.234375 122.85L0.234375 43.68Z" fill="url(#paint1_linear_1389_13493)"/>
<path d="M164.034 43.68L164.034 122.85C164.034 130.54 164.032 136.143 163.672 140.558C163.313 144.942 162.615 147.914 161.356 150.385C159.001 155.008 155.242 158.766 150.619 161.122C148.148 162.381 145.176 163.079 140.793 163.437C136.377 163.798 130.774 163.8 123.084 163.8L43.9144 163.8C36.2246 163.8 30.6215 163.798 26.2061 163.437C21.8226 163.079 18.8507 162.381 16.3798 161.122C11.7567 158.766 7.99795 155.008 5.64234 150.385C4.38336 147.914 3.6854 144.942 3.32725 140.558C2.9665 136.143 2.96438 130.54 2.96438 122.85L2.96438 43.68C2.96438 35.9903 2.9665 30.3871 3.32725 25.9717C3.6854 21.5882 4.38336 18.6164 5.64234 16.1455C7.99795 11.5223 11.7567 7.76358 16.3798 5.40797C18.8507 4.14898 21.8226 3.45102 26.2061 3.09287C30.6215 2.73212 36.2246 2.73 43.9144 2.73L123.084 2.73C130.774 2.73 136.377 2.73212 140.793 3.09287C145.176 3.45102 148.148 4.14898 150.619 5.40797C155.242 7.76358 159.001 11.5223 161.356 16.1455C162.615 18.6164 163.313 21.5882 163.672 25.9717C164.032 30.3871 164.034 35.9902 164.034 43.68Z" stroke="white" stroke-opacity="0.5" stroke-width="5.46"/>
<path d="M125.814 125.579L91.56 76.7671L123.084 40.9492H115.669L88.2705 72.0794L66.4254 40.9492L41.1836 40.9492L74.2263 88.0361L41.1836 125.579H48.5984L77.5159 92.7238L100.572 125.579H125.814ZM62.8568 46.3708L115.511 120.158H103.766L51.2365 46.3708H62.8564H62.8568Z" fill="white"/>
<defs>
<linearGradient id="paint0_linear_1389_13493" x1="75.242" y1="6.85062" x2="127.668" y2="165.536" gradientUnits="userSpaceOnUse">
<stop stop-color="white"/>
<stop offset="1" stop-color="#D7D7D7"/>
</linearGradient>
<linearGradient id="paint1_linear_1389_13493" x1="74.8649" y1="0.530193" x2="135.449" y2="170.053" gradientUnits="userSpaceOnUse">
<stop stop-color="#322D37"/>
<stop offset="1" stop-color="#18151B"/>
</linearGradient>
</defs>
</svg>
