<?xml version="1.0" encoding="utf-8"?>
<!-- Generator: Adobe Illustrator 26.3.1, SVG Export Plug-In . SVG Version: 6.00 Build 0)  -->
<svg version="1.1" id="Layer_1" xmlns="http://www.w3.org/2000/svg" xmlns:xlink="http://www.w3.org/1999/xlink" x="0px" y="0px"
	 viewBox="0 0 178 178" style="enable-background:new 0 0 178 178;" xml:space="preserve">
<style type="text/css">
	.st0{fill:url(#SVGID_1_);}
	.st1{fill:url(#SVGID_00000034788662537943222130000017099299351259759501_);}
	.st2{fill:none;stroke:#FF0000;stroke-width:5.46;stroke-opacity:0.7;}
	.st3{fill:#FF0000;}
	.st4{fill:#FFFFFF;}
</style>
<linearGradient id="SVGID_1_" gradientUnits="userSpaceOnUse" x1="65.455" y1="161.4793" x2="117.8807" y2="2.7939" gradientTransform="matrix(1 0 0 -1 0 178.89)">
	<stop  offset="0" style="stop-color:#FFFFFF"/>
	<stop  offset="1" style="stop-color:#D7D7D7"/>
</linearGradient>
<path class="st0" d="M5.8,49.2c0-15.3,0-22.9,3-28.8c2.6-5.1,6.8-9.3,11.9-11.9c5.8-3,13.5-3,28.8-3h79.2c15.3,0,22.9,0,28.8,3
	c5.1,2.6,9.3,6.8,11.9,11.9c3,5.8,3,13.5,3,28.8v79.2c0,15.3,0,22.9-3,28.8c-2.6,5.1-6.8,9.3-11.9,11.9c-5.8,3-13.5,3-28.8,3H49.4
	c-15.3,0-22.9,0-28.8-3c-5.1-2.6-9.3-6.8-11.9-11.9c-3-5.8-3-13.5-3-28.8V49.2z"/>
<linearGradient id="SVGID_00000132083419213546504430000017577751437911944586_" gradientUnits="userSpaceOnUse" x1="61.8318" y1="166.226" x2="122.4156" y2="-3.2968" gradientTransform="matrix(1 0 0 -1 0 178.89)">
	<stop  offset="0" style="stop-color:#322D37"/>
	<stop  offset="1" style="stop-color:#18151B"/>
</linearGradient>
<path style="fill:url(#SVGID_00000132083419213546504430000017577751437911944586_);" d="M5.8,49.2c0-15.3,0-22.9,3-28.8
	c2.6-5.1,6.8-9.3,11.9-11.9c5.8-3,13.5-3,28.8-3h79.2c15.3,0,22.9,0,28.8,3c5.1,2.6,9.3,6.8,11.9,11.9c3,5.8,3,13.5,3,28.8v79.2
	c0,15.3,0,22.9-3,28.8c-2.6,5.1-6.8,9.3-11.9,11.9c-5.8,3-13.5,3-28.8,3H49.4c-15.3,0-22.9,0-28.8-3c-5.1-2.6-9.3-6.8-11.9-11.9
	c-3-5.8-3-13.5-3-28.8V49.2z"/>
<path class="st2" d="M169.6,49.2v79.2c0,7.7,0,13.3-0.4,17.7c-0.4,4.4-1.1,7.4-2.3,9.8c-2.4,4.6-6.1,8.4-10.7,10.7
	c-2.5,1.3-5.4,2-9.8,2.3c-4.4,0.4-10,0.4-17.7,0.4H49.4c-7.7,0-13.3,0-17.7-0.4c-4.4-0.4-7.4-1.1-9.8-2.3
	c-4.6-2.4-8.4-6.1-10.7-10.7c-1.3-2.5-2-5.4-2.3-9.8c-0.4-4.4-0.4-10-0.4-17.7V49.2c0-7.7,0-13.3,0.4-17.7c0.4-4.4,1.1-7.4,2.3-9.8
	c2.4-4.6,6.1-8.4,10.7-10.7c2.5-1.3,5.4-2,9.8-2.3c4.4-0.4,10-0.4,17.7-0.4h79.2c7.7,0,13.3,0,17.7,0.4c4.4,0.4,7.4,1.1,9.8,2.3
	c4.6,2.4,8.4,6.1,10.7,10.7c1.3,2.5,2,5.4,2.3,9.8C169.6,35.9,169.6,41.5,169.6,49.2z"/>
<path class="st3" d="M134.2,66.3c-1.1-4-4.3-7.2-8.3-8.3c-7.4-2-36.8-2-36.8-2s-29.5,0-36.8,1.9c-4,1.1-7.2,4.3-8.3,8.4
	C42,73.7,42,88.9,42,88.9s0,15.3,1.9,22.6c1.1,4,4.3,7.2,8.3,8.3c7.4,2,36.8,2,36.8,2s29.5,0,36.8-1.9c4-1.1,7.2-4.3,8.3-8.3
	c1.9-7.4,1.9-22.6,1.9-22.6S136.2,73.7,134.2,66.3L134.2,66.3z"/>
<path class="st4" d="M79.7,74.8v28.2l24.5-14.1L79.7,74.8L79.7,74.8z"/>
</svg>
