<svg width="168" height="167" viewBox="0 0 168 167" fill="none" xmlns="http://www.w3.org/2000/svg">
<path d="M0.763672 43.68C0.763672 28.3906 0.763672 20.7458 3.73919 14.9061C6.35654 9.76923 10.5329 5.59286 15.6697 2.97552C21.5095 0 29.1542 0 44.4437 0L123.614 0C138.903 0 146.548 0 152.388 2.97552C157.524 5.59286 161.701 9.76923 164.318 14.9061C167.294 20.7458 167.294 28.3906 167.294 43.68L167.294 122.85C167.294 138.139 167.294 145.784 164.318 151.624C161.701 156.761 157.524 160.937 152.388 163.554C146.548 166.53 138.903 166.53 123.614 166.53L44.4437 166.53C29.1543 166.53 21.5095 166.53 15.6697 163.554C10.5329 160.937 6.35654 156.761 3.73919 151.624C0.763672 145.784 0.763672 138.139 0.763672 122.85L0.763672 43.68Z" fill="url(#paint0_linear_1389_13497)"/>
<path d="M0.763672 43.68C0.763672 28.3906 0.763672 20.7458 3.73919 14.9061C6.35654 9.76923 10.5329 5.59286 15.6697 2.97552C21.5095 0 29.1542 0 44.4437 0L123.614 0C138.903 0 146.548 0 152.388 2.97552C157.524 5.59286 161.701 9.76923 164.318 14.9061C167.294 20.7458 167.294 28.3906 167.294 43.68L167.294 122.85C167.294 138.139 167.294 145.784 164.318 151.624C161.701 156.761 157.524 160.937 152.388 163.554C146.548 166.53 138.903 166.53 123.614 166.53L44.4437 166.53C29.1543 166.53 21.5095 166.53 15.6697 163.554C10.5329 160.937 6.35654 156.761 3.73919 151.624C0.763672 145.784 0.763672 138.139 0.763672 122.85L0.763672 43.68Z" fill="url(#paint1_linear_1389_13497)"/>
<path d="M164.564 43.68L164.564 122.85C164.564 130.54 164.562 136.143 164.201 140.558C163.843 144.942 163.145 147.914 161.886 150.385C159.53 155.008 155.771 158.766 151.148 161.122C148.677 162.381 145.705 163.079 141.322 163.437C136.907 163.798 131.303 163.8 123.614 163.8L44.4437 163.8C36.7539 163.8 31.1508 163.798 26.7354 163.437C22.3519 163.079 19.38 162.381 16.9091 161.122C12.286 158.766 8.52725 155.008 6.17164 150.385C4.91266 147.914 4.21469 144.942 3.85655 140.558C3.4958 136.143 3.49367 130.54 3.49367 122.85L3.49367 43.68C3.49367 35.9903 3.4958 30.3871 3.85655 25.9717C4.21469 21.5882 4.91266 18.6164 6.17164 16.1455C8.52725 11.5223 12.286 7.76358 16.9091 5.40797C19.38 4.14898 22.3519 3.45102 26.7354 3.09287C31.1508 2.73212 36.7539 2.73 44.4437 2.73L123.614 2.73C131.303 2.73 136.907 2.73212 141.322 3.09287C145.705 3.45102 148.677 4.14898 151.148 5.40797C155.771 7.76358 159.53 11.5223 161.886 16.1455C163.145 18.6164 163.843 21.5882 164.201 25.9717C164.562 30.3871 164.564 35.9902 164.564 43.68Z" stroke="#FF0000" stroke-opacity="0.7" stroke-width="5.46"/>
<path d="M129.184 60.8125C128.099 56.7812 124.919 53.6042 120.891 52.5196C113.526 50.5039 84.0687 50.5039 84.0687 50.5039C84.0687 50.5039 54.6113 50.5039 47.2494 52.4428C43.2949 53.5274 40.0411 56.7844 38.9564 60.8157C37.0176 68.1777 37.0176 83.4486 37.0176 83.4486C37.0176 83.4486 37.0176 98.7964 38.9564 106.082C40.0411 110.113 43.2213 113.29 47.2494 114.374C54.6913 116.39 84.0687 116.39 84.0687 116.39C84.0687 116.39 113.526 116.39 120.888 114.451C124.919 113.367 128.096 110.186 129.181 106.158C131.12 98.7932 131.12 83.5222 131.12 83.5222C131.12 83.5222 131.197 68.1745 129.181 60.8093L129.184 60.8125Z" fill="#FF0000"/>
<path d="M74.6895 69.3398V97.5558L99.1844 83.4494L74.6895 69.343V69.3398Z" fill="white"/>
<defs>
<linearGradient id="paint0_linear_1389_13497" x1="75.7713" y1="6.85062" x2="128.197" y2="165.536" gradientUnits="userSpaceOnUse">
<stop stop-color="white"/>
<stop offset="1" stop-color="#D7D7D7"/>
</linearGradient>
<linearGradient id="paint1_linear_1389_13497" x1="75.3942" y1="0.530193" x2="135.978" y2="170.053" gradientUnits="userSpaceOnUse">
<stop stop-color="#322D37"/>
<stop offset="1" stop-color="#18151B"/>
</linearGradient>
</defs>
</svg>
