<?xml version="1.0" encoding="utf-8"?>
<!-- Generator: Adobe Illustrator 26.3.1, SVG Export Plug-In . SVG Version: 6.00 Build 0)  -->
<svg version="1.1" id="Layer_1" xmlns="http://www.w3.org/2000/svg" xmlns:xlink="http://www.w3.org/1999/xlink" x="0px" y="0px"
	 viewBox="0 0 130.1 47.1" style="enable-background:new 0 0 130.1 47.1;" xml:space="preserve">
<style type="text/css">
	.st0{fill:#E60006;}
	.st1{fill:#009FE4;}
	.st2{fill:#FFFFFF;}
</style>
<path class="st0" d="M38.9,47.1c21.5,0,38.9-10.5,38.9-23.5S60.4,0,38.9,0S0,10.5,0,23.5S17.4,47.1,38.9,47.1z"/>
<path class="st1" d="M91.2,47.1c21.5,0,38.9-10.5,38.9-23.5S112.7,0,91.2,0C69.8,0,52.4,10.5,52.4,23.5S69.8,47.1,91.2,47.1z"/>
<path class="st2" d="M33.8,30.1l-0.2-1.4h-0.1c-0.8,1-2.1,1.7-3.8,1.7c-2.6,0-4.1-1.9-4.1-3.8c0-3.2,2.9-4.9,7.6-4.9v-0.2
	c0-0.8-0.3-2.3-2.6-2.2c-1.3,0-2.6,0.4-3.5,1l-0.6-2.1c1-0.6,2.6-1.1,4.7-1.1c4.1,0,5.3,2.6,5.3,5.4V27c0,1.2,0.1,2.3,0.2,3.1
	L33.8,30.1L33.8,30.1z M33.4,23.8c-2.3,0-4.5,0.5-4.5,2.4c0,1.3,0.8,1.9,1.9,1.9c1.3,0,2.2-0.8,2.5-1.8c0.1-0.2,0.1-0.5,0.1-0.7
	L33.4,23.8L33.4,23.8z"/>
<path class="st2" d="M47.6,30.1l-0.2-1.4h-0.1c-0.8,1-2.1,1.7-3.8,1.7c-2.6,0-4.1-1.9-4.1-3.8c0-3.2,2.9-4.9,7.6-4.9v-0.2
	c0-0.8-0.3-2.3-2.6-2.2c-1.3,0-2.6,0.4-3.5,1l-0.6-2.1c1-0.6,2.6-1.1,4.7-1.1c4.1,0,5.3,2.6,5.3,5.4V27c0,1.2,0.1,2.3,0.2,3.1
	L47.6,30.1L47.6,30.1z M47.2,23.8c-2.3,0-4.5,0.5-4.5,2.4c0,1.3,0.8,1.9,1.9,1.9c1.3,0,2.2-0.8,2.5-1.8c0.1-0.2,0.1-0.5,0.1-0.7
	L47.2,23.8L47.2,23.8z"/>
<path class="st2" d="M63.3,29.7c-0.7,0.3-2,0.7-3.6,0.7c-4,0-6.6-2.6-6.6-6.6c0-4,2.6-6.9,7.2-6.9c1.2,0,2.4,0.3,3.1,0.6L62.8,20
	c-0.5-0.3-1.3-0.5-2.5-0.5c-2.5,0-4,1.8-3.9,4.2c0,2.6,1.7,4.2,4,4.2c1.1,0,1.9-0.2,2.6-0.5L63.3,29.7L63.3,29.7z"/>
<path class="st2" d="M77.8,23.5c0,4.7-3.3,6.9-6.6,6.9c-3.6,0-6.4-2.5-6.4-6.6c0-4.1,2.8-6.8,6.7-6.8C75.2,16.9,77.8,19.6,77.8,23.5
	L77.8,23.5z M68,23.7c0,2.5,1.2,4.4,3.2,4.4s3.2-1.8,3.2-4.4c0-2-0.9-4.3-3.1-4.3C69,19.3,68,21.5,68,23.7z"/>
<path class="st2" d="M80.4,21c0-1.5,0-2.7-0.1-3.8H83l0.1,1.9h0.1c0.6-1,1.8-2.2,4-2.2c1.7,0,3,0.9,3.6,2.4h0.1
	c0.5-0.7,1-1.2,1.6-1.6c0.7-0.5,1.5-0.8,2.6-0.8c2.1,0,4.3,1.5,4.3,5.6v7.6h-3.2V23c0-2.1-0.7-3.4-2.3-3.4c-1.1,0-1.9,0.8-2.3,1.7
	c-0.1,0.3-0.2,0.7-0.2,1.1v7.7h-3.2v-7.4c0-1.8-0.7-3.1-2.2-3.1c-1.2,0-2,1-2.3,1.8c-0.1,0.3-0.2,0.7-0.2,1.1v7.6h-3.2V21L80.4,21z"
	/>
<path class="st2" d="M102.8,21c0-1.5,0-2.7-0.1-3.8h2.8l0.1,1.9h0.1c0.6-1,1.8-2.2,4-2.2c1.7,0,3,0.9,3.6,2.4h0.1
	c0.5-0.7,1-1.2,1.6-1.6c0.7-0.5,1.5-0.8,2.6-0.8c2.1,0,4.3,1.5,4.3,5.6v7.6h-3.2V23c0-2.1-0.7-3.4-2.3-3.4c-1.1,0-1.9,0.8-2.3,1.7
	c-0.1,0.3-0.2,0.7-0.2,1.1v7.7h-3.2v-7.4c0-1.8-0.7-3.1-2.2-3.1c-1.2,0-2,1-2.3,1.8c-0.1,0.3-0.2,0.7-0.2,1.1v7.6h-3.2V21L102.8,21z
	"/>
<path class="st2" d="M21.5,17.3l-3.2,8.6l-2.9-8.6h-3.8l5,13.3l-1.8,4.7h3.3l6.7-18H21.5z"/>
</svg>
