<svg width="2192" height="74" viewBox="0 0 2192 74" fill="none" xmlns="http://www.w3.org/2000/svg">
<g clip-path="url(#clip0_3132_552)">
<path d="M1657.2 7.93637C1660.55 4.46632 1665.22 2.27326 1670.36 2.27326C1677.22 2.27326 1683.16 6.10213 1686.35 11.7642C1689.1 10.5284 1692.17 9.84973 1695.41 9.84973C1707.77 9.84973 1717.74 19.9391 1717.74 32.3818C1717.74 44.8246 1707.73 54.9139 1695.41 54.9139C1693.89 54.9139 1692.41 54.7545 1691.02 54.4749C1688.23 59.4594 1682.88 62.8492 1676.74 62.8492C1674.19 62.8492 1671.76 62.2508 1669.6 61.2145C1666.77 67.8749 1660.15 72.5794 1652.45 72.5794C1644.76 72.5794 1637.58 67.515 1634.95 60.3765C1633.79 60.6161 1632.59 60.7353 1631.4 60.7353C1621.83 60.7353 1614.09 52.9192 1614.09 43.2278C1614.09 36.7669 1617.56 31.1049 1622.74 28.0738C1621.67 25.6412 1621.07 22.9289 1621.07 20.0583C1621.03 9.01285 1630.08 0 1641.17 0C1647.71 0 1653.53 3.11016 1657.2 7.93637" fill="#606060"/>
<path d="M1629.08 37.6467L1629.52 36.49C1629.6 36.2905 1629.72 36.3708 1629.8 36.4098C1629.92 36.49 1630 36.5291 1630.16 36.6494C1631.4 37.4473 1632.55 37.4473 1632.91 37.4473C1633.83 37.4473 1634.43 36.9692 1634.43 36.2905V36.2504C1634.43 35.5328 1633.55 35.2531 1632.51 34.9344L1632.27 34.8542C1630.88 34.4553 1629.36 33.8568 1629.36 32.1028V32.0627C1629.36 30.3879 1630.72 29.1911 1632.67 29.1911H1632.87C1634.03 29.1911 1635.1 29.5098 1635.9 30.0291C1635.98 30.0692 1636.06 30.1483 1636.02 30.2686C1635.98 30.3879 1635.62 31.305 1635.58 31.4253C1635.5 31.6248 1635.3 31.5055 1635.3 31.5055C1634.59 31.1066 1633.51 30.8279 1632.59 30.8279C1631.75 30.8279 1631.23 31.267 1631.23 31.8643V31.9044C1631.23 32.582 1632.15 32.9017 1633.19 33.2205L1633.39 33.2606C1634.78 33.6996 1636.26 34.297 1636.26 36.0119V36.052C1636.26 37.8862 1634.94 39.0029 1632.83 39.0029C1631.79 39.0029 1630.8 38.8435 1629.72 38.2852C1629.52 38.1659 1629.32 38.0857 1629.12 37.9264C1629.08 37.8461 1629 37.8071 1629.08 37.6467H1629.08ZM1660.19 37.6467L1660.63 36.49C1660.71 36.2905 1660.87 36.3708 1660.91 36.4098C1661.03 36.49 1661.11 36.5291 1661.27 36.6494C1662.5 37.4473 1663.66 37.4473 1664.02 37.4473C1664.94 37.4473 1665.53 36.9692 1665.53 36.2905V36.2504C1665.53 35.5328 1664.66 35.2531 1663.62 34.9344L1663.38 34.8542C1661.98 34.4553 1660.47 33.8568 1660.47 32.1028V32.0627C1660.47 30.3879 1661.82 29.1911 1663.78 29.1911H1663.98C1665.13 29.1911 1666.21 29.5098 1667.01 30.0291C1667.09 30.0692 1667.17 30.1483 1667.13 30.2686C1667.09 30.3879 1666.73 31.305 1666.69 31.4253C1666.61 31.6248 1666.41 31.5055 1666.41 31.5055C1665.69 31.1066 1664.61 30.8279 1663.7 30.8279C1662.86 30.8279 1662.34 31.267 1662.34 31.8643V31.9044C1662.34 32.582 1663.26 32.9017 1664.3 33.2205L1664.49 33.2606C1665.89 33.6996 1667.37 34.297 1667.37 36.0119V36.052C1667.37 37.8862 1666.05 39.0029 1663.94 39.0029C1662.9 39.0029 1661.9 38.8435 1660.83 38.2852C1660.63 38.1659 1660.43 38.0857 1660.23 37.9264C1660.23 37.8461 1660.15 37.8071 1660.19 37.6467H1660.19ZM1683.24 32.1831C1683.4 32.7815 1683.52 33.4189 1683.52 34.0975C1683.52 34.7761 1683.44 35.4135 1683.24 36.0119C1683.08 36.6103 1682.8 37.1285 1682.44 37.5675C1682.08 38.0066 1681.6 38.3654 1681.09 38.6039C1680.53 38.8435 1679.89 38.9627 1679.17 38.9627C1678.45 38.9627 1677.82 38.8435 1677.26 38.6039C1676.7 38.3643 1676.26 38.0055 1675.9 37.5675C1675.54 37.1295 1675.26 36.6103 1675.1 36.0119C1674.94 35.4135 1674.82 34.7761 1674.82 34.0975C1674.82 33.4189 1674.9 32.7815 1675.1 32.1831C1675.26 31.5847 1675.54 31.0665 1675.9 30.6275C1676.26 30.1884 1676.74 29.8296 1677.26 29.5911C1677.82 29.3515 1678.45 29.1921 1679.17 29.1921C1679.89 29.1921 1680.53 29.3114 1681.09 29.5911C1681.64 29.8307 1682.08 30.1895 1682.44 30.6275C1682.8 31.0654 1683.08 31.5847 1683.24 32.1831ZM1681.45 34.0574C1681.45 33.021 1681.25 32.2232 1680.89 31.6649C1680.53 31.1066 1679.93 30.8269 1679.17 30.8269C1678.37 30.8269 1677.82 31.1066 1677.46 31.6649C1677.1 32.2232 1676.9 33.021 1676.9 34.0574C1676.9 35.0938 1677.1 35.8916 1677.46 36.49C1677.82 37.0483 1678.37 37.3279 1679.17 37.3279C1679.97 37.3279 1680.53 37.0483 1680.89 36.49C1681.29 35.9317 1681.45 35.0938 1681.45 34.0574ZM1697.84 37.0483L1698.28 38.2451C1698.32 38.4044 1698.2 38.4446 1698.2 38.4446C1697.52 38.7242 1696.6 38.8835 1695.68 38.8835C1694.13 38.8835 1692.97 38.4446 1692.17 37.5675C1691.38 36.6906 1690.98 35.4937 1690.98 34.0183C1690.98 33.3408 1691.06 32.7023 1691.26 32.1039C1691.46 31.5055 1691.73 30.9873 1692.13 30.5483C1692.53 30.1093 1693.01 29.7504 1693.57 29.5119C1694.13 29.2723 1694.8 29.113 1695.56 29.113C1696.08 29.113 1696.52 29.1531 1696.88 29.1932C1697.28 29.2734 1697.84 29.3927 1698.08 29.5119C1698.12 29.5119 1698.23 29.5921 1698.19 29.7114C1698.04 30.1895 1697.92 30.5092 1697.76 30.9082C1697.68 31.1076 1697.56 31.0274 1697.56 31.0274C1696.96 30.8279 1696.4 30.7477 1695.68 30.7477C1694.8 30.7477 1694.13 31.0274 1693.73 31.6248C1693.29 32.1831 1693.05 32.9408 1693.05 33.9772C1693.05 35.0938 1693.33 35.8916 1693.81 36.4098C1694.29 36.928 1694.96 37.1676 1695.84 37.1676C1696.2 37.1676 1696.52 37.1275 1696.8 37.0874C1697.08 37.0472 1697.36 36.9681 1697.64 36.8478C1697.6 36.928 1697.76 36.8879 1697.84 37.0472L1697.84 37.0483ZM1706.89 31.8242C1707.29 33.1804 1707.09 34.3371 1707.05 34.4162C1707.05 34.5756 1706.89 34.5756 1706.89 34.5756H1700.87C1700.91 35.4927 1701.11 36.1312 1701.59 36.5692C1702.02 37.0082 1702.7 37.2868 1703.66 37.2868C1705.09 37.2868 1705.69 37.0071 1706.13 36.8478C1706.13 36.8478 1706.29 36.8077 1706.37 36.967L1706.77 38.0836C1706.85 38.2831 1706.77 38.3232 1706.73 38.3633C1706.37 38.5627 1705.45 38.9617 1703.7 38.9617C1702.86 38.9617 1702.1 38.8424 1701.51 38.6028C1700.91 38.3633 1700.39 38.0445 1699.99 37.6055C1699.59 37.1665 1699.31 36.6483 1699.11 36.0901C1698.91 35.4916 1698.83 34.8542 1698.83 34.1756C1698.83 33.497 1698.91 32.8595 1699.11 32.2611C1699.27 31.6628 1699.55 31.1446 1699.91 30.7055C1700.27 30.2665 1700.75 29.9077 1701.31 29.6692C1701.87 29.3895 1702.54 29.2703 1703.3 29.2703C1703.94 29.2703 1704.54 29.3895 1705.02 29.629C1705.37 29.7885 1705.77 30.0681 1706.17 30.5061C1706.37 30.6654 1706.73 31.2638 1706.89 31.8221L1706.89 31.8242ZM1700.91 33.1001H1705.17C1705.13 32.5419 1705.02 32.0638 1704.78 31.6649C1704.42 31.1066 1703.9 30.7878 1703.1 30.7878C1702.3 30.7878 1701.74 31.1066 1701.39 31.6649C1701.15 32.0237 1701.03 32.5029 1700.91 33.1001ZM1658.75 31.8242C1659.15 33.1804 1658.95 34.3371 1658.95 34.4162C1658.95 34.5756 1658.79 34.5756 1658.79 34.5756H1652.77C1652.81 35.4927 1653.01 36.1312 1653.49 36.5692C1653.93 37.0082 1654.61 37.2868 1655.56 37.2868C1657 37.2868 1657.6 37.0071 1658.04 36.8478C1658.04 36.8478 1658.2 36.8077 1658.28 36.967L1658.68 38.0836C1658.76 38.2831 1658.68 38.3232 1658.64 38.3633C1658.28 38.5627 1657.36 38.9617 1655.6 38.9617C1654.77 38.9617 1654.01 38.8424 1653.41 38.6028C1652.81 38.3633 1652.29 38.0445 1651.9 37.6055C1651.5 37.1665 1651.22 36.6483 1651.02 36.0901C1650.82 35.4916 1650.74 34.8542 1650.74 34.1756C1650.74 33.497 1650.82 32.8595 1651.02 32.2611C1651.18 31.6628 1651.46 31.1446 1651.82 30.7055C1652.18 30.2665 1652.65 29.9077 1653.21 29.6692C1653.77 29.3895 1654.45 29.2703 1655.21 29.2703C1655.84 29.2703 1656.44 29.3895 1656.92 29.629C1657.28 29.7885 1657.68 30.0681 1658.08 30.5061C1658.24 30.6654 1658.64 31.2638 1658.76 31.8221L1658.75 31.8242ZM1652.77 33.1001H1657.08C1657.04 32.5419 1656.92 32.0638 1656.68 31.6649C1656.32 31.1066 1655.8 30.7878 1655.01 30.7878C1654.21 30.7878 1653.65 31.1066 1653.29 31.6649C1653.01 32.0237 1652.89 32.5029 1652.77 33.1001ZM1642.2 32.7815C1642.2 32.7815 1642.68 32.8215 1643.2 32.9007V32.6611C1643.2 31.8633 1643.04 31.4643 1642.72 31.2258C1642.4 30.9862 1641.89 30.8269 1641.25 30.8269C1641.25 30.8269 1639.77 30.8269 1638.62 31.4253C1638.58 31.4654 1638.54 31.4654 1638.54 31.4654C1638.54 31.4654 1638.38 31.5055 1638.34 31.3852L1637.9 30.2285C1637.82 30.0692 1637.94 29.9889 1637.94 29.9889C1638.5 29.5499 1639.77 29.3114 1639.77 29.3114C1640.21 29.2312 1640.93 29.152 1641.37 29.152C1642.56 29.152 1643.48 29.4317 1644.12 29.99C1644.76 30.5483 1645.08 31.4253 1645.08 32.6622V38.1659C1645.08 38.1659 1645.08 38.3253 1644.96 38.3654C1644.96 38.3654 1644.72 38.4456 1644.52 38.4847C1644.32 38.5248 1643.6 38.6841 1643 38.7643C1642.4 38.8835 1641.81 38.9237 1641.17 38.9237C1640.57 38.9237 1640.05 38.8835 1639.57 38.7643C1639.09 38.645 1638.69 38.4847 1638.34 38.2462C1638.02 38.0066 1637.74 37.6878 1637.54 37.2889C1637.34 36.9301 1637.26 36.451 1637.26 35.9328C1637.26 35.4146 1637.38 34.9354 1637.58 34.5365C1637.78 34.1376 1638.1 33.8189 1638.45 33.5392C1638.81 33.2596 1639.25 33.1001 1639.69 32.9408C1640.17 32.8215 1640.65 32.7414 1641.17 32.7414C1641.64 32.7815 1641.96 32.7815 1642.2 32.7815H1642.2ZM1639.81 37.0082C1639.81 37.0082 1640.37 37.4473 1641.57 37.367C1642.44 37.3269 1643.2 37.1676 1643.2 37.1676V34.4162C1643.2 34.4162 1642.44 34.297 1641.57 34.297C1640.33 34.297 1639.81 34.736 1639.81 34.736C1639.45 34.9755 1639.29 35.3745 1639.29 35.8927C1639.29 36.2114 1639.37 36.4911 1639.49 36.6906C1639.53 36.7707 1639.57 36.8499 1639.81 37.0092V37.0082ZM1690.66 29.7103C1690.62 29.8697 1690.3 30.7076 1690.22 30.9862C1690.18 31.1055 1690.1 31.1457 1689.98 31.1457C1689.98 31.1457 1689.62 31.0654 1689.3 31.0654C1689.1 31.0654 1688.78 31.1055 1688.5 31.1847C1688.22 31.2649 1687.99 31.4242 1687.75 31.6237C1687.51 31.8232 1687.35 32.1419 1687.23 32.5007C1687.11 32.8595 1687.03 33.458 1687.03 34.0964V38.5627C1687.03 38.682 1686.95 38.7622 1686.83 38.7622H1685.23C1685.11 38.7622 1685.03 38.682 1685.03 38.5627V29.59C1685.03 29.4708 1685.11 29.3905 1685.19 29.3905H1686.75C1686.87 29.3905 1686.91 29.4708 1686.91 29.59V30.3077C1687.15 29.9889 1687.55 29.7093 1687.91 29.5499C1688.26 29.3905 1688.7 29.2703 1689.46 29.3104C1689.86 29.3504 1690.38 29.4296 1690.46 29.4697C1690.62 29.5098 1690.7 29.5499 1690.66 29.7093V29.7103ZM1675.86 25.5627C1675.9 25.5627 1676.02 25.643 1675.98 25.7622L1675.5 27.0381C1675.46 27.1183 1675.42 27.1975 1675.22 27.1183C1675.18 27.1183 1675.11 27.0782 1674.91 27.0381C1674.79 26.998 1674.59 26.998 1674.43 26.998C1674.19 26.998 1673.99 27.0381 1673.79 27.0782C1673.59 27.1183 1673.43 27.2376 1673.27 27.397C1673.11 27.5563 1672.95 27.7558 1672.83 28.0355C1672.59 28.6739 1672.51 29.3515 1672.51 29.3916H1674.43C1674.59 29.3916 1674.63 29.4718 1674.63 29.5911L1674.39 30.8269C1674.35 31.0264 1674.19 30.9862 1674.19 30.9862H1672.19L1670.92 38.6831C1670.76 39.4809 1670.6 40.1584 1670.4 40.7167C1670.2 41.275 1669.96 41.6739 1669.6 42.0729C1669.28 42.4317 1668.92 42.7114 1668.49 42.8306C1668.09 42.99 1667.57 43.0702 1667.01 43.0702C1666.73 43.0702 1666.45 43.0702 1666.13 42.99C1665.89 42.9499 1665.77 42.9098 1665.58 42.8306C1665.5 42.7905 1665.46 42.7114 1665.5 42.5911C1665.54 42.4718 1665.89 41.5146 1665.93 41.3553C1666.01 41.1959 1666.13 41.275 1666.13 41.275C1666.25 41.3152 1666.33 41.3553 1666.45 41.3943C1666.61 41.4344 1666.77 41.4344 1666.93 41.4344C1667.21 41.4344 1667.45 41.3943 1667.65 41.3152C1667.89 41.2349 1668.05 41.0756 1668.21 40.8761C1668.37 40.6766 1668.49 40.398 1668.65 40.0382C1668.76 39.6793 1668.88 39.1611 1669 38.5627L1670.36 31.0253H1669.04C1668.88 31.0253 1668.84 30.9451 1668.84 30.8259L1669.08 29.59C1669.12 29.3905 1669.28 29.4306 1669.28 29.4306H1670.64L1670.72 29.0318C1670.92 27.8349 1671.32 26.9179 1671.92 26.3194C1672.52 25.721 1673.39 25.4023 1674.47 25.4023C1674.79 25.4023 1675.07 25.4424 1675.31 25.4825C1675.47 25.4424 1675.67 25.4825 1675.87 25.5627H1675.86ZM1648.98 38.5237C1648.98 38.643 1648.9 38.7232 1648.82 38.7232H1647.23C1647.11 38.7232 1647.07 38.643 1647.07 38.5237V25.7221C1647.07 25.6419 1647.15 25.5226 1647.23 25.5226H1648.82C1648.94 25.5226 1648.98 25.6028 1648.98 25.7221V38.5237Z" fill="black"/>
</g>
<g clip-path="url(#clip1_3132_552)">
<path d="M1464.67 54.7614V53.7276H1465.34C1465.71 53.7276 1466.21 53.7562 1466.21 54.197C1466.21 54.6754 1465.92 54.7614 1465.5 54.7614H1464.67ZM1464.67 55.4888H1465.13L1466.13 57.294H1467.25L1466.13 55.4138C1466.71 55.3718 1467.21 55.0898 1467.21 54.2964C1467.21 53.3132 1466.54 52.998 1465.38 52.998H1463.72V57.294H1464.68V55.4888H1464.67ZM1469.49 55.1515C1469.49 52.6277 1467.54 51.1641 1465.34 51.1641C1463.14 51.1641 1461.19 52.6299 1461.19 55.1515C1461.19 57.6732 1463.14 59.1434 1465.34 59.1434C1467.54 59.1434 1469.49 57.6732 1469.49 55.1515ZM1468.33 55.1515C1468.33 56.9898 1466.96 58.222 1465.34 58.222V58.2087C1463.72 58.2221 1462.39 56.9876 1462.39 55.1494C1462.39 53.3111 1463.72 52.0832 1465.34 52.0832C1466.96 52.0832 1468.33 53.3111 1468.33 55.1494" fill="#606060"/>
<path d="M1317.36 12.4445L1317.37 57.7324H1330.16V12.4445H1317.36ZM1216.75 12.3828V57.7346H1229.65V23.2981L1239.65 23.3024C1242.96 23.3024 1245.32 24.129 1246.92 25.8308C1248.94 27.9844 1249.77 31.4625 1249.77 37.8217V57.7346H1262.27V32.6793C1262.27 14.7964 1250.87 12.385 1239.72 12.385H1216.75V12.3828ZM1337.96 12.4489V57.7324H1358.7C1369.75 57.7324 1373.36 55.8941 1377.27 51.7724C1380.02 48.8802 1381.8 42.53 1381.8 35.5867C1381.8 29.2254 1380.3 23.5428 1377.67 20.0073C1372.93 13.6811 1366.1 12.4489 1355.91 12.4489H1337.96ZM1350.65 22.3062H1356.15C1364.12 22.3062 1369.28 25.8924 1369.28 35.1854C1369.28 44.4786 1364.12 48.0692 1356.15 48.0692H1350.65V22.3084V22.3062ZM1298.92 12.4489L1288.25 48.3381L1278.02 12.4489H1264.21L1278.82 57.7324H1297.26L1311.98 12.4489H1298.92ZM1387.76 57.7324H1400.55V12.4489H1387.76V57.7324ZM1423.61 12.46L1405.75 57.7149H1418.36L1421.19 49.7179H1442.3L1445 57.7149H1458.7L1440.69 12.46H1423.61ZM1431.91 20.7192L1439.65 41.9194H1423.92L1431.91 20.7192Z" fill="#606060"/>
<path d="M1134.83 21.3434V14.8807C1135.45 14.8366 1136.08 14.8014 1136.73 14.7815C1154.4 14.2261 1165.99 29.9664 1165.99 29.9664C1165.99 29.9664 1153.47 47.3578 1140.05 47.3578C1138.11 47.3578 1136.38 47.0448 1134.83 46.5223V26.9312C1141.71 27.7621 1143.09 30.8019 1147.22 37.6944L1156.42 29.9377C1156.42 29.9377 1149.71 21.1318 1138.39 21.1318C1137.16 21.1318 1135.98 21.2179 1134.83 21.3434ZM1134.83 0V9.6523C1135.46 9.6016 1136.1 9.56191 1136.73 9.53988C1161.31 8.71108 1177.31 29.6908 1177.31 29.6908C1177.31 29.6908 1158.92 52.0527 1139.77 52.0527C1138.01 52.0527 1136.37 51.8896 1134.82 51.6163V57.5831C1136.14 57.7507 1137.51 57.8499 1138.94 57.8499C1156.77 57.8499 1169.66 48.7464 1182.14 37.9699C1184.21 39.6298 1192.68 43.659 1194.43 45.4246C1182.56 55.3612 1154.9 63.3715 1139.21 63.3715C1137.7 63.3715 1136.25 63.2811 1134.82 63.1423V71.527H1202.58V0H1134.83ZM1134.83 46.5223V51.6141C1118.33 48.6759 1113.76 31.5337 1113.76 31.5337C1113.76 31.5337 1121.68 22.763 1134.83 21.3412V26.929C1134.81 26.929 1134.81 26.9268 1134.8 26.9268C1127.9 26.0981 1122.51 32.5432 1122.51 32.5432C1122.51 32.5432 1125.53 43.3968 1134.83 46.5201M1105.54 30.7929C1105.54 30.7929 1115.31 16.373 1134.83 14.8807V9.65009C1113.21 11.3848 1094.5 29.6886 1094.5 29.6886C1094.5 29.6886 1105.1 60.3362 1134.83 63.1423V57.5809C1113.01 54.8344 1105.54 30.7929 1105.54 30.7929Z" fill="#606060"/>
</g>
<g clip-path="url(#clip2_3132_552)">
<path d="M826.9 35.7731L791.211 0V71.4624L826.9 35.7731Z" fill="#606060"/>
<path d="M755.519 35.7731L791.208 0H719.83L755.519 35.7731Z" fill="#606060"/>
<path d="M684.059 35.7731L719.832 71.4624V0L684.059 35.7731Z" fill="#606060"/>
<path d="M755.519 35.7725L719.83 71.4617H791.208L755.519 35.7725Z" fill="#606060"/>
<path d="M858.217 37.8721H845.285V50.6362H838.818V20.7412H845.285V33.0016H858.217V20.7412H864.683V50.6362H858.217V37.8721Z" fill="#606060"/>
<path d="M880.309 51.2239C873.844 51.2239 868.553 48.6207 868.469 41.4829H874.935C875.018 44.6739 876.867 46.6053 880.393 46.6053C882.997 46.6053 886.02 45.2617 886.02 42.3227C886.02 39.9713 884.004 39.2996 880.645 38.2918L878.462 37.704C873.759 36.3604 869.057 34.5129 869.057 29.1385C869.057 22.5046 875.272 20.2373 880.897 20.2373C886.524 20.2373 891.73 22.2527 891.814 28.8867H885.348C885.096 26.1995 883.501 24.6039 880.478 24.6039C878.043 24.6039 875.691 25.8636 875.691 28.5508C875.691 30.7341 877.706 31.406 881.905 32.7495L884.425 33.5053C889.547 35.1008 892.821 36.8643 892.821 41.9028C892.738 48.6207 886.187 51.2239 880.309 51.2239Z" fill="#606060"/>
<path d="M896.428 20.8252H906.84C908.771 20.7412 910.787 20.8252 912.719 21.161C916.329 22.0008 919.101 24.352 919.101 28.3829C919.101 32.4136 916.666 34.177 913.139 35.1008C917.169 35.8566 920.192 37.872 920.192 42.3226C920.192 49.1246 913.475 50.6361 908.268 50.6361H896.512L896.428 20.8252ZM906.84 33.2534C909.696 33.2534 912.636 32.6656 912.636 29.2226C912.636 26.1156 909.947 25.2758 907.261 25.2758H902.725V33.2534H906.84ZM907.428 46.1855C910.451 46.1855 913.391 45.5136 913.391 41.8189C913.391 38.1239 910.872 37.4521 907.764 37.4521H902.642V46.1855H907.428Z" fill="#606060"/>
<path d="M936.993 51.2239C927.336 51.2239 923.053 45.0937 923.053 35.9405C923.053 26.7872 927.84 20.1533 937.328 20.1533C943.291 20.1533 949.085 22.8405 949.252 29.5584H942.535C942.199 26.5353 940.183 25.0238 937.328 25.0238C931.451 25.0238 929.687 31.3218 929.687 36.1085C929.687 40.895 931.451 46.4374 937.076 46.4374C940.016 46.4374 942.199 44.8418 942.618 41.8186H949.337C948.666 48.7047 943.206 51.2239 936.993 51.2239Z" fill="#606060"/>
</g>
<g clip-path="url(#clip3_3132_552)">
<path d="M148.353 56.3659C134.456 66.6099 114.313 72.0734 96.9702 72.0734C72.6547 72.0734 50.7612 63.0801 34.2001 48.1231C32.8977 46.9478 34.065 45.3437 35.6255 46.2609C53.4969 56.6597 75.5968 62.9173 98.4274 62.9173C113.821 62.9173 130.759 59.7329 146.332 53.122C148.686 52.1214 150.651 54.6626 148.353 56.3699" fill="#606060"/>
<path d="M154.128 49.7543C152.357 47.4832 142.387 48.6823 137.908 49.2143C136.547 49.3812 136.336 48.1939 137.563 47.3403C145.504 41.7498 158.539 43.3657 160.056 45.2358C161.576 47.1219 159.659 60.1849 152.198 66.4186C151.055 67.3756 149.958 66.8674 150.47 65.5967C152.147 61.4119 155.907 52.0334 154.124 49.7543" fill="#606060"/>
<path d="M138.225 7.87782V2.44217C138.225 1.62027 138.849 1.06836 139.6 1.06836H163.927C164.709 1.06836 165.333 1.63217 165.333 2.44217V7.09563C165.321 7.87782 164.666 8.89825 163.501 10.5103L150.896 28.5087C155.581 28.3936 160.524 29.0923 164.772 31.4867C165.729 32.0265 165.992 32.8207 166.063 33.5989V39.3959C166.063 40.186 165.19 41.1151 164.272 40.6347C156.787 36.7118 146.846 36.283 138.571 40.6744C137.729 41.131 136.844 40.2178 136.844 39.4237V33.9166C136.844 33.0312 136.856 31.5224 137.737 30.1803L152.34 9.23574H139.631C138.849 9.23574 138.225 8.68383 138.225 7.87385" fill="#606060"/>
<path d="M49.4791 41.7817H42.078C41.3713 41.7301 40.8075 41.1979 40.7559 40.523V2.53692C40.7559 1.77855 41.3911 1.17503 42.1813 1.17503H49.0821C49.8006 1.20679 50.3724 1.7587 50.4241 2.44561V7.41273H50.5591C52.3617 2.61236 55.7447 0.376953 60.3028 0.376953C64.8609 0.376953 67.8269 2.61634 69.9114 7.41273C71.7021 2.61236 75.772 0.376953 80.1316 0.376953C83.2326 0.376953 86.6273 1.65546 88.7 4.53013C91.0426 7.72641 90.5622 12.368 90.5622 16.4378L90.5503 40.4118C90.5503 41.1702 89.915 41.7856 89.1249 41.7856H81.7357C80.9972 41.734 80.4015 41.1385 80.4015 40.4118V20.2813C80.4015 18.6772 80.5486 14.6828 80.1951 13.1621C79.6432 10.613 77.9875 9.89432 75.8434 9.89432C74.0527 9.89432 72.1787 11.0894 71.4202 13.0072C70.6619 14.9211 70.7333 18.1292 70.7333 20.2852V40.4157C70.7333 41.1742 70.098 41.7895 69.3079 41.7895H61.9187C61.1684 41.7379 60.5847 41.1424 60.5847 40.4157L60.5727 20.2852C60.5727 16.0486 61.2716 9.8149 56.0146 9.8149C50.7576 9.8149 50.9045 15.8938 50.9045 20.2852V40.4157C50.9045 41.1742 50.2692 41.7895 49.4791 41.7895" fill="#606060"/>
<path d="M186.274 0.373047C197.256 0.373047 203.2 9.80306 203.2 21.794C203.2 33.785 196.633 42.5719 186.274 42.5719C175.915 42.5719 169.617 33.1418 169.617 21.3891C169.617 9.63629 175.562 0.373047 186.274 0.373047ZM186.337 8.12749C180.882 8.12749 180.541 15.5603 180.541 20.194C180.541 24.8276 180.47 34.7459 186.278 34.7459C192.086 34.7459 192.286 26.7532 192.286 21.8814C192.286 18.6772 192.151 14.8456 191.182 11.8042C190.348 9.15983 188.692 8.13147 186.341 8.13147" fill="#606060"/>
<path d="M217.436 41.7817H210.067C209.328 41.7301 208.733 41.1345 208.733 40.408L208.721 2.4139C208.784 1.71508 209.396 1.17509 210.146 1.17509H217.007C217.654 1.20686 218.182 1.64362 218.329 2.23523V8.04411H218.464C220.537 2.85065 223.44 0.373047 228.55 0.373047C231.869 0.373047 235.109 1.56818 237.189 4.84783C239.127 7.88926 239.127 12.9993 239.127 16.6721V40.5826C239.044 41.2497 238.428 41.7777 237.702 41.7777H230.28C229.605 41.7261 229.042 41.2258 228.97 40.5826V19.9517C228.97 15.7985 229.451 9.71967 224.337 9.71967C222.534 9.71967 220.882 10.9267 220.057 12.7611C219.017 15.0839 218.881 17.3947 218.881 19.9557V40.4119C218.87 41.1702 218.226 41.7857 217.436 41.7857" fill="#606060"/>
<path d="M118.828 23.6366V22.0325C113.475 22.0325 107.825 23.1759 107.825 29.4852C107.825 32.6815 109.481 34.8454 112.324 34.8454C114.404 34.8454 116.271 33.5669 117.446 31.4824C118.903 28.9213 118.831 26.5153 118.831 23.6327M126.296 41.6707C125.808 42.1075 125.101 42.1392 124.549 41.8494C122.091 39.8086 121.655 38.8635 120.301 36.914C116.243 41.0553 113.368 42.294 108.099 42.294C101.873 42.294 97.0254 38.4546 97.0254 30.7596C97.0254 24.7523 100.285 20.6626 104.915 18.6654C108.933 16.8946 114.543 16.5849 118.831 16.0925V15.1357C118.831 13.3767 118.966 11.2962 117.938 9.77544C117.033 8.41355 115.306 7.84974 113.785 7.84974C110.966 7.84974 108.445 9.29501 107.829 12.2928C107.706 12.9598 107.214 13.6149 106.551 13.6467L99.368 12.8764C98.7645 12.7414 98.0974 12.2531 98.2641 11.3239C99.9198 2.62056 107.778 0 114.813 0C118.415 0 123.12 0.956897 125.963 3.68465C129.564 7.04768 129.222 11.5344 129.222 16.4142V27.9486C129.222 31.4148 130.66 32.9355 132.014 34.8097C132.494 35.4766 132.597 36.2787 131.994 36.7751C130.485 38.0338 127.797 40.3764 126.32 41.6867L126.3 41.6667" fill="#606060"/>
<path d="M21.8022 23.6365V22.0324C16.4499 22.0324 10.7998 23.1759 10.7998 29.4851C10.7998 32.6813 12.4556 34.8453 15.2985 34.8453C17.379 34.8453 19.2452 33.5667 20.4204 31.4821C21.8776 28.9212 21.8062 26.515 21.8062 23.6324M29.2708 41.6705C28.7824 42.1073 28.0757 42.1391 27.5237 41.8492C25.066 39.8084 24.6292 38.8634 23.2753 36.9139C19.2174 41.0552 16.3428 42.294 11.0738 42.294C4.84802 42.294 0 38.4544 0 30.7595C0 24.7522 3.25981 20.6625 7.88944 18.6653C11.9076 16.8945 17.518 16.5847 21.8062 16.0924V15.1355C21.8062 13.3766 21.9411 11.296 20.9127 9.77532C20.0075 8.41343 18.2803 7.84961 16.7596 7.84961C13.9405 7.84961 11.4193 9.29488 10.8038 12.2926C10.6807 12.9597 10.1884 13.6148 9.5253 13.6466L2.34261 12.8763C1.7391 12.7413 1.07204 12.2529 1.23881 11.3238C2.89054 2.63233 10.7482 0.0078125 17.7841 0.0078125C21.3852 0.0078125 26.0903 0.964711 28.9333 3.69246C32.5345 7.0555 32.1931 11.5422 32.1931 16.4219V27.9563C32.1931 31.4226 33.6304 32.9434 34.9843 34.8174C35.4648 35.4845 35.568 36.2866 34.9645 36.7828C33.4557 38.0415 30.7676 40.3841 29.2906 41.6944L29.2708 41.6746" fill="#606060"/>
</g>
<g clip-path="url(#clip4_3132_552)">
<path d="M422.625 13.8561C408.563 13.8561 399.942 24.8384 399.942 35.9232C399.942 49.2662 410.822 57.9905 422.728 57.9905C430.631 57.9905 438.123 54.5007 444.487 48.8557V65.3804C437.815 69.3833 428.681 71.8465 421.598 71.8465C401.276 71.8465 384.238 55.3219 384.238 35.9232C384.238 15.3957 401.379 0 421.701 0C429.502 0 438.636 2.36067 444.589 5.33717V21.554C437.097 16.6274 429.502 13.8561 422.625 13.8561Z" fill="#606060"/>
<path d="M487.687 71.8465C467.263 71.8465 450.02 55.9377 450.02 35.9232C450.02 15.9089 467.16 0 488.612 0C496.412 0 506.059 2.05276 512.013 4.82399V20.9382C505.238 17.0379 496.515 13.8561 488.92 13.8561C474.858 13.8561 465.723 24.8384 465.723 35.9232C465.723 48.9582 476.5 58.4009 489.124 58.4009C491.793 58.4009 494.359 58.1957 497.643 56.9641V44.0317H486.148V30.3809H512.423V66.7147C504.931 70.1017 496.515 71.8465 487.687 71.8465Z" fill="#606060"/>
<path d="M523.902 70.4092V1.43652H538.682V70.4092H523.902Z" fill="#606060"/>
</g>
<g clip-path="url(#clip5_3132_552)">
<path d="M1977.1 17.4548H1962.61C1961.29 17.4548 1960.22 18.5102 1960.22 19.8197V23.0446C1960.25 23.8981 1960.96 24.5824 1961.82 24.5824H1964.2C1964.28 24.5824 1964.33 24.6083 1964.38 24.68C1964.43 24.7516 1964.46 24.8559 1964.43 24.9341L1958.76 41.8277C1958.71 41.9255 1958.61 42.0037 1958.48 41.9777C1958.37 41.9777 1958.28 41.8996 1958.25 41.8277L1949.76 18.9403V18.9142C1949.53 18.3604 1949 17.9564 1948.39 17.9303H1943.27C1942.67 17.9825 1942.13 18.3604 1941.88 18.9142V18.9403L1933.39 41.8277C1933.36 41.9255 1933.26 42.0037 1933.16 42.0037C1933.04 42.0037 1932.93 41.9516 1932.88 41.8538L1927.21 24.9341C1927.18 24.8559 1927.21 24.7581 1927.26 24.68C1927.31 24.6279 1927.36 24.5824 1927.43 24.5824H1929.82C1930.68 24.5824 1931.39 23.9047 1931.41 23.0446V19.8197C1931.41 18.5102 1930.35 17.4548 1929.03 17.4548H1914.53C1914.03 17.4548 1913.54 17.7088 1913.24 18.1063C1912.96 18.4841 1912.87 18.9858 1913.02 19.4418C1913.22 20.0218 1913.47 20.7253 1913.7 21.455C1913.93 22.1848 1914.18 22.8623 1914.41 23.4943C1914.61 24.1261 1915.2 24.5497 1915.88 24.5758H1918.31C1918.44 24.5758 1918.57 24.654 1918.59 24.7777L1929.87 57.679C1930.07 58.311 1930.66 58.7605 1931.34 58.7605H1934.84C1935.5 58.7605 1936.09 58.3567 1936.31 57.7507C1939.41 48.8381 1945.34 31.8727 1945.56 31.2929C1945.59 31.169 1945.71 31.0649 1945.84 31.0649C1945.98 31.0649 1946.1 31.1431 1946.12 31.2668C1946.35 31.8727 1952.28 48.8381 1955.38 57.7247C1955.6 58.3306 1956.18 58.7346 1956.85 58.754H1960.35C1961.03 58.754 1961.62 58.298 1961.82 57.6725L1973.07 24.7712C1973.18 24.5693 1973.3 24.5693 1973.35 24.5693H1975.78C1976.44 24.5693 1977.03 24.1392 1977.25 23.5137C1977.48 22.8883 1977.71 22.1521 1977.96 21.4746C1978.22 20.7971 1978.47 20.0412 1978.67 19.4614C1978.82 19.0054 1978.73 18.5037 1978.45 18.1258C1978.11 17.6958 1977.66 17.4482 1977.13 17.4482L1977.1 17.4548ZM2146.82 52.1216H2144.18C2143.78 52.1216 2143.45 51.796 2143.45 51.3659V18.9403C2143.45 18.3604 2142.97 17.8847 2142.36 17.9108H2134.65C2134.32 17.9108 2134.02 18.0606 2133.82 18.3147L2130.63 22.2693C2130.25 22.7256 2130.35 23.4031 2130.8 23.7809C2130.98 23.9308 2131.21 24.009 2131.41 24.009H2132.4C2132.8 24.0351 2133.13 24.3607 2133.16 24.7647V51.3269C2133.16 51.5288 2133.08 51.7568 2132.96 51.9328C2132.13 53.0143 2130.27 55.3076 2129.36 56.4411C2128.96 56.8974 2129.01 57.5749 2129.47 57.9528C2129.67 58.1287 2129.9 58.2069 2130.15 58.2328H2143.59C2143.87 58.259 2144.15 58.1546 2144.35 57.9332L2147.49 54.0307C2148.22 53.1772 2147.72 52.1412 2146.83 52.1412L2146.82 52.1216Z" fill="#606060"/>
<path d="M2138.26 13.5255C2141.45 13.5255 2144.04 10.9557 2144.04 7.78573C2144.04 4.61571 2141.45 2.0459 2138.26 2.0459C2135.07 2.0459 2132.48 4.61571 2132.48 7.78573C2132.48 10.9557 2135.07 13.5255 2138.26 13.5255Z" fill="#606060"/>
<path d="M2189.11 21.2524C2189.11 20.6986 2188.8 20.1709 2188.06 20.1709H2186.72V23.6696H2187.23V22.386H2187.69L2188.57 23.6696H2189.15L2188.22 22.3339C2188.87 22.2819 2189.1 21.7542 2189.1 21.2524H2189.11ZM2187.23 21.8844V20.601H2188.12C2188.45 20.6269 2188.68 20.8811 2188.68 21.2069V21.2589C2188.7 21.5847 2188.47 21.8648 2188.17 21.8909H2187.23V21.8844Z" fill="#606060"/>
<path d="M2187.81 18.8874C2186.13 18.8874 2184.77 20.249 2184.77 21.9104C2184.77 23.5717 2186.13 24.9333 2187.81 24.9333C2189.48 24.9333 2190.85 23.5717 2190.85 21.9104C2190.85 20.249 2189.51 18.8874 2187.81 18.8874ZM2187.81 24.4772C2186.39 24.4772 2185.22 23.3437 2185.22 21.9364V21.9104C2185.19 20.5225 2186.31 19.3694 2187.7 19.3434H2187.81C2189.23 19.3434 2190.39 20.5031 2190.39 21.9104C2190.39 23.3175 2189.25 24.4772 2187.81 24.4772ZM2014.97 52.2708C2012.74 52.3686 2011.62 51.3392 2011.62 48.7983V30.595C2011.62 22.64 2004.9 17.5778 1997.32 17.5778C1985.57 17.5778 1981.33 23.1156 1980.85 29.3116C1980.82 29.9174 1981.28 30.419 1981.86 30.4451H1987.72C1988.28 30.419 1988.74 29.9891 1988.76 29.4614C1989.07 26.2365 1991.25 23.8714 1994.89 23.8714C1998.93 23.8714 2001.36 25.9107 2001.36 30.4908V34.4454H1999.25C1992.03 34.4454 1987.06 35.377 1983.71 37.4684C1980.37 39.5598 1978.7 43.4102 1978.7 47.9187C1978.7 51.2414 1979.84 53.9582 1982.14 56.1278C1984.45 58.2908 1987.14 59.2486 1990.66 59.2486C1992.76 59.2486 1994.84 58.7729 1996.75 57.8607C1998.62 57.0268 2000.34 55.9193 2001.87 54.5902C2002.17 54.3099 2002.65 54.31 2002.93 54.6162C2002.98 54.6684 2003.03 54.7139 2003.05 54.7921C2004.7 57.6653 2006.5 58.5905 2009.92 58.5905C2013.01 58.5905 2014.51 55.7173 2015.85 53.9843C2016.36 53.3066 2015.8 52.2251 2014.96 52.2708H2014.97ZM2001.41 49.3521H2001.36C2001.36 49.6061 2000.95 49.958 2000.8 50.1078C1999.86 50.8897 1998.82 51.5672 1997.7 52.0949C1996.69 52.5248 1995.6 52.7269 1994.51 52.7007C1992.91 52.7007 1991.32 52.0949 1990.28 50.9613C1989.21 49.8016 1988.65 48.2706 1988.68 46.7069C1988.68 44.3418 1989.57 42.7522 1991.36 41.5729C1993.16 40.3937 1996.11 39.8335 1999.62 39.8335H2001.37L2001.4 49.3521H2001.41ZM2125.15 52.2708C2122.92 52.3686 2121.8 51.3392 2121.8 48.7983V30.595C2121.8 22.64 2115.09 17.5778 2107.51 17.5778C2095.75 17.5778 2091.51 23.1156 2091.03 29.3116C2091 29.9174 2091.46 30.419 2092.05 30.4451H2097.91C2098.46 30.419 2098.92 29.9891 2098.95 29.4614C2099.25 26.2365 2101.43 23.8714 2105.08 23.8714C2109.11 23.8714 2111.54 25.9107 2111.54 30.4908V34.4454H2109.46C2102.24 34.4454 2097.25 35.377 2093.93 37.4684C2090.58 39.5598 2088.88 43.4102 2088.88 47.9187C2088.88 51.2414 2090.02 53.9582 2092.33 56.1278C2094.63 58.2908 2097.32 59.2486 2100.84 59.2486C2102.95 59.2486 2105.03 58.7729 2106.93 57.8607C2108.8 57.0268 2110.52 55.9193 2112.05 54.5902C2112.36 54.3099 2112.84 54.31 2113.11 54.6162C2113.16 54.6684 2113.22 54.7139 2113.24 54.7921C2114.88 57.6653 2116.68 58.5905 2120.1 58.5905C2123.2 58.5905 2124.69 55.7173 2126.03 53.9843C2126.54 53.3066 2125.98 52.2251 2125.14 52.2708H2125.15ZM2111.62 49.3521H2111.57C2111.57 49.6061 2111.16 49.958 2111.01 50.1078C2110.07 50.8897 2109.03 51.5672 2107.91 52.0949C2106.9 52.5248 2105.81 52.7269 2104.72 52.7007C2103.12 52.7007 2101.53 52.0949 2100.49 50.9613C2099.42 49.8016 2098.86 48.2706 2098.89 46.7069C2098.89 44.3418 2099.77 42.7522 2101.57 41.5729C2103.37 40.3937 2106.32 39.8335 2109.83 39.8335H2111.58V49.3521H2111.61H2111.62ZM2179.77 17.7537C2179.24 17.4735 2177.9 17.3498 2176.73 17.3498C2174.86 17.3498 2173.36 17.6039 2172.07 18.1576L2171.96 18.2098C2171.48 18.4378 2171 18.6853 2170.57 19.0176C2168.92 20.0275 2167.47 21.285 2166.21 22.7443C2166.21 22.7443 2165.65 23.1742 2165.55 22.4641V18.8157C2165.55 18.2358 2165.07 17.7602 2164.49 17.7602H2156.78C2156.48 17.7602 2156.18 17.884 2155.99 18.1381C2155.99 18.1381 2153.56 21.1351 2152.78 22.1644C2152.29 22.7703 2152.6 23.904 2153.61 23.904H2154.57C2154.98 23.904 2155.34 24.2557 2155.34 24.6597V51.3457C2155.34 51.5476 2155.28 51.7756 2155.16 51.9516C2154.4 52.8832 2152.48 55.3004 2151.54 56.486C2151.19 56.9617 2151.26 57.6198 2151.74 57.9976C2151.92 58.1475 2152.14 58.2257 2152.37 58.2257H2169.02C2169.6 58.2257 2170.09 57.75 2170.09 57.1701V53.1698C2170.09 52.5901 2169.6 52.1145 2169.02 52.1145H2166.39C2165.96 52.1145 2165.62 51.7887 2165.62 51.3588V35.8267C2165.93 28.4515 2170.37 26.1842 2172.49 25.5328L2172.8 25.435L2172.88 25.4089C2173.45 25.2591 2174.04 25.1809 2174.65 25.1809C2177.18 25.1809 2178.12 25.5587 2179.51 25.9107C2180.09 26.0605 2180.58 25.435 2180.58 24.8551V18.8157C2180.52 18.3401 2180.15 17.9622 2179.77 17.7863L2179.77 17.7537ZM2089.21 17.8775H2077.15C2076.74 17.8775 2076.39 17.5257 2076.39 17.1217V11.206C2076.39 8.33284 2077.88 5.46619 2080.97 5.46619C2084.47 5.46619 2085.01 8.38495 2085.16 10.6001C2085.18 11.1539 2085.64 11.6099 2086.2 11.6295H2091.19C2091.75 11.6034 2092.2 11.1539 2092.18 10.574C2092.07 3.17287 2087.34 0 2079.73 0C2075.1 0 2072.05 1.43333 2069.77 4.20224C2067.49 6.97117 2066.33 10.0659 2066.33 15.6037V17.0892C2066.33 17.4931 2065.99 17.8189 2065.59 17.8189L2044.98 17.871C2044.4 17.8449 2043.89 18.301 2043.89 18.9003V22.9266C2043.89 23.5327 2044.4 24.0081 2044.98 24.0081H2047.19C2047.62 24.0081 2047.95 24.3601 2047.95 24.764C2047.95 24.8616 2047.92 24.9659 2047.9 25.0441C2047.9 25.0441 2042.22 38.159 2039.93 43.3973C2039.76 43.7751 2039.33 43.9509 2038.94 43.8011C2038.77 43.7229 2038.64 43.5731 2038.54 43.3973C2036.21 38.1135 2030.48 25.0441 2030.48 25.0441C2030.33 24.6663 2030.51 24.2102 2030.88 24.0604C2030.96 24.0343 2031.06 24.0081 2031.16 24.0081H2032.71C2033.31 24.0081 2033.8 23.5327 2033.8 22.9266V18.9264C2033.8 18.3466 2033.31 17.871 2032.71 17.897H2014.06C2013.45 17.897 2012.97 18.3987 2012.99 19.0046C2012.99 19.1805 2013.05 19.3304 2013.12 19.4802C2013.68 20.4639 2014.92 22.8029 2015.27 23.4804C2015.45 23.8062 2015.81 24.0081 2016.16 24.0343H2019.76C2020.06 24.0343 2020.34 24.2102 2020.47 24.4903C2020.47 24.4903 2033.72 54.0495 2034.21 55.0787C2034.72 56.3884 2034.72 57.8478 2034.18 59.1833C2033.58 61.6004 2029.49 65.933 2027.24 65.1512C2025.69 64.6235 2025.49 61.8284 2023.64 61.4767C2023.29 61.4245 2022.96 61.4506 2022.62 61.6004C2022.29 61.7241 2019.27 65.5813 2018.62 66.2588C2018.28 66.6887 2018.28 67.2686 2018.62 67.692C2020.26 69.3794 2023.03 71.6467 2027.03 71.7966C2031.95 71.9986 2036.79 71.3405 2041.28 62.884C2041.28 62.884 2055.54 28.2431 2057.24 24.5164C2057.39 24.2623 2057.65 24.1124 2057.96 24.1124H2065.48C2065.88 24.1124 2066.24 24.4382 2066.24 24.8422V51.4498C2066.24 51.6778 2066.16 51.8799 2066.04 52.0559C2065.15 53.1894 2063.36 55.4306 2062.44 56.5642C2062.07 57.0203 2062.14 57.698 2062.59 58.0497C2062.8 58.1995 2063.02 58.3038 2063.28 58.2777H2080.11C2080.71 58.2777 2081.19 57.8021 2081.19 57.1962V53.2415C2081.19 52.6356 2080.71 52.16 2080.11 52.16H2077.21C2076.81 52.16 2076.48 51.8342 2076.48 51.4043V24.7444C2076.48 24.3405 2076.81 24.0147 2077.21 24.0147H2086.11C2086.44 24.0147 2086.74 23.8648 2086.95 23.6109C2087.71 22.627 2089.23 20.6399 2090.04 19.6104C2090.39 19.1348 2090.32 18.4769 2089.84 18.099C2089.66 17.9752 2089.44 17.871 2089.21 17.871L2089.21 17.8775Z" fill="#606060"/>
<path d="M1907.56 30.6928L1904.65 19.8191C1904.54 19.4412 1904.27 19.1677 1903.89 19.0634L1892.93 16.1706C1892.58 16.0729 1892.17 16.1707 1891.92 16.4508L1884.57 23.7542L1899.95 39.0388L1907.3 31.7353C1907.55 31.4552 1907.65 31.0577 1907.55 30.7058L1907.56 30.6928Z" fill="#606060"/>
<path d="M1861.55 47.339L1864.46 58.2127C1864.57 58.5906 1864.84 58.8643 1865.23 58.9684L1876.2 61.8612C1876.56 61.959 1876.97 61.8612 1877.22 61.5811L1884.57 54.2776L1869.21 38.9932L1861.86 46.303C1861.58 46.5833 1861.48 46.9546 1861.55 47.3325V47.339Z" fill="#606060"/>
<path d="M1876.18 16.1713L1865.23 19.0641C1864.85 19.1617 1864.57 19.4419 1864.47 19.8198L1861.55 30.6935C1861.45 31.0454 1861.55 31.4492 1861.83 31.7033L1869.18 39.0069L1884.55 23.7484L1877.2 16.4449C1876.94 16.1648 1876.57 16.067 1876.18 16.1648V16.1713Z" fill="#606060"/>
<path d="M1907.18 46.2049L1899.93 39.0059L1884.57 54.2642L1891.82 61.4634C1892.15 61.7892 1892.63 61.9194 1893.09 61.8151L1903.76 58.9942C1904.22 58.8705 1904.57 58.5185 1904.7 58.0625L1907.54 47.4624C1907.65 47.0063 1907.52 46.5307 1907.19 46.2049H1907.18Z" fill="#606060"/>
<path d="M1907.56 30.6928L1904.65 19.8191C1904.54 19.4412 1904.27 19.1677 1903.89 19.0634L1892.93 16.1706C1892.58 16.0729 1892.17 16.1707 1891.92 16.4508L1884.57 23.7542L1899.95 39.0388L1907.3 31.7353C1907.55 31.4552 1907.65 31.0577 1907.55 30.7058L1907.56 30.6928Z" fill="#606060"/>
<path d="M1861.55 47.339L1864.46 58.2127C1864.57 58.5906 1864.84 58.8643 1865.23 58.9684L1876.2 61.8612C1876.56 61.959 1876.97 61.8612 1877.22 61.5811L1884.57 54.2776L1869.21 38.9932L1861.86 46.303C1861.58 46.5833 1861.48 46.9546 1861.55 47.3325V47.339Z" fill="#606060"/>
<path d="M1876.18 16.1713L1865.23 19.0641C1864.85 19.1617 1864.57 19.4419 1864.47 19.8198L1861.55 30.6935C1861.45 31.0454 1861.55 31.4492 1861.83 31.7033L1869.18 39.0069L1884.55 23.7484L1877.2 16.4449C1876.94 16.1648 1876.57 16.067 1876.18 16.1648V16.1713Z" fill="#606060"/>
<path d="M1907.18 46.2049L1899.93 39.0059L1884.57 54.2642L1891.82 61.4634C1892.15 61.7892 1892.63 61.9194 1893.09 61.8151L1903.76 58.9942C1904.22 58.8705 1904.57 58.5185 1904.7 58.0625L1907.54 47.4624C1907.65 47.0063 1907.52 46.5307 1907.19 46.2049H1907.18Z" fill="#606060"/>
</g>
<defs>
<clipPath id="clip0_3132_552">
<rect width="103.666" height="72.7723" fill="white" transform="translate(1614.09)"/>
</clipPath>
<clipPath id="clip1_3132_552">
<rect width="375.446" height="73.5" fill="white" transform="translate(1094.5)"/>
</clipPath>
<clipPath id="clip2_3132_552">
<rect width="266.347" height="72.7723" fill="white" transform="translate(684.059)"/>
</clipPath>
<clipPath id="clip3_3132_552">
<rect width="239.879" height="72.7723" fill="white"/>
</clipPath>
<clipPath id="clip4_3132_552">
<rect width="155.379" height="72.7723" fill="white" transform="translate(384.238)"/>
</clipPath>
<clipPath id="clip5_3132_552">
<rect width="330.274" height="72.7723" fill="white" transform="translate(1861.51)"/>
</clipPath>
</defs>
</svg>
