<svg xmlns="http://www.w3.org/2000/svg" width="75" height="68" fill="none">
	<g filter="url(#a)">
		<path fill="url(#b)" fill-rule="evenodd"
			d="M49.066 23.551a1.055 1.055 0 0 1-.164-.076.424.424 0 0 1-.083-.07 1.058 1.058 0 0 1-.103-.15A13.29 13.29 0 0 0 37.433 17c-5.417 0-10.078 3.239-12.151 7.885-.045.102-.068.152-.097.191a.421.421 0 0 1-.09.092c-.04.029-.09.052-.19.098C20.241 27.383 17 32.08 17 37.533 17 44.971 23.03 51 30.467 51h13.857a.01.01 0 0 0 .01-.01.01.01 0 0 1 .008-.009c7.535-.386 13.525-6.617 13.525-14.248 0-5.942-3.634-11.037-8.8-13.182Z"
			clip-rule="evenodd" />
	</g>
	<g filter="url(#c)">
		<path fill="url(#d)" fill-rule="evenodd"
			d="M49.066 23.551a1.053 1.053 0 0 1-.164-.076.424.424 0 0 1-.083-.07c-.028-.031-.053-.07-.103-.15A13.291 13.291 0 0 0 37.433 17c-5.417 0-10.078 3.239-12.151 7.886-.046.1-.068.152-.097.19a.42.42 0 0 1-.09.092 1.07 1.07 0 0 1-.19.098C20.241 27.383 17 32.078 17 37.532 17 44.971 23.03 51 30.467 51h13.857a.01.01 0 0 0 .01-.01.01.01 0 0 1 .008-.009c7.535-.386 13.525-6.617 13.525-14.248 0-5.943-3.634-11.037-8.8-13.182Z"
			clip-rule="evenodd" />
	</g>
	<g filter="url(#e)">
		<path fill="url(#f)" fill-rule="evenodd"
			d="M48.854 24.692c-.329-.143-.493-.215-.596-.283a1.154 1.154 0 0 1-.251-.213c-.085-.09-.184-.242-.383-.545a12.156 12.156 0 0 0-10.19-5.518c-4.85 0-9.038 2.838-10.993 6.944-.186.392-.28.588-.367.703a1.14 1.14 0 0 1-.27.272c-.115.088-.31.183-.7.371a12.334 12.334 0 0 0-6.97 11.11c0 6.811 5.521 12.333 12.333 12.333h13.856a.01.01 0 0 0 .01-.01.01.01 0 0 1 .01-.01c6.908-.386 12.39-6.11 12.39-13.113 0-5.386-3.241-10.014-7.88-12.04Z"
			clip-rule="evenodd" />
	</g>
	<g filter="url(#g)">
		<path fill="url(#h)" d="M30.46 35.12a7.19 7.19 0 1 1 7.189 7.189h-7.19v-7.19Z"
			shape-rendering="crispEdges" />
	</g>
	<g filter="url(#i)">
		<path fill="url(#j)" d="M38.032 36.724a5.584 5.584 0 1 1 5.584 5.584h-5.584v-5.584Z"
			shape-rendering="crispEdges" />
	</g>
	<g filter="url(#k)">
		<rect width="9.586" height="9.586" x="25.667" y="32.727" fill="url(#l)" rx="4.793"
			shape-rendering="crispEdges" />
	</g>
	<defs>
		<linearGradient id="b" x1="57.867" x2="27.957" y1="17" y2="58.834"
			gradientUnits="userSpaceOnUse">
			<stop stop-color="#FF00A0" />
			<stop offset="1" stop-color="#9600FF" />
		</linearGradient>
		<linearGradient id="d" x1="15.107" x2="45.148" y1="17.148" y2="57.011"
			gradientUnits="userSpaceOnUse">
			<stop stop-color="#FF00A0" />
			<stop offset="1" stop-color="#9600FF" />
		</linearGradient>
		<linearGradient id="f" x1="34.985" x2="41.036" y1="20.116" y2="50.009"
			gradientUnits="userSpaceOnUse">
			<stop stop-color="#252429" />
			<stop offset="1" />
			<stop offset="1" />
			<stop offset="1" />
		</linearGradient>
		<linearGradient id="h" x1="37.649" x2="37.649" y1="27.93" y2="42.309"
			gradientUnits="userSpaceOnUse">
			<stop stop-color="#fff" />
			<stop offset="1" stop-color="#fff" stop-opacity=".7" />
		</linearGradient>
		<linearGradient id="j" x1="43.616" x2="43.616" y1="31.141" y2="42.308"
			gradientUnits="userSpaceOnUse">
			<stop stop-color="#fff" />
			<stop offset="1" stop-color="#fff" stop-opacity=".7" />
		</linearGradient>
		<linearGradient id="l" x1="30.46" x2="30.46" y1="32.727" y2="42.313"
			gradientUnits="userSpaceOnUse">
			<stop stop-color="#fff" />
			<stop offset="1" stop-color="#fff" stop-opacity=".7" />
		</linearGradient>
		<filter id="a" width="73.26" height="66.393" x=".803" y=".803"
			color-interpolation-filters="sRGB" filterUnits="userSpaceOnUse">
			<feFlood flood-opacity="0" result="BackgroundImageFix" />
			<feBlend in="SourceGraphic" in2="BackgroundImageFix" result="shape" />
			<feGaussianBlur result="effect1_foregroundBlur_2673_496" stdDeviation="8.098" />
		</filter>
		<filter id="c" width="40.867" height="34.089" x="17" y="17"
			color-interpolation-filters="sRGB" filterUnits="userSpaceOnUse">
			<feFlood flood-opacity="0" result="BackgroundImageFix" />
			<feBlend in="SourceGraphic" in2="BackgroundImageFix" result="shape" />
			<feColorMatrix in="SourceAlpha" result="hardAlpha"
				values="0 0 0 0 0 0 0 0 0 0 0 0 0 0 0 0 0 0 127 0" />
			<feOffset dy=".089" />
			<feGaussianBlur stdDeviation=".089" />
			<feComposite in2="hardAlpha" k2="-1" k3="1" operator="arithmetic" />
			<feColorMatrix values="0 0 0 0 1 0 0 0 0 1 0 0 0 0 1 0 0 0 0.95 0" />
			<feBlend in2="shape" result="effect1_innerShadow_2673_496" />
		</filter>
		<filter id="e" width="38.6" height="31.823" x="18.133" y="18.133"
			color-interpolation-filters="sRGB" filterUnits="userSpaceOnUse">
			<feFlood flood-opacity="0" result="BackgroundImageFix" />
			<feBlend in="SourceGraphic" in2="BackgroundImageFix" result="shape" />
			<feColorMatrix in="SourceAlpha" result="hardAlpha"
				values="0 0 0 0 0 0 0 0 0 0 0 0 0 0 0 0 0 0 127 0" />
			<feOffset dy=".089" />
			<feGaussianBlur stdDeviation=".089" />
			<feComposite in2="hardAlpha" k2="-1" k3="1" operator="arithmetic" />
			<feColorMatrix values="0 0 0 0 1 0 0 0 0 1 0 0 0 0 1 0 0 0 0.75 0" />
			<feBlend in2="shape" result="effect1_innerShadow_2673_496" />
		</filter>
		<filter id="g" width="19.184" height="19.181" x="28.057" y="26.639"
			color-interpolation-filters="sRGB" filterUnits="userSpaceOnUse">
			<feFlood flood-opacity="0" result="BackgroundImageFix" />
			<feColorMatrix in="SourceAlpha" result="hardAlpha"
				values="0 0 0 0 0 0 0 0 0 0 0 0 0 0 0 0 0 0 127 0" />
			<feOffset dy="1.112" />
			<feGaussianBlur stdDeviation="1.201" />
			<feComposite in2="hardAlpha" operator="out" />
			<feColorMatrix values="0 0 0 0 0 0 0 0 0 0 0 0 0 0 0 0 0 0 0.3 0" />
			<feBlend in2="BackgroundImageFix" result="effect1_dropShadow_2673_496" />
			<feColorMatrix in="SourceAlpha" result="hardAlpha"
				values="0 0 0 0 0 0 0 0 0 0 0 0 0 0 0 0 0 0 127 0" />
			<feOffset dy=".4" />
			<feGaussianBlur stdDeviation=".044" />
			<feComposite in2="hardAlpha" operator="out" />
			<feColorMatrix values="0 0 0 0 0 0 0 0 0 0 0 0 0 0 0 0 0 0 0.1 0" />
			<feBlend in2="effect1_dropShadow_2673_496" result="effect2_dropShadow_2673_496" />
			<feBlend in="SourceGraphic" in2="effect2_dropShadow_2673_496" result="shape" />
			<feColorMatrix in="SourceAlpha" result="hardAlpha"
				values="0 0 0 0 0 0 0 0 0 0 0 0 0 0 0 0 0 0 127 0" />
			<feOffset dy="-.178" />
			<feGaussianBlur stdDeviation=".089" />
			<feComposite in2="hardAlpha" k2="-1" k3="1" operator="arithmetic" />
			<feColorMatrix values="0 0 0 0 1 0 0 0 0 1 0 0 0 0 1 0 0 0 0.55 0" />
			<feBlend in2="shape" result="effect3_innerShadow_2673_496" />
		</filter>
		<filter id="i" width="15.973" height="15.97" x="35.629" y="29.85"
			color-interpolation-filters="sRGB" filterUnits="userSpaceOnUse">
			<feFlood flood-opacity="0" result="BackgroundImageFix" />
			<feColorMatrix in="SourceAlpha" result="hardAlpha"
				values="0 0 0 0 0 0 0 0 0 0 0 0 0 0 0 0 0 0 127 0" />
			<feOffset dy="1.112" />
			<feGaussianBlur stdDeviation="1.201" />
			<feComposite in2="hardAlpha" operator="out" />
			<feColorMatrix values="0 0 0 0 0 0 0 0 0 0 0 0 0 0 0 0 0 0 0.3 0" />
			<feBlend in2="BackgroundImageFix" result="effect1_dropShadow_2673_496" />
			<feColorMatrix in="SourceAlpha" result="hardAlpha"
				values="0 0 0 0 0 0 0 0 0 0 0 0 0 0 0 0 0 0 127 0" />
			<feOffset dy=".4" />
			<feGaussianBlur stdDeviation=".044" />
			<feComposite in2="hardAlpha" operator="out" />
			<feColorMatrix values="0 0 0 0 0 0 0 0 0 0 0 0 0 0 0 0 0 0 0.1 0" />
			<feBlend in2="effect1_dropShadow_2673_496" result="effect2_dropShadow_2673_496" />
			<feBlend in="SourceGraphic" in2="effect2_dropShadow_2673_496" result="shape" />
			<feColorMatrix in="SourceAlpha" result="hardAlpha"
				values="0 0 0 0 0 0 0 0 0 0 0 0 0 0 0 0 0 0 127 0" />
			<feOffset dy="-.178" />
			<feGaussianBlur stdDeviation=".089" />
			<feComposite in2="hardAlpha" k2="-1" k3="1" operator="arithmetic" />
			<feColorMatrix values="0 0 0 0 1 0 0 0 0 1 0 0 0 0 1 0 0 0 0.55 0" />
			<feBlend in2="shape" result="effect3_innerShadow_2673_496" />
		</filter>
		<filter id="k" width="14.392" height="14.392" x="23.264" y="31.436"
			color-interpolation-filters="sRGB" filterUnits="userSpaceOnUse">
			<feFlood flood-opacity="0" result="BackgroundImageFix" />
			<feColorMatrix in="SourceAlpha" result="hardAlpha"
				values="0 0 0 0 0 0 0 0 0 0 0 0 0 0 0 0 0 0 127 0" />
			<feOffset dy="1.112" />
			<feGaussianBlur stdDeviation="1.201" />
			<feComposite in2="hardAlpha" operator="out" />
			<feColorMatrix values="0 0 0 0 0 0 0 0 0 0 0 0 0 0 0 0 0 0 0.3 0" />
			<feBlend in2="BackgroundImageFix" result="effect1_dropShadow_2673_496" />
			<feColorMatrix in="SourceAlpha" result="hardAlpha"
				values="0 0 0 0 0 0 0 0 0 0 0 0 0 0 0 0 0 0 127 0" />
			<feOffset dy=".4" />
			<feGaussianBlur stdDeviation=".044" />
			<feComposite in2="hardAlpha" operator="out" />
			<feColorMatrix values="0 0 0 0 0 0 0 0 0 0 0 0 0 0 0 0 0 0 0.1 0" />
			<feBlend in2="effect1_dropShadow_2673_496" result="effect2_dropShadow_2673_496" />
			<feBlend in="SourceGraphic" in2="effect2_dropShadow_2673_496" result="shape" />
			<feColorMatrix in="SourceAlpha" result="hardAlpha"
				values="0 0 0 0 0 0 0 0 0 0 0 0 0 0 0 0 0 0 127 0" />
			<feOffset dy="-.178" />
			<feGaussianBlur stdDeviation=".089" />
			<feComposite in2="hardAlpha" k2="-1" k3="1" operator="arithmetic" />
			<feColorMatrix values="0 0 0 0 1 0 0 0 0 1 0 0 0 0 1 0 0 0 0.55 0" />
			<feBlend in2="shape" result="effect3_innerShadow_2673_496" />
		</filter>
	</defs>
</svg>
