<svg width="74" height="74" fill="none" xmlns="http://www.w3.org/2000/svg">
	<g filter="url(#a)">
		<path fill-rule="evenodd" clip-rule="evenodd"
			d="M28.639 19.644c-.074.05-.111.075-.149.092a.449.449 0 0 1-.104.031c-.04.008-.083.008-.168.008h-.997a9.622 9.622 0 0 0-9.622 9.622v17.91a9.622 9.622 0 0 0 9.622 9.621H46.78a9.622 9.622 0 0 0 9.622-9.622v-17.91a9.622 9.622 0 0 0-9.622-9.621h-.922c-.085 0-.128 0-.169-.008a.451.451 0 0 1-.104-.031 1.043 1.043 0 0 1-.148-.092 14.95 14.95 0 0 0-8.399-2.566 14.95 14.95 0 0 0-8.398 2.566Z"
			fill="url(#b)" />
	</g>
	<g filter="url(#c)">
		<path
			d="M17 32.395c0-5.389 0-8.083 1.049-10.141a9.622 9.622 0 0 1 4.205-4.205C24.312 17 27.006 17 32.395 17h9.21c5.389 0 8.083 0 10.141 1.049a9.622 9.622 0 0 1 4.205 4.205C57 24.312 57 27.006 57 32.395v9.21c0 5.389 0 8.083-1.049 10.141a9.622 9.622 0 0 1-4.205 4.205C49.688 57 46.994 57 41.605 57h-9.21c-5.389 0-8.083 0-10.141-1.049a9.622 9.622 0 0 1-4.205-4.205C17 49.688 17 46.994 17 41.605v-9.21Z"
			fill="url(#d)" />
	</g>
	<g filter="url(#e)">
		<path
			d="M18.198 32.38c0-4.965 0-7.447.967-9.344a8.867 8.867 0 0 1 3.874-3.874c1.897-.967 4.38-.967 9.345-.967h9.232c4.965 0 7.448 0 9.345.967a8.867 8.867 0 0 1 3.874 3.874c.966 1.897.966 4.38.966 9.345v9.232c0 4.965 0 7.448-.966 9.344a8.866 8.866 0 0 1-3.874 3.875c-1.897.966-4.38.966-9.345.966h-9.232c-4.965 0-7.448 0-9.345-.966a8.866 8.866 0 0 1-3.874-3.875c-.966-1.896-.966-4.379-.966-9.344V32.38Z"
			fill="url(#f)" />
	</g>
	<g filter="url(#g)">
		<path
			d="M37.034 43.406c-12.367 0-13.092-1.929-13.092-2.788 0-.86.697-1.557 1.556-1.557H48.57c.859 0 1.556.697 1.556 1.557 0 .859-.725 2.788-13.093 2.788Z"
			fill="url(#h)" shape-rendering="crispEdges" />
	</g>
	<g filter="url(#i)">
		<path
			d="M45.525 41.269v-6.807c0-2.47-.724-6.532-8.49-6.532-7.765 0-8.489 4.062-8.489 6.532v6.806c0 .946.932 1.497 2.318 1.645 4.053.324 8.282.325 12.344 0 1.386-.148 2.317-.698 2.317-1.644Z"
			fill="url(#j)" shape-rendering="crispEdges" />
	</g>
	<defs>
		<linearGradient id="b" x1="60.446" y1="17.078" x2="27.866" y2="64.449"
			gradientUnits="userSpaceOnUse">
			<stop stop-color="#FF00A0" />
			<stop offset="1" stop-color="#9600FF" />
		</linearGradient>
		<linearGradient id="d" x1="18.983" y1="19.041" x2="52" y2="53.758"
			gradientUnits="userSpaceOnUse">
			<stop stop-color="#FF00A0" />
			<stop offset="1" stop-color="#9600FF" />
		</linearGradient>
		<linearGradient id="f" x1="11.366" y1="-13.908" x2="28.254" y2="55.323"
			gradientUnits="userSpaceOnUse">
			<stop stop-color="#252429" />
			<stop offset="1" />
			<stop offset="1" />
			<stop offset="1" />
		</linearGradient>
		<linearGradient id="h" x1="35.316" y1="47.302" x2="37.069" y2="36.511"
			gradientUnits="userSpaceOnUse">
			<stop stop-color="#fff" />
			<stop offset="1" stop-color="#fff" stop-opacity=".7" />
		</linearGradient>
		<linearGradient id="j" x1="36.916" y1="31.846" x2="36.916" y2="45.84"
			gradientUnits="userSpaceOnUse">
			<stop stop-color="#fff" />
			<stop offset="1" stop-color="#fff" stop-opacity=".5" />
		</linearGradient>
		<filter id="a" x=".902" y=".381" width="72.197" height="73.247" filterUnits="userSpaceOnUse"
			color-interpolation-filters="sRGB">
			<feFlood flood-opacity="0" result="BackgroundImageFix" />
			<feBlend in="SourceGraphic" in2="BackgroundImageFix" result="shape" />
			<feGaussianBlur stdDeviation="8.349" result="effect1_foregroundBlur_2673_531" />
		</filter>
		<filter id="c" x="17" y="17" width="40" height="40.092" filterUnits="userSpaceOnUse"
			color-interpolation-filters="sRGB">
			<feFlood flood-opacity="0" result="BackgroundImageFix" />
			<feBlend in="SourceGraphic" in2="BackgroundImageFix" result="shape" />
			<feColorMatrix in="SourceAlpha" values="0 0 0 0 0 0 0 0 0 0 0 0 0 0 0 0 0 0 127 0"
				result="hardAlpha" />
			<feOffset dy=".092" />
			<feGaussianBlur stdDeviation=".092" />
			<feComposite in2="hardAlpha" operator="arithmetic" k2="-1" k3="1" />
			<feColorMatrix values="0 0 0 0 1 0 0 0 0 1 0 0 0 0 1 0 0 0 0.95 0" />
			<feBlend in2="shape" result="effect1_innerShadow_2673_531" />
		</filter>
		<filter id="e" x="18.198" y="18.195" width="37.603" height="37.693"
			filterUnits="userSpaceOnUse" color-interpolation-filters="sRGB">
			<feFlood flood-opacity="0" result="BackgroundImageFix" />
			<feBlend in="SourceGraphic" in2="BackgroundImageFix" result="shape" />
			<feColorMatrix in="SourceAlpha" values="0 0 0 0 0 0 0 0 0 0 0 0 0 0 0 0 0 0 127 0"
				result="hardAlpha" />
			<feOffset dy=".092" />
			<feGaussianBlur stdDeviation=".092" />
			<feComposite in2="hardAlpha" operator="arithmetic" k2="-1" k3="1" />
			<feColorMatrix values="0 0 0 0 1 0 0 0 0 1 0 0 0 0 1 0 0 0 0.75 0" />
			<feBlend in2="shape" result="effect1_innerShadow_2673_531" />
		</filter>
		<filter id="g" x="22.499" y="38.288" width="29.07" height="7.228"
			filterUnits="userSpaceOnUse" color-interpolation-filters="sRGB">
			<feFlood flood-opacity="0" result="BackgroundImageFix" />
			<feColorMatrix in="SourceAlpha" values="0 0 0 0 0 0 0 0 0 0 0 0 0 0 0 0 0 0 127 0"
				result="hardAlpha" />
			<feOffset dy=".668" />
			<feGaussianBlur stdDeviation=".721" />
			<feComposite in2="hardAlpha" operator="out" />
			<feColorMatrix values="0 0 0 0 0 0 0 0 0 0 0 0 0 0 0 0 0 0 0.3 0" />
			<feBlend in2="BackgroundImageFix" result="effect1_dropShadow_2673_531" />
			<feColorMatrix in="SourceAlpha" values="0 0 0 0 0 0 0 0 0 0 0 0 0 0 0 0 0 0 127 0"
				result="hardAlpha" />
			<feOffset dy=".24" />
			<feGaussianBlur stdDeviation=".027" />
			<feComposite in2="hardAlpha" operator="out" />
			<feColorMatrix values="0 0 0 0 0 0 0 0 0 0 0 0 0 0 0 0 0 0 0.1 0" />
			<feBlend in2="effect1_dropShadow_2673_531" result="effect2_dropShadow_2673_531" />
			<feBlend in="SourceGraphic" in2="effect2_dropShadow_2673_531" result="shape" />
			<feColorMatrix in="SourceAlpha" values="0 0 0 0 0 0 0 0 0 0 0 0 0 0 0 0 0 0 127 0"
				result="hardAlpha" />
			<feOffset dy="-.107" />
			<feGaussianBlur stdDeviation=".053" />
			<feComposite in2="hardAlpha" operator="arithmetic" k2="-1" k3="1" />
			<feColorMatrix values="0 0 0 0 1 0 0 0 0 1 0 0 0 0 1 0 0 0 0.55 0" />
			<feBlend in2="shape" result="effect3_innerShadow_2673_531" />
		</filter>
		<filter id="i" x="27.104" y="27.155" width="19.863" height="18.111"
			filterUnits="userSpaceOnUse" color-interpolation-filters="sRGB">
			<feFlood flood-opacity="0" result="BackgroundImageFix" />
			<feColorMatrix in="SourceAlpha" values="0 0 0 0 0 0 0 0 0 0 0 0 0 0 0 0 0 0 127 0"
				result="hardAlpha" />
			<feOffset dy=".668" />
			<feGaussianBlur stdDeviation=".721" />
			<feComposite in2="hardAlpha" operator="out" />
			<feColorMatrix values="0 0 0 0 0 0 0 0 0 0 0 0 0 0 0 0 0 0 0.3 0" />
			<feBlend in2="BackgroundImageFix" result="effect1_dropShadow_2673_531" />
			<feColorMatrix in="SourceAlpha" values="0 0 0 0 0 0 0 0 0 0 0 0 0 0 0 0 0 0 127 0"
				result="hardAlpha" />
			<feOffset dy=".24" />
			<feGaussianBlur stdDeviation=".027" />
			<feComposite in2="hardAlpha" operator="out" />
			<feColorMatrix values="0 0 0 0 0 0 0 0 0 0 0 0 0 0 0 0 0 0 0.1 0" />
			<feBlend in2="effect1_dropShadow_2673_531" result="effect2_dropShadow_2673_531" />
			<feBlend in="SourceGraphic" in2="effect2_dropShadow_2673_531" result="shape" />
			<feColorMatrix in="SourceAlpha" values="0 0 0 0 0 0 0 0 0 0 0 0 0 0 0 0 0 0 127 0"
				result="hardAlpha" />
			<feOffset dy="-.107" />
			<feGaussianBlur stdDeviation=".053" />
			<feComposite in2="hardAlpha" operator="arithmetic" k2="-1" k3="1" />
			<feColorMatrix values="0 0 0 0 1 0 0 0 0 1 0 0 0 0 1 0 0 0 0.55 0" />
			<feBlend in2="shape" result="effect3_innerShadow_2673_531" />
		</filter>
	</defs>
</svg>
