<svg width="1609" height="416" viewBox="0 0 1609 416" fill="none" xmlns="http://www.w3.org/2000/svg">
<path fill-rule="evenodd" clip-rule="evenodd" d="M578.825 33.0779V113.41H597.674V33.0779H578.825ZM580.793 18.5273C582.812 20.5482 585.285 21.5587 588.212 21.5587C591.189 21.5587 593.687 20.5482 595.706 18.5273C597.724 16.5064 598.734 14.0813 598.734 11.252C598.734 8.37219 597.724 5.94709 595.706 3.97669C593.687 1.95577 591.189 0.945312 588.212 0.945312C585.285 0.945312 582.812 1.95577 580.793 3.97669C578.775 5.94709 577.766 8.37219 577.766 11.252C577.766 14.0813 578.775 16.5064 580.793 18.5273ZM719.026 139.036C724.379 141.014 730.624 142.003 737.762 142.003C745.613 142.003 752.393 140.735 758.103 138.199C763.812 135.663 768.222 132.086 771.332 127.47C774.442 122.905 775.997 117.579 775.997 111.491V33.1193H756.956V46.8154H756.497C754.967 43.7211 752.979 41.0326 750.532 38.7499C748.136 36.4672 745.332 34.6918 742.12 33.4236C738.909 32.1048 735.391 31.4453 731.567 31.4453C724.736 31.4453 718.797 33.1193 713.75 36.4672C708.703 39.8152 704.777 44.5581 701.973 50.696C699.22 56.7831 697.844 64.0877 697.844 72.6097V72.6858C697.844 81.0557 699.195 88.2842 701.897 94.3713C704.65 100.408 708.524 105.075 713.52 108.372C718.567 111.669 724.481 113.318 731.261 113.318C735.136 113.318 738.705 112.734 741.967 111.568C745.281 110.401 748.161 108.778 750.609 106.698C753.107 104.618 755.095 102.132 756.573 99.2411H756.956V110.883C756.956 116.006 755.299 120.09 751.985 123.133C748.671 126.177 743.905 127.699 737.685 127.699C732.791 127.699 728.738 126.912 725.526 125.34C722.365 123.818 720.275 121.89 719.256 119.557L718.95 118.948H700.291L700.444 119.633C701.208 123.843 703.171 127.648 706.332 131.046C709.493 134.445 713.724 137.108 719.026 139.036ZM747.626 95.5888C744.669 97.6685 741.203 98.7084 737.226 98.7084C733.148 98.7084 729.605 97.6685 726.597 95.5888C723.589 93.509 721.269 90.5668 719.638 86.7624C718.007 82.9072 717.191 78.3418 717.191 73.0663V72.9902C717.191 67.7146 718.007 63.1746 719.638 59.3702C721.269 55.5657 723.589 52.6236 726.597 50.5438C729.605 48.464 733.148 47.4241 737.226 47.4241C741.152 47.4241 744.593 48.464 747.55 50.5438C750.507 52.6236 752.826 55.591 754.509 59.4462C756.191 63.2507 757.032 67.7654 757.032 72.9902V73.0663C757.032 78.2403 756.191 82.755 754.509 86.6102C752.877 90.4654 750.583 93.4582 747.626 95.5888ZM1274.69 139.366C1270.97 137.679 1266.9 136.836 1262.58 136.836C1258.27 136.836 1254.15 137.629 1250.43 139.317C1246.7 141.004 1243.38 143.237 1240.5 146.016C1237.62 148.795 1235.39 152.07 1233.8 155.792C1232.26 159.514 1231.47 163.583 1231.47 167.9C1231.47 176.584 1234.45 183.978 1240.5 189.983C1246.55 195.987 1253.9 199.014 1262.58 199.014C1266.9 199.014 1270.97 198.27 1274.69 196.682C1278.41 195.143 1281.69 192.861 1284.47 189.983C1287.25 187.104 1289.48 183.78 1291.17 180.058C1292.85 176.336 1293.7 172.267 1293.7 167.95C1293.7 163.632 1292.85 159.563 1291.17 155.841C1289.48 152.12 1287.25 148.844 1284.47 146.066C1281.69 143.287 1278.41 141.054 1274.69 139.366ZM1236.03 413.984V209.782H1289.18V413.984H1236.03ZM1609 262.929V209.782H1558.04V147.703H1504.89V312.106C1504.89 322.775 1506.68 333.395 1509.6 343.419C1523.2 386.492 1563.35 415.969 1608.8 415.969H1609V364.807C1584.29 364.807 1559.48 347.24 1558.04 312.106V262.929H1609ZM1462.62 309.437C1451.75 300.157 1437.21 293.706 1421.58 291.275L1421.28 291.225L1421.26 291.221C1404.19 288.592 1384.85 285.612 1372.11 275.693C1369.73 273.807 1368.53 271.574 1368.68 269.043C1368.88 265.371 1371.61 261.401 1375.88 258.672C1384.31 253.362 1396.32 252.32 1406.6 255.992C1415.03 259.019 1420.89 264.726 1422.97 272.021L1423.77 274.799H1477.06V270.978C1477.06 256.042 1470.76 242.197 1458.9 230.932C1443.66 216.492 1419.99 207.609 1396.97 207.609H1395.93C1372.26 207.609 1352.75 213.564 1338.02 225.325C1328.44 232.818 1321.04 243.934 1317.72 255.794C1314.15 268.497 1315.34 281.151 1321.19 291.473L1321.29 291.622C1335.14 313.754 1361.64 320.007 1387.29 326.011L1387.75 326.118C1398.3 328.61 1408.31 330.973 1417.07 334.398C1425.11 338.368 1427.93 341.891 1427.93 347.796C1427.93 354.992 1424.91 360.599 1418.95 364.37C1413.34 367.943 1405.4 369.779 1396.03 369.779H1395.93C1388.28 369.928 1381.34 367.447 1375.83 362.485C1370.52 357.721 1367.19 351.071 1366.35 343.876L1365.95 340.452H1312.91L1313.01 344.322C1313.6 372.112 1329.73 395.087 1357.22 407.345C1369.82 412.952 1384.27 415.93 1398.71 415.93C1401.93 415.93 1405.16 415.781 1408.38 415.483C1427.04 413.746 1444.16 407.196 1457.96 396.527L1458.06 396.477C1472.99 384.17 1481.23 366.951 1481.23 347.895C1481.38 333.356 1474.98 320.056 1462.62 309.437ZM1159.16 147.703V413.984H1212.3V147.703H1159.16ZM1031.29 207.648C1088.8 207.648 1135.45 254.294 1135.45 311.808V413.934H1082.3V402.62C1067.21 411.105 1049.79 415.969 1031.29 415.969C973.771 415.969 927.125 369.322 927.125 311.808C927.125 254.294 973.771 207.648 1031.29 207.648ZM980.272 311.808C980.272 339.995 1003.1 362.821 1031.29 362.821C1059.47 362.821 1082.3 339.995 1082.3 311.808C1082.3 283.622 1059.47 260.795 1031.29 260.795C1003.1 260.795 980.272 283.622 980.272 311.808ZM799.272 362.772C777.785 362.772 759.375 349.473 751.882 330.665H901.696C902.837 324.562 903.383 318.21 903.383 311.808C903.383 254.294 856.737 207.648 799.223 207.648C741.709 207.648 695.062 254.294 695.062 311.808C695.062 369.322 741.709 415.969 799.223 415.969C845.026 415.969 883.931 386.393 897.875 345.354H837.681C828.352 356.023 814.606 362.772 799.272 362.772ZM799.272 260.795C820.759 260.795 839.17 274.094 846.663 292.902H751.882C759.375 274.094 777.785 260.795 799.272 260.795ZM583.839 280.253C597.436 237.179 637.582 207.703 683.037 207.703H683.236V258.865C658.523 258.865 633.711 276.432 632.272 311.565V413.889H579.125V367.987V311.565C579.125 300.896 580.911 290.277 583.839 280.253ZM567.053 207.703C521.597 207.703 481.452 237.179 467.855 280.253C464.927 290.277 463.141 300.896 463.141 311.565V367.987V413.889H516.288V311.565C517.727 276.432 542.539 258.865 567.251 258.865V207.703H567.053ZM284.741 312.105C287.073 382.372 383.343 382.372 386.271 312.105V209.781H439.418V255.683V312.105C439.418 322.774 437.632 333.394 434.704 343.418C421.107 386.491 380.961 415.967 335.506 415.967C290.051 415.967 249.905 386.491 236.308 343.368C233.38 333.294 231.594 322.675 231.594 312.055V255.683V209.781H284.741V255.683V312.105ZM134.877 258.258L134.52 258.201C112.215 254.64 85.9039 250.44 68.3319 236.175C57.1169 227.144 61.8312 212.852 73.6416 205.011C96.6174 189.975 134.828 198.411 142.519 225.903H202.564C202.564 176.875 150.757 145.115 102.423 145.711C75.2792 145.711 50.0207 152.311 30.5682 168.439C7.04657 187.593 -4.71426 224.067 9.97437 251.062C26.827 279.023 60.2822 287.196 92.3675 295.034L92.3678 295.034L92.368 295.034C106.293 298.436 119.96 301.775 131.9 306.641C142.519 312.05 149.02 318.054 149.02 329.368C149.02 353.932 127.235 364.105 102.473 364.105C78.9514 364.701 61.2853 346.737 58.9034 324.605H0C1.78646 411.396 115.425 442.56 179.588 391.001C197.85 375.419 207.874 353.287 207.874 329.418C208.42 290.513 171.946 264.212 134.877 258.258ZM613.969 113.411V33.1119H632.998V45.687H633.459C635.556 41.3438 638.676 37.8844 642.82 35.3087C647.014 32.7331 652.181 31.4453 658.32 31.4453C667.272 31.4453 674.177 34.1219 679.037 39.4752C683.948 44.8285 686.403 52.1513 686.403 61.4437V113.411H667.297V65.2314C667.297 59.5247 665.942 55.1309 663.23 52.0503C660.519 48.9191 656.452 47.3536 651.03 47.3536C647.398 47.3536 644.227 48.1869 641.515 49.8534C638.804 51.4695 636.707 53.7421 635.223 56.6713C633.74 59.5499 632.998 62.9336 632.998 66.8223V113.411H613.969ZM530.863 115.317C522.915 115.317 516.031 113.619 510.209 110.222C504.387 106.826 499.882 101.985 496.692 95.6987C493.554 89.4128 491.984 81.9609 491.984 73.3431V73.2671C491.984 64.6999 493.579 57.2988 496.768 51.0635C499.958 44.7776 504.438 39.9364 510.209 36.54C516.031 33.1435 522.839 31.4453 530.635 31.4453C537.723 31.4453 543.848 32.814 549.012 35.5514C554.175 38.2382 558.225 41.812 561.162 46.273C564.098 50.734 565.768 55.6512 566.173 61.0247V61.557H548.404L548.253 60.9487C547.493 57.0453 545.645 53.7249 542.709 50.9875C539.824 48.1994 535.875 46.8053 530.863 46.8053C526.915 46.8053 523.447 47.8952 520.46 50.075C517.524 52.2041 515.246 55.2457 513.626 59.1997C512.006 63.1538 511.196 67.8936 511.196 73.4191V73.4952C511.196 79.0714 512.006 83.8366 513.626 87.7906C515.297 91.7447 517.6 94.7862 520.536 96.9154C523.523 98.9938 526.991 100.033 530.939 100.033C535.748 100.033 539.621 98.7403 542.557 96.155C545.544 93.5189 547.468 90.0971 548.328 85.8896L548.48 85.2053H566.325L566.249 85.7375C565.743 91.3138 563.971 96.3324 560.934 100.793C557.896 105.254 553.821 108.803 548.708 111.439C543.595 114.024 537.647 115.317 530.863 115.317ZM420.924 111.753C425.118 114.129 430.208 115.317 436.193 115.317C440.285 115.317 443.943 114.736 447.166 113.573C450.388 112.41 453.151 110.768 455.453 108.645C457.755 106.471 459.622 103.969 461.054 101.138H461.438V113.725H480.544V33.3516H461.438V79.9073C461.438 82.8392 461.029 85.5183 460.21 87.9446C459.392 90.3204 458.189 92.3677 456.604 94.0863C455.018 95.805 453.1 97.1446 450.849 98.105C448.649 99.0149 446.194 99.4698 443.483 99.4698C438.009 99.4698 433.917 97.9281 431.206 94.8446C428.494 91.7105 427.139 87.2875 427.139 81.5754V33.3516H408.109V85.3666C408.109 91.5336 409.209 96.8666 411.409 101.365C413.608 105.864 416.78 109.327 420.924 111.753ZM348.197 115.316C341.366 115.316 335.427 113.654 330.38 110.332C325.384 106.959 321.509 102.151 318.756 95.9078C316.054 89.665 314.703 82.2642 314.703 73.7055V73.63C314.703 65.021 316.08 57.6203 318.833 51.4278C321.586 45.185 325.46 40.4022 330.456 37.0794C335.452 33.7063 341.34 32.0197 348.121 32.0197C351.995 32.0197 355.538 32.649 358.75 33.9077C362.013 35.116 364.893 36.878 367.391 39.1939C369.889 41.4594 371.903 44.2033 373.433 47.4254H373.891V4.75781H392.856V113.73H373.891V100.137H373.433C371.954 103.309 369.966 106.027 367.468 108.293C365.021 110.508 362.166 112.245 358.903 113.503C355.691 114.712 352.123 115.316 348.197 115.316ZM353.933 99.5326C357.858 99.5326 361.325 98.4754 364.333 96.3609C367.34 94.2464 369.686 91.2508 371.368 87.3743C373.05 83.4977 373.891 78.9414 373.891 73.7055V73.63C373.891 68.3941 373.025 63.8631 371.291 60.0368C369.609 56.1602 367.264 53.1647 364.256 51.0502C361.299 48.9357 357.858 47.8785 353.933 47.8785C349.854 47.8785 346.311 48.9357 343.303 51.0502C340.346 53.1144 338.052 56.0596 336.421 59.8858C334.84 63.712 334.05 68.2934 334.05 73.63V73.7055C334.05 78.9918 334.84 83.5732 336.421 87.4498C338.052 91.3263 340.346 94.3219 343.303 96.4364C346.311 98.5005 349.854 99.5326 353.933 99.5326ZM245.449 110.298C251.289 113.644 258.17 115.317 266.092 115.317C274.014 115.317 280.895 113.644 286.735 110.298C292.575 106.953 297.094 102.162 300.294 95.9268C303.544 89.6409 305.169 82.1383 305.169 73.4191V73.2671C305.169 64.5986 303.544 57.1467 300.294 50.9114C297.044 44.6762 292.473 39.8857 286.583 36.54C280.743 33.1435 273.887 31.4453 266.016 31.4453C258.196 31.4453 251.365 33.1435 245.526 36.54C239.686 39.8857 235.141 44.7015 231.891 50.9875C228.641 57.2227 227.016 64.6492 227.016 73.2671V73.4191C227.016 82.0876 228.615 89.5649 231.814 95.8508C235.065 102.086 239.609 106.902 245.449 110.298ZM276.604 96.9154C273.659 98.9938 270.18 100.033 266.168 100.033C262.157 100.033 258.653 98.9938 255.657 96.9154C252.711 94.8369 250.401 91.8207 248.725 87.8666C247.1 83.8619 246.287 79.0461 246.287 73.4191V73.2671C246.287 67.6908 247.1 62.9257 248.725 58.9716C250.401 55.0176 252.711 52.0013 255.657 49.9229C258.653 47.8445 262.106 46.8053 266.016 46.8053C270.028 46.8053 273.506 47.8445 276.452 49.9229C279.448 52.0013 281.758 55.0176 283.383 58.9716C285.008 62.9257 285.821 67.6908 285.821 73.2671V73.4191C285.821 79.0461 285.008 83.8619 283.383 87.8666C281.809 91.8207 279.549 94.8369 276.604 96.9154ZM179.375 113.411V33.1119H198.251V46.9748H198.708C199.926 42.1266 202.133 38.3389 205.33 35.6118C208.578 32.8341 212.536 31.4453 217.204 31.4453C218.371 31.4453 219.487 31.5211 220.553 31.6726C221.619 31.8241 222.507 32.0008 223.217 32.2028V49.2474C222.456 48.9444 221.365 48.6919 219.944 48.4899C218.574 48.2879 217.077 48.1869 215.453 48.1869C211.901 48.1869 208.831 48.9192 206.243 50.3837C203.656 51.7978 201.677 53.8936 200.307 56.6713C198.936 59.4489 198.251 62.8326 198.251 66.8223V113.411H179.375ZM139.724 109.826C143.842 113.486 150.094 115.316 158.481 115.316C160.463 115.316 162.243 115.24 163.818 115.087C165.445 114.935 166.817 114.782 167.936 114.63V100.372C167.275 100.423 166.563 100.499 165.801 100.6C165.089 100.651 164.25 100.677 163.285 100.677C159.879 100.677 157.286 99.9397 155.507 98.4656C153.779 96.9406 152.915 94.2212 152.915 90.3072V47.5326H167.936V32.8932H152.915V12.3828H133.625V32.8932H122.188V47.5326H133.625V91.8321C133.625 100.168 135.658 106.167 139.724 109.826ZM40.2188 113.411V33.1119H59.2482V45.687H59.7086C61.8059 41.3438 64.9263 37.8844 69.0698 35.3087C73.2645 32.7331 78.4311 31.4453 84.5696 31.4453C93.5216 31.4453 100.427 34.1219 105.287 39.4752C110.198 44.8285 112.653 52.1513 112.653 61.4437V113.411H93.5472V65.2314C93.5472 59.5247 92.1916 55.1309 89.4804 52.0503C86.7692 48.9191 82.7024 47.3536 77.2801 47.3536C73.6481 47.3536 70.4765 48.1869 67.7654 49.8534C65.0542 51.4695 62.9569 53.7421 61.4734 56.6713C59.9899 59.5499 59.2482 62.9336 59.2482 66.8223V113.411H40.2188ZM4 4.75781V113.41H23.0617V4.75781H4Z" fill="url(#paint0_linear_3719_219)"/>
<defs>
<linearGradient id="paint0_linear_3719_219" x1="731.5" y1="-28.1511" x2="1158.08" y2="661.196" gradientUnits="userSpaceOnUse">
<stop stop-color="white"/>
<stop offset="1" stop-color="#D2D2D2"/>
</linearGradient>
</defs>
</svg>
