<svg width="167" height="167" viewBox="0 0 167 167" fill="none" xmlns="http://www.w3.org/2000/svg">
<path d="M0.292969 43.68C0.292969 28.3906 0.292969 20.7458 3.26849 14.9061C5.88583 9.76923 10.0622 5.59286 15.199 2.97552C21.0388 0 28.6835 0 43.973 0L123.143 0C138.432 0 146.077 0 151.917 2.97552C157.054 5.59286 161.23 9.76923 163.847 14.9061C166.823 20.7458 166.823 28.3906 166.823 43.68L166.823 122.85C166.823 138.139 166.823 145.784 163.847 151.624C161.23 156.761 157.054 160.937 151.917 163.554C146.077 166.53 138.432 166.53 123.143 166.53L43.973 166.53C28.6836 166.53 21.0388 166.53 15.199 163.554C10.0622 160.937 5.88583 156.761 3.26849 151.624C0.292969 145.784 0.292969 138.139 0.292969 122.85L0.292969 43.68Z" fill="url(#paint0_linear_1389_18109)"/>
<path d="M164.093 43.68L164.093 122.85C164.093 130.54 164.091 136.143 163.73 140.558C163.372 144.942 162.674 147.914 161.415 150.385C159.059 155.008 155.301 158.766 150.678 161.122C148.207 162.381 145.235 163.079 140.851 163.437C136.436 163.798 130.833 163.8 123.143 163.8L43.973 163.8C36.2832 163.8 30.6801 163.798 26.2647 163.437C21.8812 163.079 18.9093 162.381 16.4384 161.122C11.8153 158.766 8.05655 155.008 5.70094 150.385C4.44195 147.914 3.74399 144.942 3.38584 140.558C3.02509 136.143 3.02297 130.54 3.02297 122.85L3.02297 43.68C3.02297 35.9903 3.02509 30.3871 3.38584 25.9717C3.74399 21.5882 4.44195 18.6164 5.70094 16.1455C8.05655 11.5223 11.8153 7.76358 16.4384 5.40797C18.9093 4.14898 21.8812 3.45102 26.2647 3.09287C30.6801 2.73212 36.2832 2.73 43.973 2.73L123.143 2.73C130.833 2.73 136.436 2.73212 140.851 3.09287C145.235 3.45102 148.207 4.14898 150.678 5.40797C155.301 7.76358 159.059 11.5223 161.415 16.1455C162.674 18.6164 163.372 21.5882 163.73 25.9717C164.091 30.3871 164.093 35.9902 164.093 43.68Z" stroke="#7289DA" stroke-opacity="0.5" stroke-width="5.46"/>
<path d="M120.055 57.0766C108.181 48.2235 96.8025 48.4707 96.8025 48.4707L95.6405 49.7977C109.761 54.0194 116.321 60.225 116.321 60.225C107.685 55.5935 99.2113 53.2713 91.3255 52.3606C85.3458 51.6971 79.6142 51.8663 74.5484 52.5232C74.0523 52.5232 73.6345 52.6078 73.1384 52.6859C70.2334 53.0176 63.1701 54.0129 54.2855 57.8963C51.2108 59.2232 49.3829 60.212 49.3829 60.212C49.3829 60.212 56.1916 53.6746 71.1408 49.453L70.3118 48.4577C70.3118 48.4577 59.0183 48.2105 47.0589 57.0636C47.0589 57.0636 35.0996 78.4971 35.0996 104.894C35.0996 104.894 42.0781 116.811 60.4283 117.39C60.4283 117.39 63.503 113.747 65.9902 110.605C55.4409 107.463 51.4588 100.926 51.4588 100.926C51.4588 100.926 52.2879 101.505 53.7828 102.331C53.8677 102.331 53.946 102.415 54.1157 102.493C54.3638 102.656 54.6119 102.741 54.8599 102.91C56.9358 104.068 59.0117 104.978 60.9245 105.726C64.3321 107.131 68.399 108.374 73.1319 109.285C79.3596 110.442 86.671 110.859 94.6417 109.369C98.5454 108.627 102.534 107.548 106.686 105.811C109.591 104.738 112.829 103.163 116.236 100.926C116.236 100.926 112.085 107.626 101.202 110.69C103.696 113.753 106.686 117.311 106.686 117.311C125.036 116.733 132.015 104.816 132.015 104.9C132.015 78.5036 120.055 57.0701 120.055 57.0701V57.0766ZM68.0661 97.2115C63.4182 97.2115 59.5927 93.159 59.5927 88.1112C59.5927 83.0635 63.3268 79.011 68.0661 79.011C72.8055 79.011 76.6178 83.0635 76.5395 88.1112C76.5395 93.159 72.8055 97.2115 68.0661 97.2115ZM98.3757 97.2115C93.7278 97.2115 89.9023 93.159 89.9023 88.1112C89.9023 83.0635 93.6364 79.011 98.3757 79.011C103.115 79.011 106.849 83.0635 106.849 88.1112C106.849 93.159 103.115 97.2115 98.3757 97.2115Z" fill="#7289DA"/>
<defs>
<linearGradient id="paint0_linear_1389_18109" x1="75.3006" y1="6.85062" x2="127.727" y2="165.536" gradientUnits="userSpaceOnUse">
<stop stop-color="white"/>
<stop offset="1" stop-color="#D7D7D7"/>
</linearGradient>
</defs>
</svg>
