<?xml version="1.0" encoding="utf-8"?>
<!-- Generator: Adobe Illustrator 26.3.1, SVG Export Plug-In . SVG Version: 6.00 Build 0)  -->
<svg version="1.1" id="Layer_1" xmlns="http://www.w3.org/2000/svg" xmlns:xlink="http://www.w3.org/1999/xlink" x="0px" y="0px"
	 viewBox="0 0 178 178" style="enable-background:new 0 0 178 178;" xml:space="preserve">
<style type="text/css">
	.st0{fill:url(#SVGID_1_);}
	.st1{fill:none;stroke:#24292F;stroke-width:5.46;stroke-opacity:0.5;}
	.st2{fill-rule:evenodd;clip-rule:evenodd;fill:#24292F;}
</style>
<linearGradient id="SVGID_1_" gradientUnits="userSpaceOnUse" x1="65.455" y1="161.4793" x2="117.8807" y2="2.7939" gradientTransform="matrix(1 0 0 -1 0 178.89)">
	<stop  offset="0" style="stop-color:#FFFFFF"/>
	<stop  offset="1" style="stop-color:#D7D7D7"/>
</linearGradient>
<path class="st0" d="M5.8,49.2c0-15.3,0-22.9,3-28.8c2.6-5.1,6.8-9.3,11.9-11.9c5.8-3,13.5-3,28.8-3h79.2c15.3,0,22.9,0,28.8,3
	c5.1,2.6,9.3,6.8,11.9,11.9c3,5.8,3,13.5,3,28.8v79.2c0,15.3,0,22.9-3,28.8c-2.6,5.1-6.8,9.3-11.9,11.9c-5.8,3-13.5,3-28.8,3H49.4
	c-15.3,0-22.9,0-28.8-3c-5.1-2.6-9.3-6.8-11.9-11.9c-3-5.8-3-13.5-3-28.8V49.2z"/>
<path class="st1" d="M169.6,49.2v79.2c0,7.7,0,13.3-0.4,17.7c-0.4,4.4-1.1,7.4-2.3,9.8c-2.4,4.6-6.1,8.4-10.7,10.7
	c-2.5,1.3-5.4,2-9.8,2.3c-4.4,0.4-10,0.4-17.7,0.4H49.4c-7.7,0-13.3,0-17.7-0.4c-4.4-0.4-7.4-1.1-9.8-2.3
	c-4.6-2.4-8.4-6.1-10.7-10.7c-1.3-2.5-2-5.4-2.3-9.8c-0.4-4.4-0.4-10-0.4-17.7V49.2c0-7.7,0-13.3,0.4-17.7c0.4-4.4,1.1-7.4,2.3-9.8
	c2.4-4.6,6.1-8.4,10.7-10.7c2.5-1.3,5.4-2,9.8-2.3c4.4-0.4,10-0.4,17.7-0.4h79.2c7.7,0,13.3,0,17.7,0.4c4.4,0.4,7.4,1.1,9.8,2.3
	c4.6,2.4,8.4,6.1,10.7,10.7c1.3,2.5,2,5.4,2.3,9.8C169.6,35.9,169.6,41.5,169.6,49.2z"/>
<path class="st2" d="M88.7,43c-25.5,0-46.1,20.8-46.1,46.5c0,20.6,13.2,38,31.5,44.1c2.3,0.5,3.1-1,3.1-2.2c0-1.1-0.1-4.8-0.1-8.6
	c-12.8,2.8-15.5-5.5-15.5-5.5c-2.1-5.4-5.1-6.8-5.1-6.8c-4.2-2.9,0.3-2.9,0.3-2.9c4.7,0.3,7.1,4.8,7.1,4.8
	c4.1,7.1,10.8,5.1,13.4,3.9c0.4-3,1.6-5.1,2.9-6.2c-10.2-1.1-21-5.1-21-23c0-5.1,1.8-9.2,4.7-12.5c-0.5-1.2-2.1-5.9,0.5-12.3
	c0,0,3.9-1.2,12.7,4.8c3.8-1,7.6-1.5,11.5-1.5c3.9,0,7.9,0.5,11.5,1.5c8.8-6,12.7-4.8,12.7-4.8c2.5,6.4,0.9,11.2,0.5,12.3
	c3,3.2,4.7,7.4,4.7,12.5c0,17.9-10.8,21.8-21.1,23c1.7,1.5,3.1,4.2,3.1,8.6c0,6.2-0.1,11.2-0.1,12.8c0,1.2,0.8,2.7,3.1,2.2
	c18.3-6.2,31.5-23.6,31.5-44.1C134.8,63.8,114.1,43,88.7,43z"/>
</svg>
