<svg width="168" height="167" viewBox="0 0 168 167" fill="none" xmlns="http://www.w3.org/2000/svg">
<path d="M0.763672 43.68C0.763672 28.3906 0.763672 20.7458 3.73919 14.9061C6.35654 9.76923 10.5329 5.59286 15.6697 2.97552C21.5095 0 29.1542 0 44.4437 0L123.614 0C138.903 0 146.548 0 152.388 2.97552C157.524 5.59286 161.701 9.76923 164.318 14.9061C167.294 20.7458 167.294 28.3906 167.294 43.68L167.294 122.85C167.294 138.139 167.294 145.784 164.318 151.624C161.701 156.761 157.524 160.937 152.388 163.554C146.548 166.53 138.903 166.53 123.614 166.53L44.4437 166.53C29.1543 166.53 21.5095 166.53 15.6697 163.554C10.5329 160.937 6.35654 156.761 3.73919 151.624C0.763672 145.784 0.763672 138.139 0.763672 122.85L0.763672 43.68Z" fill="url(#paint0_linear_1389_18106)"/>
<path d="M164.564 43.68L164.564 122.85C164.564 130.54 164.562 136.143 164.201 140.558C163.843 144.942 163.145 147.914 161.886 150.385C159.53 155.008 155.771 158.766 151.148 161.122C148.677 162.381 145.705 163.079 141.322 163.437C136.907 163.798 131.303 163.8 123.614 163.8L44.4437 163.8C36.7539 163.8 31.1508 163.798 26.7354 163.437C22.3519 163.079 19.38 162.381 16.9091 161.122C12.286 158.766 8.52725 155.008 6.17164 150.385C4.91266 147.914 4.21469 144.942 3.85655 140.558C3.4958 136.143 3.49367 130.54 3.49367 122.85L3.49367 43.68C3.49367 35.9903 3.4958 30.3871 3.85655 25.9717C4.21469 21.5882 4.91266 18.6164 6.17164 16.1455C8.52725 11.5223 12.286 7.76358 16.9091 5.40797C19.38 4.14898 22.3519 3.45102 26.7354 3.09287C31.1508 2.73212 36.7539 2.73 44.4437 2.73L123.614 2.73C131.303 2.73 136.907 2.73212 141.322 3.09287C145.705 3.45102 148.677 4.14898 151.148 5.40797C155.771 7.76358 159.53 11.5223 161.886 16.1455C163.145 18.6164 163.843 21.5882 164.201 25.9717C164.562 30.3871 164.564 35.9902 164.564 43.68Z" stroke="#24292F" stroke-opacity="0.5" stroke-width="5.46"/>
<path fill-rule="evenodd" clip-rule="evenodd" d="M83.7266 37.5391C58.23 37.5391 37.6191 58.3411 37.6191 84.0758C37.6191 104.646 50.8252 122.059 69.1456 128.223C71.436 128.686 72.2752 127.221 72.2752 125.99C72.2752 124.911 72.1998 121.213 72.1998 117.36C59.3741 120.134 56.7033 111.812 56.7033 111.812C54.6423 106.419 51.5881 105.033 51.5881 105.033C47.3899 102.182 51.8938 102.182 51.8938 102.182C56.5501 102.49 58.9937 106.959 58.9937 106.959C63.115 114.047 69.7569 112.044 72.4284 110.811C72.8096 107.806 74.0321 105.726 75.3294 104.571C65.0998 103.492 54.3367 99.4854 54.3367 81.6105C54.3367 76.5251 56.1675 72.365 59.0685 69.1295C58.6104 67.9743 57.0075 63.1959 59.5273 56.8019C59.5273 56.8019 63.4207 55.5689 72.1983 61.5789C75.9562 60.5601 79.8325 60.0419 83.7259 60.0374C87.6193 60.0374 91.5874 60.5772 95.252 61.5789C104.031 55.5689 107.924 56.8019 107.924 56.8019C110.444 63.1966 108.839 67.9743 108.382 69.1295C111.36 72.365 113.115 76.5251 113.115 81.6105C113.115 99.4862 102.352 103.414 92.0462 104.571C93.7261 106.034 95.1758 108.808 95.1758 113.199C95.1758 119.44 95.1003 124.448 95.1003 125.989C95.1003 127.222 95.9403 128.686 98.23 128.224C116.55 122.059 129.756 104.647 129.756 84.0765C129.833 58.3411 109.146 37.5391 83.7266 37.5391Z" fill="#24292F"/>
<defs>
<linearGradient id="paint0_linear_1389_18106" x1="75.7713" y1="6.85062" x2="128.197" y2="165.536" gradientUnits="userSpaceOnUse">
<stop stop-color="white"/>
<stop offset="1" stop-color="#D7D7D7"/>
</linearGradient>
</defs>
</svg>
