<?xml version="1.0" encoding="utf-8"?>
<!-- Generator: Adobe Illustrator 26.3.1, SVG Export Plug-In . SVG Version: 6.00 Build 0)  -->
<svg version="1.1" id="Layer_1" xmlns="http://www.w3.org/2000/svg" xmlns:xlink="http://www.w3.org/1999/xlink" x="0px" y="0px"
	 viewBox="0 0 166.5 166.5" style="enable-background:new 0 0 166.5 166.5;" xml:space="preserve">
<style type="text/css">
	.st0{fill:url(#SVGID_1_);}
	.st1{fill:none;stroke:url(#SVGID_00000026136744353500461970000001080337948434673076_);stroke-width:5.46;stroke-opacity:0.7;}
	.st2{clip-path:url(#SVGID_00000118373177519961633500000018343549055677094808_);}
	.st3{fill:url(#SVGID_00000063626095453601492080000005275515018871175840_);}
	.st4{fill:url(#SVGID_00000144325129463929291380000016025147712217688462_);}
	.st5{fill:url(#SVGID_00000068678431575622123510000016961639045309151133_);}
	.st6{fill:url(#SVGID_00000093134591514564974990000002712390198877982363_);}
	.st7{fill:#FFFFFF;}
</style>
<g>
	
		<linearGradient id="SVGID_1_" gradientUnits="userSpaceOnUse" x1="59.6911" y1="155.9792" x2="112.1171" y2="-2.7062" gradientTransform="matrix(1 0 0 -1 0 167.89)">
		<stop  offset="0" style="stop-color:#FFFFFF"/>
		<stop  offset="1" style="stop-color:#D7D7D7"/>
	</linearGradient>
	<path class="st0" d="M0,43.7c0-15.3,0-22.9,3-28.8C5.6,9.8,9.8,5.6,14.9,3c5.8-3,13.5-3,28.8-3h79.2c15.3,0,22.9,0,28.8,3
		c5.1,2.6,9.3,6.8,11.9,11.9c3,5.8,3,13.5,3,28.8v79.2c0,15.3,0,22.9-3,28.8c-2.6,5.1-6.8,9.3-11.9,11.9c-5.8,3-13.5,3-28.8,3H43.7
		c-15.3,0-22.9,0-28.8-3c-5.1-2.6-9.3-6.8-11.9-11.9c-3-5.8-3-13.5-3-28.8V43.7z"/>
</g>
<linearGradient id="SVGID_00000094577024066339420670000001209892464590632073_" gradientUnits="userSpaceOnUse" x1="100.3275" y1="170.62" x2="66.2025" y2="-1.37" gradientTransform="matrix(1 0 0 -1 0 167.89)">
	<stop  offset="0" style="stop-color:#7F0CFD"/>
	<stop  offset="0.505" style="stop-color:#FE0586"/>
	<stop  offset="1" style="stop-color:#FFC201"/>
</linearGradient>
<path style="fill:none;stroke:url(#SVGID_00000094577024066339420670000001209892464590632073_);stroke-width:5.46;stroke-opacity:0.7;" d="
	M163.8,43.7v79.2c0,7.7,0,13.3-0.4,17.7c-0.4,4.4-1.1,7.4-2.3,9.8c-2.4,4.6-6.1,8.4-10.7,10.7c-2.5,1.3-5.4,2-9.8,2.3
	c-4.4,0.4-10,0.4-17.7,0.4H43.7c-7.7,0-13.3,0-17.7-0.4c-4.4-0.4-7.4-1.1-9.8-2.3c-4.6-2.4-8.4-6.1-10.7-10.7
	c-1.3-2.5-2-5.4-2.3-9.8c-0.4-4.4-0.4-10-0.4-17.7V43.7c0-7.7,0-13.3,0.4-17.7c0.4-4.4,1.1-7.4,2.3-9.8c2.4-4.6,6.1-8.4,10.7-10.7
	c2.5-1.3,5.4-2,9.8-2.3c4.4-0.4,10-0.4,17.7-0.4h79.2c7.7,0,13.3,0,17.7,0.4c4.4,0.4,7.4,1.1,9.8,2.3c4.6,2.4,8.4,6.1,10.7,10.7
	c1.3,2.5,2,5.4,2.3,9.8C163.8,30.4,163.8,36,163.8,43.7z"/>
<g>
	<defs>
		<rect id="SVGID_00000028325317367095660880000005889454397119089302_" x="39.6" y="39.6" width="87.4" height="87.4"/>
	</defs>
	<clipPath id="SVGID_00000078765572509081702050000005601109783515335333_">
		<use xlink:href="#SVGID_00000028325317367095660880000005889454397119089302_"  style="overflow:visible;"/>
	</clipPath>
	<g style="clip-path:url(#SVGID_00000078765572509081702050000005601109783515335333_);">
		
			<radialGradient id="SVGID_00000034774409529619562400000007481576076746789041_" cx="-190.5005" cy="514.579" r="1" gradientTransform="matrix(-53.6994 15.1448 10.9117 38.69 -15720.4277 -16943.5684)" gradientUnits="userSpaceOnUse">
			<stop  offset="0" style="stop-color:#FF005F"/>
			<stop  offset="1" style="stop-color:#FC01D8"/>
		</radialGradient>
		<path style="fill:url(#SVGID_00000034774409529619562400000007481576076746789041_);" d="M83.3,39.6c-18.2,0-23.6,0-24.6,0.1
			c-3.7,0.3-6.1,0.9-8.6,2.2c-2,1-3.5,2.1-5,3.7c-2.8,2.9-4.5,6.4-5.1,10.6c-0.3,2-0.4,2.5-0.4,12.9c0,3.5,0,8.1,0,14.2
			c0,18.2,0,23.6,0.1,24.6c0.3,3.6,0.9,5.9,2.1,8.4c2.3,4.8,6.7,8.4,11.9,9.7c1.8,0.5,3.8,0.7,6.3,0.8c1.1,0,12.1,0.1,23.1,0.1
			c11,0,22.1,0,23.1-0.1c3-0.1,4.7-0.4,6.6-0.9c5.2-1.3,9.6-4.9,11.9-9.8c1.2-2.4,1.8-4.8,2.1-8.3c0.1-0.8,0.1-12.8,0.1-24.7
			c0-12,0-24-0.1-24.7c-0.3-3.5-0.9-5.9-2.1-8.4c-1-2-2.1-3.6-3.7-5.1c-2.9-2.8-6.4-4.4-10.6-5c-2-0.3-2.4-0.4-12.9-0.4H83.3
			L83.3,39.6z"/>
		
			<radialGradient id="SVGID_00000147190236683765935630000016913937249210392233_" cx="-192.832" cy="501.6466" r="1" gradientTransform="matrix(4.270515e-15 -69.7428 -73.9959 -4.530942e-15 37182.4922 -13315.0527)" gradientUnits="userSpaceOnUse">
			<stop  offset="0" style="stop-color:#FFCC00"/>
			<stop  offset="0.12" style="stop-color:#FFCC00"/>
			<stop  offset="0.57" style="stop-color:#FE4A05"/>
			<stop  offset="0.69" style="stop-color:#FF0F3F"/>
			<stop  offset="1" style="stop-color:#FE0657;stop-opacity:0"/>
		</radialGradient>
		<path style="fill:url(#SVGID_00000147190236683765935630000016913937249210392233_);" d="M83.3,39.6c-18.2,0-23.6,0-24.6,0.1
			c-3.7,0.3-6.1,0.9-8.6,2.2c-2,1-3.5,2.1-5,3.7c-2.8,2.9-4.5,6.4-5.1,10.6c-0.3,2-0.4,2.5-0.4,12.9c0,3.5,0,8.1,0,14.2
			c0,18.2,0,23.6,0.1,24.6c0.3,3.6,0.9,5.9,2.1,8.4c2.3,4.8,6.7,8.4,11.9,9.7c1.8,0.5,3.8,0.7,6.3,0.8c1.1,0,12.1,0.1,23.1,0.1
			c11,0,22.1,0,23.1-0.1c3-0.1,4.7-0.4,6.6-0.9c5.2-1.3,9.6-4.9,11.9-9.8c1.2-2.4,1.8-4.8,2.1-8.3c0.1-0.8,0.1-12.8,0.1-24.7
			c0-12,0-24-0.1-24.7c-0.3-3.5-0.9-5.9-2.1-8.4c-1-2-2.1-3.6-3.7-5.1c-2.9-2.8-6.4-4.4-10.6-5c-2-0.3-2.4-0.4-12.9-0.4H83.3
			L83.3,39.6z"/>
		
			<radialGradient id="SVGID_00000114768367555424617670000004530404406748392869_" cx="-193.9278" cy="494.8529" r="1" gradientTransform="matrix(14.4798 -24.9488 -32.4629 -18.8408 18957.9297 4610.8247)" gradientUnits="userSpaceOnUse">
			<stop  offset="0" style="stop-color:#FFCC00"/>
			<stop  offset="1" style="stop-color:#FFCC00;stop-opacity:0"/>
		</radialGradient>
		<path style="fill:url(#SVGID_00000114768367555424617670000004530404406748392869_);" d="M83.3,39.6c-18.2,0-23.6,0-24.6,0.1
			c-3.7,0.3-6.1,0.9-8.6,2.2c-2,1-3.5,2.1-5,3.7c-2.8,2.9-4.5,6.4-5.1,10.6c-0.3,2-0.4,2.5-0.4,12.9c0,3.5,0,8.1,0,14.2
			c0,18.2,0,23.6,0.1,24.6c0.3,3.6,0.9,5.9,2.1,8.4c2.3,4.8,6.7,8.4,11.9,9.7c1.8,0.5,3.8,0.7,6.3,0.8c1.1,0,12.1,0.1,23.1,0.1
			c11,0,22.1,0,23.1-0.1c3-0.1,4.7-0.4,6.6-0.9c5.2-1.3,9.6-4.9,11.9-9.8c1.2-2.4,1.8-4.8,2.1-8.3c0.1-0.8,0.1-12.8,0.1-24.7
			c0-12,0-24-0.1-24.7c-0.3-3.5-0.9-5.9-2.1-8.4c-1-2-2.1-3.6-3.7-5.1c-2.9-2.8-6.4-4.4-10.6-5c-2-0.3-2.4-0.4-12.9-0.4H83.3
			L83.3,39.6z"/>
		
			<radialGradient id="SVGID_00000161591981778655617260000012149778733768608433_" cx="-190.5298" cy="525.5931" r="1" gradientTransform="matrix(-53.1349 14.9656 5.0997 18.1064 -12752.6826 -6622.0122)" gradientUnits="userSpaceOnUse">
			<stop  offset="0" style="stop-color:#780CFF"/>
			<stop  offset="1" style="stop-color:#820BFF;stop-opacity:0"/>
		</radialGradient>
		<path style="fill:url(#SVGID_00000161591981778655617260000012149778733768608433_);" d="M83.3,39.6c-18.2,0-23.6,0-24.6,0.1
			c-3.7,0.3-6.1,0.9-8.6,2.2c-2,1-3.5,2.1-5,3.7c-2.8,2.9-4.5,6.4-5.1,10.6c-0.3,2-0.4,2.5-0.4,12.9c0,3.5,0,8.1,0,14.2
			c0,18.2,0,23.6,0.1,24.6c0.3,3.6,0.9,5.9,2.1,8.4c2.3,4.8,6.7,8.4,11.9,9.7c1.8,0.5,3.8,0.7,6.3,0.8c1.1,0,12.1,0.1,23.1,0.1
			c11,0,22.1,0,23.1-0.1c3-0.1,4.7-0.4,6.6-0.9c5.2-1.3,9.6-4.9,11.9-9.8c1.2-2.4,1.8-4.8,2.1-8.3c0.1-0.8,0.1-12.8,0.1-24.7
			c0-12,0-24-0.1-24.7c-0.3-3.5-0.9-5.9-2.1-8.4c-1-2-2.1-3.6-3.7-5.1c-2.9-2.8-6.4-4.4-10.6-5c-2-0.3-2.4-0.4-12.9-0.4H83.3
			L83.3,39.6z"/>
		<path class="st7" d="M83.3,50.8c-8.8,0-9.9,0-13.4,0.2c-3.5,0.2-5.8,0.7-7.9,1.5c-2.1,0.8-3.9,1.9-5.8,3.7
			c-1.8,1.8-2.9,3.6-3.7,5.7c-0.8,2.1-1.4,4.4-1.5,7.9c-0.2,3.5-0.2,4.6-0.2,13.4s0,9.9,0.2,13.4c0.2,3.5,0.7,5.8,1.5,7.9
			c0.8,2.1,1.9,3.9,3.7,5.8c1.8,1.8,3.6,2.9,5.8,3.7c2.1,0.8,4.4,1.3,7.9,1.5c3.5,0.2,4.6,0.2,13.4,0.2c8.8,0,9.9,0,13.4-0.2
			c3.5-0.2,5.8-0.7,7.9-1.5c2.1-0.8,3.9-1.9,5.8-3.7c1.8-1.8,2.9-3.6,3.7-5.7c0.8-2.1,1.3-4.4,1.5-7.9c0.2-3.5,0.2-4.6,0.2-13.4
			c0-8.8,0-9.9-0.2-13.4c-0.2-3.5-0.7-5.8-1.5-7.9c-0.8-2.1-1.9-3.9-3.7-5.8c-1.8-1.8-3.6-2.9-5.8-3.7c-2.1-0.8-4.4-1.3-7.9-1.5
			C93.2,50.8,92.1,50.8,83.3,50.8L83.3,50.8L83.3,50.8z M80.4,56.7c0.9,0,1.8,0,2.9,0c8.7,0,9.7,0,13.1,0.2c3.2,0.1,4.9,0.7,6,1.1
			c1.5,0.6,2.6,1.3,3.7,2.4c1.1,1.1,1.8,2.2,2.4,3.7c0.4,1.1,1,2.9,1.1,6c0.2,3.4,0.2,4.4,0.2,13.1c0,8.7,0,9.7-0.2,13.1
			c-0.1,3.2-0.7,4.9-1.1,6c-0.6,1.5-1.3,2.6-2.4,3.7c-1.1,1.1-2.2,1.8-3.7,2.4c-1.1,0.4-2.9,1-6,1.1c-3.4,0.2-4.5,0.2-13.1,0.2
			c-8.7,0-9.7,0-13.1-0.2c-3.2-0.1-4.9-0.7-6-1.1c-1.5-0.6-2.6-1.3-3.7-2.4c-1.1-1.1-1.8-2.2-2.4-3.7c-0.4-1.1-1-2.9-1.1-6
			c-0.2-3.4-0.2-4.4-0.2-13.1c0-8.7,0-9.7,0.2-13.1c0.1-3.2,0.7-4.9,1.1-6c0.6-1.5,1.3-2.6,2.4-3.7c1.1-1.1,2.2-1.8,3.7-2.4
			c1.1-0.4,2.9-1,6-1.1C73.2,56.7,74.3,56.6,80.4,56.7L80.4,56.7z M100.6,62c-2.2,0-3.9,1.7-3.9,3.9c0,2.2,1.7,3.9,3.9,3.9
			c2.2,0,3.9-1.7,3.9-3.9C104.5,63.8,102.8,62,100.6,62L100.6,62L100.6,62z M83.3,66.6c-9.2,0-16.7,7.5-16.7,16.7
			c0,9.2,7.5,16.7,16.7,16.7c9.2,0,16.7-7.5,16.7-16.7C100,74.1,92.5,66.6,83.3,66.6L83.3,66.6z M83.3,72.4c6,0,10.8,4.8,10.8,10.8
			c0,6-4.8,10.8-10.8,10.8c-6,0-10.8-4.8-10.8-10.8C72.5,77.3,77.3,72.4,83.3,72.4z"/>
	</g>
</g>
</svg>
