<?xml version="1.0" encoding="utf-8"?>
<!-- Generator: Adobe Illustrator 26.3.1, SVG Export Plug-In . SVG Version: 6.00 Build 0)  -->
<svg version="1.1" id="Layer_1" xmlns="http://www.w3.org/2000/svg" xmlns:xlink="http://www.w3.org/1999/xlink" x="0px" y="0px"
	 viewBox="0 0 178 178" style="enable-background:new 0 0 178 178;" xml:space="preserve">
<style type="text/css">
	.st0{fill:url(#SVGID_1_);}
	.st1{fill:none;stroke:url(#SVGID_00000172410510350773281610000017305310541874301850_);stroke-width:5.46;stroke-opacity:0.7;}
	.st2{clip-path:url(#SVGID_00000144337637276436000260000001873366383595857797_);}
	.st3{fill:url(#SVGID_00000026880558884274567680000010386113152449654689_);}
	.st4{fill:url(#SVGID_00000149366075039526451710000010416574461415294101_);}
	.st5{fill:url(#SVGID_00000044174236448820007060000011046981362114296462_);}
	.st6{fill:url(#SVGID_00000152983853511331479780000015124881829616363422_);}
	.st7{fill:#FFFFFF;}
</style>
<g>
	
		<linearGradient id="SVGID_1_" gradientUnits="userSpaceOnUse" x1="65.4623" y1="691.6538" x2="117.8883" y2="850.3392" gradientTransform="matrix(1 0 0 1 0 -674)">
		<stop  offset="0" style="stop-color:#FFFFFF"/>
		<stop  offset="1" style="stop-color:#D7D7D7"/>
	</linearGradient>
	<path class="st0" d="M5.8,49.4c0-15.3,0-22.9,3-28.8c2.6-5.1,6.8-9.3,11.9-11.9c5.8-3,13.5-3,28.8-3h79.2c15.3,0,22.9,0,28.8,3
		c5.1,2.6,9.3,6.8,11.9,11.9c3,5.8,3,13.5,3,28.8v79.2c0,15.3,0,22.9-3,28.8c-2.6,5.1-6.8,9.3-11.9,11.9c-5.8,3-13.5,3-28.8,3H49.5
		c-15.3,0-22.9,0-28.8-3c-5.1-2.6-9.3-6.8-11.9-11.9c-3-5.8-3-13.5-3-28.8C5.8,128.6,5.8,49.4,5.8,49.4z"/>
</g>
<linearGradient id="SVGID_00000034071266110697967790000012187517841111582876_" gradientUnits="userSpaceOnUse" x1="106.1179" y1="677.028" x2="71.9929" y2="849.018" gradientTransform="matrix(1 0 0 1 0 -674)">
	<stop  offset="0" style="stop-color:#7F0CFD"/>
	<stop  offset="0.505" style="stop-color:#FE0586"/>
	<stop  offset="1" style="stop-color:#FFC201"/>
</linearGradient>
<path style="fill:none;stroke:url(#SVGID_00000034071266110697967790000012187517841111582876_);stroke-width:5.46;stroke-opacity:0.7;" d="
	M169.6,49.4v79.2c0,7.7,0,13.3-0.4,17.7s-1.1,7.4-2.3,9.8c-2.4,4.6-6.1,8.4-10.7,10.7c-2.5,1.3-5.4,2-9.8,2.3
	c-4.4,0.4-10,0.4-17.7,0.4H49.5c-7.7,0-13.3,0-17.7-0.4s-7.4-1.1-9.8-2.3c-4.6-2.4-8.4-6.1-10.7-10.7c-1.3-2.5-2-5.4-2.3-9.8
	c-0.4-4.4-0.4-10-0.4-17.7V49.4c0-7.7,0-13.3,0.4-17.7c0.4-4.4,1.1-7.4,2.3-9.8c2.4-4.6,6.1-8.4,10.7-10.7c2.5-1.3,5.4-2,9.8-2.3
	c4.4-0.4,10-0.4,17.7-0.4h79.2c7.7,0,13.3,0,17.7,0.4c4.4,0.4,7.4,1.1,9.8,2.3c4.6,2.4,8.4,6.1,10.7,10.7c1.3,2.5,2,5.4,2.3,9.8
	C169.6,36.1,169.6,41.7,169.6,49.4z"/>
<g>
	<g>
		<defs>
			<rect id="SVGID_00000013164641242891912380000001835637955412748439_" x="45.3" y="45.3" width="87.4" height="87.4"/>
		</defs>
		<clipPath id="SVGID_00000175291550468177676670000005599366722526476428_">
			<use xlink:href="#SVGID_00000013164641242891912380000001835637955412748439_"  style="overflow:visible;"/>
		</clipPath>
		<g style="clip-path:url(#SVGID_00000175291550468177676670000005599366722526476428_);">
			
				<radialGradient id="SVGID_00000181068995988632314860000008972361007630454702_" cx="-400.7976" cy="-14.4764" r="1" gradientTransform="matrix(-53.6994 15.1448 -10.9117 -38.69 -21550.5391 5596.0571)" gradientUnits="userSpaceOnUse">
				<stop  offset="0" style="stop-color:#FF005F"/>
				<stop  offset="1" style="stop-color:#FC01D8"/>
			</radialGradient>
			<path style="fill:url(#SVGID_00000181068995988632314860000008972361007630454702_);" d="M89.1,45.3c-18.2,0-23.6,0-24.6,0.1
				c-3.7,0.3-6.1,0.9-8.6,2.2c-2,1-3.5,2.1-5,3.7c-2.8,2.9-4.5,6.4-5.1,10.6c-0.3,2-0.4,2.5-0.4,12.9c0,3.5,0,8.1,0,14.2
				c0,18.2,0,23.6,0.1,24.6c0.3,3.6,0.9,5.9,2.1,8.4c2.3,4.8,6.7,8.4,11.9,9.7c1.8,0.5,3.8,0.7,6.3,0.8c1.1,0,12.1,0.1,23.1,0.1
				s22.1,0,23.1-0.1c3-0.1,4.7-0.4,6.6-0.9c5.2-1.3,9.6-4.9,11.9-9.8c1.2-2.4,1.8-4.8,2.1-8.3c0.1-0.8,0.1-12.8,0.1-24.7
				c0-12,0-24-0.1-24.7c-0.3-3.5-0.9-5.9-2.1-8.4c-1-2-2.1-3.6-3.7-5.1c-2.9-2.8-6.4-4.4-10.6-5c-2-0.3-2.4-0.4-12.9-0.4H89.1V45.3z
				"/>
			
				<radialGradient id="SVGID_00000183970839014617657960000010220469333819818420_" cx="-405.9284" cy="10.8854" r="1" gradientTransform="matrix(4.270515e-15 -69.7428 73.9959 4.530942e-15 -737.0298 -28171.2402)" gradientUnits="userSpaceOnUse">
				<stop  offset="0" style="stop-color:#FFCC00"/>
				<stop  offset="0.12" style="stop-color:#FFCC00"/>
				<stop  offset="0.57" style="stop-color:#FE4A05"/>
				<stop  offset="0.69" style="stop-color:#FF0F3F"/>
				<stop  offset="1" style="stop-color:#FE0657;stop-opacity:0"/>
			</radialGradient>
			<path style="fill:url(#SVGID_00000183970839014617657960000010220469333819818420_);" d="M89.1,45.3c-18.2,0-23.6,0-24.6,0.1
				c-3.7,0.3-6.1,0.9-8.6,2.2c-2,1-3.5,2.1-5,3.7c-2.8,2.9-4.5,6.4-5.1,10.6c-0.3,2-0.4,2.5-0.4,12.9c0,3.5,0,8.1,0,14.2
				c0,18.2,0,23.6,0.1,24.6c0.3,3.6,0.9,5.9,2.1,8.4c2.3,4.8,6.7,8.4,11.9,9.7c1.8,0.5,3.8,0.7,6.3,0.8c1.1,0,12.1,0.1,23.1,0.1
				s22.1,0,23.1-0.1c3-0.1,4.7-0.4,6.6-0.9c5.2-1.3,9.6-4.9,11.9-9.8c1.2-2.4,1.8-4.8,2.1-8.3c0.1-0.8,0.1-12.8,0.1-24.7
				c0-12,0-24-0.1-24.7c-0.3-3.5-0.9-5.9-2.1-8.4c-1-2-2.1-3.6-3.7-5.1c-2.9-2.8-6.4-4.4-10.6-5c-2-0.3-2.4-0.4-12.9-0.4H89.1V45.3z
				"/>
			
				<radialGradient id="SVGID_00000042005910370726445220000004038157500474415023_" cx="-408.588" cy="24.2385" r="1" gradientTransform="matrix(14.4798 -24.9488 32.4629 18.8408 5220.7065 -10519.0381)" gradientUnits="userSpaceOnUse">
				<stop  offset="0" style="stop-color:#FFCC00"/>
				<stop  offset="1" style="stop-color:#FFCC00;stop-opacity:0"/>
			</radialGradient>
			<path style="fill:url(#SVGID_00000042005910370726445220000004038157500474415023_);" d="M89.1,45.3c-18.2,0-23.6,0-24.6,0.1
				c-3.7,0.3-6.1,0.9-8.6,2.2c-2,1-3.5,2.1-5,3.7c-2.8,2.9-4.5,6.4-5.1,10.6c-0.3,2-0.4,2.5-0.4,12.9c0,3.5,0,8.1,0,14.2
				c0,18.2,0,23.6,0.1,24.6c0.3,3.6,0.9,5.9,2.1,8.4c2.3,4.8,6.7,8.4,11.9,9.7c1.8,0.5,3.8,0.7,6.3,0.8c1.1,0,12.1,0.1,23.1,0.1
				s22.1,0,23.1-0.1c3-0.1,4.7-0.4,6.6-0.9c5.2-1.3,9.6-4.9,11.9-9.8c1.2-2.4,1.8-4.8,2.1-8.3c0.1-0.8,0.1-12.8,0.1-24.7
				c0-12,0-24-0.1-24.7c-0.3-3.5-0.9-5.9-2.1-8.4c-1-2-2.1-3.6-3.7-5.1c-2.9-2.8-6.4-4.4-10.6-5c-2-0.3-2.4-0.4-12.9-0.4H89.1V45.3z
				"/>
			
				<radialGradient id="SVGID_00000130623676520288549580000000844269450563174559_" cx="-400.8513" cy="-36.3327" r="1" gradientTransform="matrix(-53.1349 14.9656 -5.0997 -18.1064 -21427.2637 5390.0693)" gradientUnits="userSpaceOnUse">
				<stop  offset="0" style="stop-color:#780CFF"/>
				<stop  offset="1" style="stop-color:#820BFF;stop-opacity:0"/>
			</radialGradient>
			<path style="fill:url(#SVGID_00000130623676520288549580000000844269450563174559_);" d="M89.1,45.3c-18.2,0-23.6,0-24.6,0.1
				c-3.7,0.3-6.1,0.9-8.6,2.2c-2,1-3.5,2.1-5,3.7c-2.8,2.9-4.5,6.4-5.1,10.6c-0.3,2-0.4,2.5-0.4,12.9c0,3.5,0,8.1,0,14.2
				c0,18.2,0,23.6,0.1,24.6c0.3,3.6,0.9,5.9,2.1,8.4c2.3,4.8,6.7,8.4,11.9,9.7c1.8,0.5,3.8,0.7,6.3,0.8c1.1,0,12.1,0.1,23.1,0.1
				s22.1,0,23.1-0.1c3-0.1,4.7-0.4,6.6-0.9c5.2-1.3,9.6-4.9,11.9-9.8c1.2-2.4,1.8-4.8,2.1-8.3c0.1-0.8,0.1-12.8,0.1-24.7
				c0-12,0-24-0.1-24.7c-0.3-3.5-0.9-5.9-2.1-8.4c-1-2-2.1-3.6-3.7-5.1c-2.9-2.8-6.4-4.4-10.6-5c-2-0.3-2.4-0.4-12.9-0.4H89.1V45.3z
				"/>
			<path class="st7" d="M89.1,56.5c-8.8,0-9.9,0-13.4,0.2s-5.8,0.7-7.9,1.5s-3.9,1.9-5.8,3.7c-1.8,1.8-2.9,3.6-3.7,5.7
				s-1.4,4.4-1.5,7.9c-0.2,3.5-0.2,4.6-0.2,13.4s0,9.9,0.2,13.4s0.7,5.8,1.5,7.9s1.9,3.9,3.7,5.8c1.8,1.8,3.6,2.9,5.8,3.7
				c2.1,0.8,4.4,1.3,7.9,1.5s4.6,0.2,13.4,0.2s9.9,0,13.4-0.2s5.8-0.7,7.9-1.5s3.9-1.9,5.8-3.7c1.8-1.8,2.9-3.6,3.7-5.7
				c0.8-2.1,1.3-4.4,1.5-7.9s0.2-4.6,0.2-13.4s0-9.9-0.2-13.4s-0.7-5.8-1.5-7.9s-1.9-3.9-3.7-5.8c-1.8-1.8-3.6-2.9-5.8-3.7
				c-2.1-0.8-4.4-1.3-7.9-1.5C98.9,56.5,97.8,56.5,89.1,56.5L89.1,56.5L89.1,56.5z M86.2,62.4c0.9,0,1.8,0,2.9,0
				c8.7,0,9.7,0,13.1,0.2c3.2,0.1,4.9,0.7,6,1.1c1.5,0.6,2.6,1.3,3.7,2.4s1.8,2.2,2.4,3.7c0.4,1.1,1,2.9,1.1,6
				c0.2,3.4,0.2,4.4,0.2,13.1s0,9.7-0.2,13.1c-0.1,3.2-0.7,4.9-1.1,6c-0.6,1.5-1.3,2.6-2.4,3.7s-2.2,1.8-3.7,2.4
				c-1.1,0.4-2.9,1-6,1.1c-3.4,0.2-4.5,0.2-13.1,0.2c-8.7,0-9.7,0-13.1-0.2c-3.2-0.1-4.9-0.7-6-1.1c-1.5-0.6-2.6-1.3-3.7-2.4
				c-1.1-1.1-1.8-2.2-2.4-3.7c-0.4-1.1-1-2.9-1.1-6c-0.2-3.4-0.2-4.4-0.2-13.1s0-9.7,0.2-13.1c0.1-3.2,0.7-4.9,1.1-6
				c0.6-1.5,1.3-2.6,2.4-3.7c1.1-1.1,2.2-1.8,3.7-2.4c1.1-0.4,2.9-1,6-1.1C78.9,62.4,80.1,62.3,86.2,62.4L86.2,62.4z M106.3,67.7
				c-2.2,0-3.9,1.7-3.9,3.9s1.7,3.9,3.9,3.9c2.2,0,3.9-1.7,3.9-3.9C110.2,69.5,108.6,67.7,106.3,67.7L106.3,67.7L106.3,67.7z
				 M89.1,72.3c-9.2,0-16.7,7.5-16.7,16.7s7.5,16.7,16.7,16.7s16.7-7.5,16.7-16.7S98.2,72.3,89.1,72.3L89.1,72.3z M89.1,78.1
				c6,0,10.8,4.8,10.8,10.8s-4.8,10.8-10.8,10.8s-10.8-4.8-10.8-10.8C78.2,83,83.1,78.1,89.1,78.1z"/>
		</g>
	</g>
</g>
</svg>
