<?xml version="1.0" encoding="utf-8"?>
<!-- Generator: Adobe Illustrator 26.3.1, SVG Export Plug-In . SVG Version: 6.00 Build 0)  -->
<svg version="1.1" id="Layer_1" xmlns="http://www.w3.org/2000/svg" xmlns:xlink="http://www.w3.org/1999/xlink" x="0px" y="0px"
	 viewBox="0 0 178 178" style="enable-background:new 0 0 178 178;" xml:space="preserve">
<style type="text/css">
	.st0{fill:url(#SVGID_1_);}
	.st1{fill:none;stroke:#006699;stroke-width:5.46;stroke-opacity:0.5;}
	.st2{fill:#006699;}
	.st3{fill-rule:evenodd;clip-rule:evenodd;fill:#FFFFFF;}
</style>
<linearGradient id="SVGID_1_" gradientUnits="userSpaceOnUse" x1="65.2499" y1="161.4793" x2="117.6757" y2="2.7939" gradientTransform="matrix(1 0 0 -1 0 178.89)">
	<stop  offset="0" style="stop-color:#FFFFFF"/>
	<stop  offset="1" style="stop-color:#D7D7D7"/>
</linearGradient>
<path class="st0" d="M5.6,49.2c0-15.3,0-22.9,3-28.8c2.6-5.1,6.8-9.3,11.9-11.9c5.8-3,13.5-3,28.8-3h79.2c15.3,0,22.9,0,28.8,3
	c5.1,2.6,9.3,6.8,11.9,11.9c3,5.8,3,13.5,3,28.8v79.2c0,15.3,0,22.9-3,28.8c-2.6,5.1-6.8,9.3-11.9,11.9c-5.8,3-13.5,3-28.8,3H49.2
	c-15.3,0-22.9,0-28.8-3c-5.1-2.6-9.3-6.8-11.9-11.9c-3-5.8-3-13.5-3-28.8V49.2z"/>
<path class="st1" d="M169.4,49.2v79.2c0,7.7,0,13.3-0.4,17.7c-0.4,4.4-1.1,7.4-2.3,9.8c-2.4,4.6-6.1,8.4-10.7,10.7
	c-2.5,1.3-5.4,2-9.8,2.3c-4.4,0.4-10,0.4-17.7,0.4H49.2c-7.7,0-13.3,0-17.7-0.4c-4.4-0.4-7.4-1.1-9.8-2.3
	c-4.6-2.4-8.4-6.1-10.7-10.7c-1.3-2.5-2-5.4-2.3-9.8c-0.4-4.4-0.4-10-0.4-17.7V49.2c0-7.7,0-13.3,0.4-17.7c0.4-4.4,1.1-7.4,2.3-9.8
	c2.4-4.6,6.1-8.4,10.7-10.7c2.5-1.3,5.4-2,9.8-2.3c4.4-0.4,10-0.4,17.7-0.4h79.2c7.7,0,13.3,0,17.7,0.4c4.4,0.4,7.4,1.1,9.8,2.3
	c4.6,2.4,8.4,6.1,10.7,10.7c1.3,2.5,2,5.4,2.3,9.8C169.4,35.9,169.4,41.5,169.4,49.2z"/>
<path class="st2" d="M45.8,52c0-3.4,2.8-6.2,6.4-6.2h73.3c3.5,0,6.4,2.8,6.4,6.2v74.1c0,3.4-2.8,6.2-6.4,6.2H52.2
	c-3.5,0-6.4-2.8-6.4-6.2V52z"/>
<path class="st3" d="M71.9,118.2V79.1h-13v39.1H71.9z M65.4,73.8c4.5,0,7.3-3,7.3-6.8c-0.1-3.8-2.8-6.8-7.3-6.8s-7.3,2.9-7.3,6.8
	C58.1,70.9,60.9,73.8,65.4,73.8L65.4,73.8L65.4,73.8z"/>
<path class="st3" d="M79.1,118.2h13V96.4c0-1.2,0.1-2.3,0.4-3.2c0.9-2.3,3.1-4.8,6.7-4.8c4.7,0,6.6,3.6,6.6,8.8v20.9h13V95.8
	c0-12-6.4-17.6-15-17.6c-7,0-10.1,3.9-11.8,6.6h0.1v-5.7h-13C79.3,82.8,79.1,118.2,79.1,118.2z"/>
</svg>
