<svg width="167" height="167" viewBox="0 0 167 167" fill="none" xmlns="http://www.w3.org/2000/svg">
<path d="M0.0585937 43.68C0.0585937 28.3906 0.0585937 20.7458 3.03412 14.9061C5.65146 9.76923 9.82783 5.59286 14.9647 2.97552C20.8044 0 28.4492 0 43.7386 0L122.909 0C138.198 0 145.843 0 151.683 2.97552C156.819 5.59286 160.996 9.76923 163.613 14.9061C166.589 20.7458 166.589 28.3906 166.589 43.68L166.589 122.85C166.589 138.139 166.589 145.784 163.613 151.624C160.996 156.761 156.819 160.937 151.683 163.554C145.843 166.53 138.198 166.53 122.909 166.53L43.7386 166.53C28.4492 166.53 20.8044 166.53 14.9647 163.554C9.82783 160.937 5.65146 156.761 3.03412 151.624C0.0585937 145.784 0.0585937 138.139 0.0585937 122.85L0.0585937 43.68Z" fill="url(#paint0_linear_1389_18050)"/>
<path d="M163.859 43.68L163.859 122.85C163.859 130.54 163.856 136.143 163.496 140.558C163.138 144.942 162.44 147.914 161.181 150.385C158.825 155.008 155.066 158.766 150.443 161.122C147.972 162.381 145 163.079 140.617 163.437C136.201 163.798 130.598 163.8 122.909 163.8L43.7386 163.8C36.0489 163.8 30.4457 163.798 26.0303 163.437C21.6468 163.079 18.6749 162.381 16.204 161.122C11.5809 158.766 7.82217 155.008 5.46656 150.385C4.20758 147.914 3.50961 144.942 3.15147 140.558C2.79072 136.143 2.78859 130.54 2.78859 122.85L2.78859 43.68C2.78859 35.9903 2.79072 30.3871 3.15147 25.9717C3.50961 21.5882 4.20758 18.6164 5.46656 16.1455C7.82217 11.5223 11.5809 7.76358 16.204 5.40797C18.6749 4.14898 21.6468 3.45102 26.0303 3.09287C30.4457 2.73212 36.0488 2.73 43.7386 2.73L122.909 2.73C130.598 2.73 136.201 2.73212 140.617 3.09287C145 3.45102 147.972 4.14898 150.443 5.40797C155.066 7.76358 158.825 11.5223 161.181 16.1455C162.44 18.6164 163.138 21.5882 163.496 25.9717C163.856 30.3871 163.859 35.9902 163.859 43.68Z" stroke="#006699" stroke-opacity="0.5" stroke-width="5.46"/>
<path d="M40.3262 46.4624C40.3262 43.0349 43.1749 40.2656 46.6819 40.2656L119.965 40.2656C123.472 40.2656 126.321 43.0462 126.321 46.4624L126.321 120.597C126.321 124.025 123.472 126.794 119.965 126.794L46.6819 126.794C43.1749 126.794 40.3262 124.013 40.3262 120.597L40.3262 46.4624Z" fill="#006699"/>
<path fill-rule="evenodd" clip-rule="evenodd" d="M66.3864 112.709L66.3864 73.6331H53.4026L53.4026 112.709H66.3864ZM59.8945 68.2989C64.423 68.2989 67.2376 65.3026 67.2376 61.5459C67.1582 57.7098 64.423 54.793 59.974 54.793C55.525 54.793 52.6309 57.7098 52.6309 61.5459C52.6309 65.382 55.4455 68.2989 59.8037 68.2989H59.8832H59.8945Z" fill="white"/>
<path fill-rule="evenodd" clip-rule="evenodd" d="M73.582 112.71H86.5658V90.8854C86.5658 89.7164 86.6453 88.5474 86.9971 87.7189C87.9391 85.3809 90.0728 82.9634 93.6593 82.9634C98.3579 82.9634 100.242 86.5499 100.242 91.8047V112.71H113.226V90.3065C113.226 78.2988 106.813 72.7148 98.2672 72.7148C91.2645 72.7148 88.1888 76.6304 86.475 79.2975H86.5658V73.6342H73.582C73.7523 77.3 73.582 112.71 73.582 112.71Z" fill="white"/>
<defs>
<linearGradient id="paint0_linear_1389_18050" x1="75.0662" y1="6.85062" x2="127.492" y2="165.536" gradientUnits="userSpaceOnUse">
<stop stop-color="white"/>
<stop offset="1" stop-color="#D7D7D7"/>
</linearGradient>
</defs>
</svg>
