<svg width="168" height="167" viewBox="0 0 168 167" fill="none" xmlns="http://www.w3.org/2000/svg">
<path d="M0.705078 43.68C0.705078 28.3906 0.705078 20.7458 3.6806 14.9061C6.29794 9.76923 10.4743 5.59286 15.6111 2.97552C21.4509 0 29.0956 0 44.3851 0L123.555 0C138.844 0 146.489 0 152.329 2.97552C157.466 5.59286 161.642 9.76923 164.26 14.9061C167.235 20.7458 167.235 28.3906 167.235 43.68L167.235 122.85C167.235 138.139 167.235 145.784 164.26 151.624C161.642 156.761 157.466 160.937 152.329 163.554C146.489 166.53 138.845 166.53 123.555 166.53L44.3851 166.53C29.0957 166.53 21.4509 166.53 15.6111 163.554C10.4743 160.937 6.29794 156.761 3.6806 151.624C0.705078 145.784 0.705078 138.139 0.705078 122.85L0.705078 43.68Z" fill="url(#paint0_linear_1389_18069)"/>
<path d="M164.505 43.68L164.505 122.85C164.505 130.54 164.503 136.143 164.142 140.558C163.784 144.942 163.086 147.914 161.827 150.385C159.471 155.008 155.713 158.766 151.09 161.122C148.619 162.381 145.647 163.079 141.263 163.437C136.848 163.798 131.245 163.8 123.555 163.8L44.3851 163.8C36.6953 163.8 31.0922 163.798 26.6768 163.437C22.2933 163.079 19.3214 162.381 16.8505 161.122C12.2274 158.766 8.46866 155.008 6.11305 150.385C4.85406 147.914 4.1561 144.942 3.79795 140.558C3.4372 136.143 3.43508 130.54 3.43508 122.85L3.43508 43.68C3.43508 35.9903 3.4372 30.3871 3.79795 25.9717C4.1561 21.5882 4.85406 18.6164 6.11305 16.1455C8.46866 11.5223 12.2274 7.76358 16.8505 5.40797C19.3214 4.14898 22.2933 3.45102 26.6768 3.09287C31.0922 2.73212 36.6953 2.73 44.3851 2.73L123.555 2.73C131.245 2.73 136.848 2.73212 141.263 3.09287C145.647 3.45102 148.619 4.14898 151.09 5.40797C155.713 7.76358 159.471 11.5223 161.827 16.1455C163.086 18.6164 163.784 21.5882 164.142 25.9717C164.503 30.3871 164.505 35.9902 164.505 43.68Z" stroke="black" stroke-opacity="0.5" stroke-width="5.46"/>
<path d="M89.9893 83.2637C89.9893 98.7066 77.5182 111.246 62.0689 111.246C46.6196 111.246 34.1484 98.7066 34.1484 83.2637C34.1484 67.8209 46.6196 55.2812 62.0689 55.2813C77.5182 55.2813 89.9893 67.8209 89.9893 83.2637ZM120.578 83.2637C120.578 97.7801 114.311 109.578 106.618 109.578C98.9239 109.578 92.6573 97.7801 92.6573 83.2637C92.6573 68.7474 98.9239 56.9491 106.618 56.9491C114.311 56.9491 120.578 68.6857 120.578 83.2637ZM133.111 83.2637C133.111 96.2975 130.939 106.86 128.209 106.86C125.479 106.86 123.308 96.2975 123.308 83.2637C123.308 70.23 125.479 59.667 128.209 59.667C130.939 59.667 133.111 70.23 133.111 83.2637Z" fill="black"/>
<defs>
<linearGradient id="paint0_linear_1389_18069" x1="75.7127" y1="6.85062" x2="128.139" y2="165.536" gradientUnits="userSpaceOnUse">
<stop stop-color="white"/>
<stop offset="1" stop-color="#D7D7D7"/>
</linearGradient>
</defs>
</svg>
