<?xml version="1.0" encoding="utf-8"?>
<!-- Generator: Adobe Illustrator 26.3.1, SVG Export Plug-In . SVG Version: 6.00 Build 0)  -->
<svg version="1.1" id="Layer_1" xmlns="http://www.w3.org/2000/svg" xmlns:xlink="http://www.w3.org/1999/xlink" x="0px" y="0px"
	 viewBox="0 0 178 178" style="enable-background:new 0 0 178 178;" xml:space="preserve">
<style type="text/css">
	.st0{fill:url(#SVGID_1_);}
	.st1{fill:none;stroke:#FF4500;stroke-width:5.46;stroke-opacity:0.5;}
	.st2{fill:#FF4500;}
	.st3{fill:#FFFFFF;}
</style>
<linearGradient id="SVGID_1_" gradientUnits="userSpaceOnUse" x1="65.2792" y1="161.4793" x2="117.7047" y2="2.7939" gradientTransform="matrix(1 0 0 -1 0 178.89)">
	<stop  offset="0" style="stop-color:#FFFFFF"/>
	<stop  offset="1" style="stop-color:#D7D7D7"/>
</linearGradient>
<path class="st0" d="M5.6,49.2c0-15.3,0-22.9,3-28.8c2.6-5.1,6.8-9.3,11.9-11.9c5.8-3,13.5-3,28.8-3h79.2c15.3,0,22.9,0,28.8,3
	c5.1,2.6,9.3,6.8,11.9,11.9c3,5.8,3,13.5,3,28.8v79.2c0,15.3,0,22.9-3,28.8c-2.6,5.1-6.8,9.3-11.9,11.9c-5.8,3-13.5,3-28.8,3H49.3
	c-15.3,0-22.9,0-28.8-3c-5.1-2.6-9.3-6.8-11.9-11.9c-3-5.8-3-13.5-3-28.8V49.2z"/>
<path class="st1" d="M169.4,49.2v79.2c0,7.7,0,13.3-0.4,17.7c-0.4,4.4-1.1,7.4-2.3,9.8c-2.4,4.6-6.1,8.4-10.7,10.7
	c-2.5,1.3-5.4,2-9.8,2.3c-4.4,0.4-10,0.4-17.7,0.4H49.3c-7.7,0-13.3,0-17.7-0.4c-4.4-0.4-7.4-1.1-9.8-2.3
	c-4.6-2.4-8.4-6.1-10.7-10.7c-1.3-2.5-2-5.4-2.3-9.8c-0.4-4.4-0.4-10-0.4-17.7V49.2c0-7.7,0-13.3,0.4-17.7c0.4-4.4,1.1-7.4,2.3-9.8
	c2.4-4.6,6.1-8.4,10.7-10.7c2.5-1.3,5.4-2,9.8-2.3c4.4-0.4,10-0.4,17.7-0.4h79.2c7.7,0,13.3,0,17.7,0.4c4.4,0.4,7.4,1.1,9.8,2.3
	c4.6,2.4,8.4,6.1,10.7,10.7c1.3,2.5,2,5.4,2.3,9.8C169.4,35.9,169.4,41.5,169.4,49.2z"/>
<path class="st2" d="M89.1,137.5c27,0,48.9-21.9,48.9-48.9c0-27-21.9-48.9-48.9-48.9c-27,0-48.9,21.9-48.9,48.9
	C40.1,115.6,62,137.5,89.1,137.5z"/>
<path class="st3" d="M121.7,88.6c-0.1-3.9-3.5-7-7.4-6.9c-1.8,0.1-3.4,0.8-4.7,2c-5.6-3.8-12.1-5.9-18.8-6l3.2-15.3l10.5,2.2
	c0.3,2.7,2.7,4.6,5.4,4.3c2.7-0.3,4.6-2.7,4.3-5.4c-0.3-2.7-2.7-4.6-5.4-4.3c-1.5,0.2-2.9,1.1-3.7,2.4l-12-2.4
	c-0.8-0.2-1.6,0.3-1.8,1.2v0l-3.6,17c-6.8,0.1-13.4,2.2-19.1,6c-2.9-2.7-7.4-2.6-10.1,0.3c-2.7,2.9-2.6,7.4,0.3,10.1
	c0.6,0.5,1.2,1,1.9,1.3c0,0.7,0,1.4,0,2.2c0,11,12.8,19.9,28.5,19.9s28.5-8.9,28.5-19.9c0-0.7,0-1.4,0-2.2
	C120.2,93.8,121.7,91.3,121.7,88.6z M72.8,93.5c0-2.7,2.2-4.9,4.9-4.9s4.9,2.2,4.9,4.9c0,2.7-2.2,4.9-4.9,4.9
	C74.9,98.3,72.8,96.2,72.8,93.5z M101.2,106.9c-3.5,2.6-7.7,4-12.1,3.8c-4.4,0.2-8.6-1.2-12.1-3.8c-0.5-0.6-0.4-1.4,0.2-1.9
	c0.5-0.4,1.2-0.4,1.7,0c2.9,2.2,6.5,3.2,10.2,3.1c3.6,0.2,7.2-0.9,10.2-3c0.5-0.5,1.4-0.5,1.9,0c0.5,0.5,0.5,1.4,0,1.9V106.9z
	 M100.3,98.5c-2.7,0-4.9-2.2-4.9-4.9c0-2.7,2.2-4.9,4.9-4.9c2.7,0,4.9,2.2,4.9,4.9c0.1,2.7-2,5-4.7,5.1h-0.2L100.3,98.5z"/>
</svg>
