<svg width="168" height="167" viewBox="0 0 168 167" fill="none" xmlns="http://www.w3.org/2000/svg">
<path d="M0.587891 43.68C0.587891 28.3906 0.587891 20.7458 3.56341 14.9061C6.18076 9.76923 10.3571 5.59286 15.4939 2.97552C21.3337 0 28.9785 0 44.2679 0L123.438 0C138.727 0 146.372 0 152.212 2.97552C157.349 5.59286 161.525 9.76923 164.142 14.9061C167.118 20.7458 167.118 28.3906 167.118 43.68L167.118 122.85C167.118 138.139 167.118 145.784 164.142 151.624C161.525 156.761 157.349 160.937 152.212 163.554C146.372 166.53 138.727 166.53 123.438 166.53L44.2679 166.53C28.9785 166.53 21.3337 166.53 15.4939 163.554C10.3571 160.937 6.18076 156.761 3.56341 151.624C0.587891 145.784 0.587891 138.139 0.587891 122.85L0.587891 43.68Z" fill="url(#paint0_linear_1389_18057)"/>
<path d="M164.388 43.68L164.388 122.85C164.388 130.54 164.386 136.143 164.025 140.558C163.667 144.942 162.969 147.914 161.71 150.385C159.354 155.008 155.596 158.766 150.972 161.122C148.502 162.381 145.53 163.079 141.146 163.437C136.731 163.798 131.128 163.8 123.438 163.8L44.2679 163.8C36.5782 163.8 30.975 163.798 26.5596 163.437C22.1761 163.079 19.2042 162.381 16.7333 161.122C12.1102 158.766 8.35147 155.008 5.99586 150.385C4.73688 147.914 4.03891 144.942 3.68076 140.558C3.32001 136.143 3.31789 130.54 3.31789 122.85L3.31789 43.68C3.31789 35.9903 3.32001 30.3871 3.68076 25.9717C4.03891 21.5882 4.73688 18.6164 5.99586 16.1455C8.35147 11.5223 12.1102 7.76358 16.7333 5.40797C19.2042 4.14898 22.1761 3.45102 26.5596 3.09287C30.975 2.73212 36.5781 2.73 44.2679 2.73L123.438 2.73C131.128 2.73 136.731 2.73212 141.146 3.09287C145.53 3.45102 148.502 4.14898 150.972 5.40797C155.596 7.76358 159.354 11.5223 161.71 16.1455C162.969 18.6164 163.667 21.5882 164.025 25.9717C164.386 30.3871 164.388 35.9902 164.388 43.68Z" stroke="#FF4500" stroke-opacity="0.5" stroke-width="5.46"/>
<path d="M84.0583 131.996C111.085 131.996 132.994 110.086 132.994 83.0603C132.994 56.0341 111.085 34.125 84.0583 34.125C57.0321 34.125 35.123 56.0341 35.123 83.0603C35.123 110.086 57.0321 131.996 84.0583 131.996Z" fill="#FF4500"/>
<path d="M116.693 83.0611C116.547 79.12 113.238 76.0426 109.285 76.1764C107.533 76.2372 105.867 76.9548 104.602 78.1591C99.0307 74.3639 92.4865 72.2839 85.7599 72.138L88.9347 56.8723L99.4078 59.074C99.6997 61.7622 102.108 63.7084 104.796 63.4165C107.485 63.1245 109.431 60.7161 109.139 58.0279C108.847 55.3396 106.438 53.3934 103.75 53.6854C102.205 53.8435 100.819 54.7436 100.052 56.0816L88.0589 53.6854C87.2439 53.5029 86.4289 54.0138 86.2465 54.8409V54.8653L82.6338 71.846C75.822 71.9555 69.1927 74.0477 63.5487 77.8671C60.678 75.1668 56.153 75.3006 53.4526 78.1834C50.7523 81.0541 50.8861 85.579 53.7689 88.2794C54.3284 88.8025 54.9731 89.2525 55.6908 89.5688C55.6421 90.2864 55.6421 91.0041 55.6908 91.7218C55.6908 102.681 68.4629 111.598 84.2151 111.598C99.9673 111.598 112.739 102.694 112.739 91.7218C112.788 91.0041 112.788 90.2864 112.739 89.5688C115.196 88.3402 116.741 85.8101 116.693 83.0611ZM67.7574 87.9632C67.7574 85.2628 69.959 83.0611 72.6594 83.0611C75.3598 83.0611 77.5614 85.2628 77.5614 87.9632C77.5614 90.6635 75.3598 92.8652 72.6594 92.8652C69.9469 92.8409 67.7574 90.6635 67.7574 87.9632ZM96.1843 101.416C92.7055 104.032 88.4481 105.37 84.0934 105.187C79.7388 105.37 75.4814 104.032 72.0026 101.416C71.5403 100.857 71.6255 100.018 72.185 99.5553C72.6716 99.1539 73.3649 99.1539 73.8636 99.5553C76.8073 101.708 80.3956 102.803 84.0448 102.633C87.694 102.827 91.2945 101.781 94.2746 99.6526C94.8098 99.1296 95.6856 99.1418 96.2087 99.677C96.7317 100.212 96.7195 101.088 96.1843 101.611V101.416ZM95.3085 93.0355C92.6082 93.0355 90.4065 90.8338 90.4065 88.1334C90.4065 85.4331 92.6082 83.2314 95.3085 83.2314C98.0089 83.2314 100.211 85.4331 100.211 88.1334C100.32 90.8338 98.2157 93.1085 95.5153 93.2179H95.272L95.3085 93.0355Z" fill="white"/>
<defs>
<linearGradient id="paint0_linear_1389_18057" x1="75.5955" y1="6.85062" x2="128.021" y2="165.536" gradientUnits="userSpaceOnUse">
<stop stop-color="white"/>
<stop offset="1" stop-color="#D7D7D7"/>
</linearGradient>
</defs>
</svg>
