<svg width="168" height="167" viewBox="0 0 168 167" fill="none" xmlns="http://www.w3.org/2000/svg">
<path d="M0.646484 43.68C0.646484 28.3906 0.646484 20.7458 3.62201 14.9061C6.23935 9.76923 10.4157 5.59286 15.5525 2.97552C21.3923 0 29.037 0 44.3265 0L123.496 0C138.786 0 146.431 0 152.27 2.97552C157.407 5.59286 161.584 9.76923 164.201 14.9061C167.176 20.7458 167.176 28.3906 167.176 43.68L167.176 122.85C167.176 138.139 167.176 145.784 164.201 151.624C161.584 156.761 157.407 160.937 152.27 163.554C146.431 166.53 138.786 166.53 123.496 166.53L44.3265 166.53C29.0371 166.53 21.3923 166.53 15.5525 163.554C10.4157 160.937 6.23935 156.761 3.62201 151.624C0.646484 145.784 0.646484 138.139 0.646484 122.85L0.646484 43.68Z" fill="url(#paint0_linear_1389_18063)"/>
<path d="M164.446 43.68L164.446 122.85C164.446 130.54 164.444 136.143 164.084 140.558C163.725 144.942 163.027 147.914 161.769 150.385C159.413 155.008 155.654 158.766 151.031 161.122C148.56 162.381 145.588 163.079 141.205 163.437C136.789 163.798 131.186 163.8 123.496 163.8L44.3265 163.8C36.6368 163.8 31.0336 163.798 26.6182 163.437C22.2347 163.079 19.2628 162.381 16.7919 161.122C12.1688 158.766 8.41006 155.008 6.05445 150.385C4.79547 147.914 4.0975 144.942 3.73936 140.558C3.37861 136.143 3.37648 130.54 3.37648 122.85L3.37648 43.68C3.37648 35.9903 3.37861 30.3871 3.73936 25.9717C4.0975 21.5882 4.79547 18.6164 6.05445 16.1455C8.41006 11.5223 12.1688 7.76358 16.7919 5.40797C19.2628 4.14898 22.2347 3.45102 26.6182 3.09287C31.0336 2.73212 36.6367 2.73 44.3265 2.73L123.496 2.73C131.186 2.73 136.789 2.73212 141.205 3.09287C145.588 3.45102 148.56 4.14898 151.031 5.40797C155.654 7.76358 159.413 11.5223 161.769 16.1455C163.027 18.6164 163.725 21.5882 164.084 25.9717C164.444 30.3871 164.446 35.9902 164.446 43.68Z" stroke="#F58025" stroke-opacity="0.5" stroke-width="5.46"/>
<path fill-rule="evenodd" clip-rule="evenodd" d="M109.269 95.8125H117.019V126.81L47.2754 126.81L47.2754 95.8125H55.0246V119.06L109.269 119.06V95.8125Z" fill="#BBBBBB"/>
<path d="M63.4748 93.5067L101.538 101.502L103.137 93.8941L65.081 85.8913L63.4818 93.5067H63.4748ZM68.5118 75.2818L103.771 91.7032L107.054 84.6514L71.7947 68.23L68.5118 75.2818ZM78.2688 57.9869L108.16 82.8761L113.14 76.8951L83.2424 52.0059L78.2618 57.9799L78.2688 57.9869ZM97.5574 39.5859L91.3157 44.2284L114.528 75.4368L120.77 70.7943L97.5574 39.5859ZM62.7773 111.309H101.524L101.524 103.56H62.7773L62.7773 111.309Z" fill="#F58025"/>
<defs>
<linearGradient id="paint0_linear_1389_18063" x1="75.6541" y1="6.85062" x2="128.08" y2="165.536" gradientUnits="userSpaceOnUse">
<stop stop-color="white"/>
<stop offset="1" stop-color="#D7D7D7"/>
</linearGradient>
</defs>
</svg>
