<svg width="167" height="167" viewBox="0 0 167 167" fill="none" xmlns="http://www.w3.org/2000/svg">
<path d="M0.175781 43.68C0.175781 28.3906 0.175781 20.7458 3.1513 14.9061C5.76865 9.76923 9.94502 5.59286 15.0818 2.97552C20.9216 0 28.5663 0 43.8558 0L123.026 0C138.315 0 145.96 0 151.8 2.97552C156.937 5.59286 161.113 9.76923 163.73 14.9061C166.706 20.7458 166.706 28.3906 166.706 43.68L166.706 122.85C166.706 138.139 166.706 145.784 163.73 151.624C161.113 156.761 156.937 160.937 151.8 163.554C145.96 166.53 138.315 166.53 123.026 166.53L43.8558 166.53C28.5664 166.53 20.9216 166.53 15.0818 163.554C9.94502 160.937 5.76865 156.761 3.1513 151.624C0.175781 145.784 0.175781 138.139 0.175781 122.85L0.175781 43.68Z" fill="url(#paint0_linear_1389_18023)"/>
<path d="M163.976 43.68L163.976 122.85C163.976 130.54 163.974 136.143 163.613 140.558C163.255 144.942 162.557 147.914 161.298 150.385C158.942 155.008 155.183 158.766 150.56 161.122C148.089 162.381 145.118 163.079 140.734 163.437C136.319 163.798 130.716 163.8 123.026 163.8L43.8558 163.8C36.166 163.8 30.5629 163.798 26.1475 163.437C21.764 163.079 18.7921 162.381 16.3212 161.122C11.6981 158.766 7.93936 155.008 5.58375 150.385C4.32477 147.914 3.6268 144.942 3.26866 140.558C2.9079 136.143 2.90578 130.54 2.90578 122.85L2.90578 43.68C2.90578 35.9903 2.9079 30.3871 3.26866 25.9717C3.6268 21.5882 4.32477 18.6164 5.58375 16.1455C7.93936 11.5223 11.6981 7.76358 16.3212 5.40797C18.7921 4.14898 21.764 3.45102 26.1475 3.09287C30.5629 2.73212 36.166 2.73 43.8558 2.73L123.026 2.73C130.716 2.73 136.319 2.73212 140.734 3.09287C145.118 3.45102 148.089 4.14898 150.56 5.40797C155.183 7.76358 158.942 11.5223 161.298 16.1455C162.557 18.6164 163.255 21.5882 163.613 25.9717C163.974 30.3871 163.976 35.9902 163.976 43.68Z" stroke="black" stroke-opacity="0.5" stroke-width="5.46"/>
<path d="M105.434 80.301C105.038 80.1056 104.642 79.9279 104.228 79.768C103.526 66.8538 96.3594 59.4641 84.3497 59.3931H84.1877C77.0035 59.3931 71.0257 62.4129 67.3526 67.9197L73.9606 72.3961C76.7154 68.2927 81.0187 67.4045 84.1877 67.4045H84.2957C88.2569 67.4223 91.2278 68.5591 93.1724 70.7796C94.5768 72.3961 95.5131 74.6166 95.9813 77.4232C92.4702 76.837 88.6891 76.6594 84.6378 76.8903C73.2224 77.5476 65.8761 84.1024 66.3803 93.2329C66.6324 97.8693 68.9731 101.848 72.9703 104.442C76.3553 106.645 80.6946 107.71 85.214 107.479C91.1918 107.16 95.8732 104.904 99.1322 100.8C101.617 97.6739 103.183 93.6415 103.886 88.5433C106.731 90.2309 108.837 92.4691 110.008 95.1514C111.988 99.6989 112.096 107.195 105.92 113.306C100.501 118.653 93.9827 120.962 84.1157 121.033C73.1864 120.962 64.9219 117.498 59.5382 110.748C54.4967 104.442 51.9039 95.3113 51.8139 83.6405C51.9039 71.9698 54.5147 62.857 59.5382 56.5331C64.9219 49.7829 73.1864 46.3368 84.1157 46.2479C95.135 46.3368 103.544 49.8007 109.125 56.5864C111.862 59.9082 113.933 64.0827 115.283 68.9499L123.025 66.9071C121.369 60.903 118.776 55.7515 115.247 51.4527C108.099 42.7663 97.6198 38.3253 84.1517 38.2188H84.0977C70.6476 38.3076 60.2945 42.784 53.3443 51.4882C47.1505 59.251 43.9635 70.0335 43.8555 83.5695V83.6405C43.9635 97.1765 47.1505 107.959 53.3443 115.722C60.2945 124.444 70.6476 128.902 84.0977 128.991H84.1517C96.1073 128.902 104.552 125.812 111.502 118.973C120.595 110.02 120.325 98.793 117.318 91.9006C115.139 86.9801 111.034 82.9655 105.434 80.301ZM84.7819 99.468C79.7764 99.7522 74.5728 97.5317 74.3207 92.7888C74.1226 89.2716 76.8595 85.3458 85.088 84.884C86.0242 84.8307 86.9605 84.8129 87.8608 84.8129C90.8497 84.8129 93.6406 85.0972 96.1793 85.6478C95.243 97.3008 89.6794 99.2015 84.7819 99.468Z" fill="black"/>
<defs>
<linearGradient id="paint0_linear_1389_18023" x1="75.1834" y1="6.85062" x2="127.609" y2="165.536" gradientUnits="userSpaceOnUse">
<stop stop-color="white"/>
<stop offset="1" stop-color="#D7D7D7"/>
</linearGradient>
</defs>
</svg>
