<?xml version="1.0" encoding="utf-8"?>
<!-- Generator: Adobe Illustrator 26.3.1, SVG Export Plug-In . SVG Version: 6.00 Build 0)  -->
<svg version="1.1" id="Layer_1" xmlns="http://www.w3.org/2000/svg" xmlns:xlink="http://www.w3.org/1999/xlink" x="0px" y="0px"
	 viewBox="0 0 178 178" style="enable-background:new 0 0 178 178;" xml:space="preserve">
<style type="text/css">
	.st0{fill:url(#SVGID_1_);}
	.st1{fill:none;stroke:#000000;stroke-width:5.46;stroke-opacity:0.5;}
</style>
<linearGradient id="SVGID_1_" gradientUnits="userSpaceOnUse" x1="65.3671" y1="161.4793" x2="117.7927" y2="2.7939" gradientTransform="matrix(1 0 0 -1 0 178.89)">
	<stop  offset="0" style="stop-color:#FFFFFF"/>
	<stop  offset="1" style="stop-color:#D7D7D7"/>
</linearGradient>
<path class="st0" d="M5.7,49.2c0-15.3,0-22.9,3-28.8c2.6-5.1,6.8-9.3,11.9-11.9c5.8-3,13.5-3,28.8-3h79.2c15.3,0,22.9,0,28.8,3
	c5.1,2.6,9.3,6.8,11.9,11.9c3,5.8,3,13.5,3,28.8v79.2c0,15.3,0,22.9-3,28.8c-2.6,5.1-6.8,9.3-11.9,11.9c-5.8,3-13.5,3-28.8,3H49.4
	c-15.3,0-22.9,0-28.8-3c-5.1-2.6-9.3-6.8-11.9-11.9c-3-5.8-3-13.5-3-28.8V49.2z"/>
<path class="st1" d="M169.5,49.2v79.2c0,7.7,0,13.3-0.4,17.7c-0.4,4.4-1.1,7.4-2.3,9.8c-2.4,4.6-6.1,8.4-10.7,10.7
	c-2.5,1.3-5.4,2-9.8,2.3c-4.4,0.4-10,0.4-17.7,0.4H49.4c-7.7,0-13.3,0-17.7-0.4c-4.4-0.4-7.4-1.1-9.8-2.3
	c-4.6-2.4-8.4-6.1-10.7-10.7c-1.3-2.5-2-5.4-2.3-9.8c-0.4-4.4-0.4-10-0.4-17.7V49.2c0-7.7,0-13.3,0.4-17.7c0.4-4.4,1.1-7.4,2.3-9.8
	c2.4-4.6,6.1-8.4,10.7-10.7c2.5-1.3,5.4-2,9.8-2.3c4.4-0.4,10-0.4,17.7-0.4h79.2c7.7,0,13.3,0,17.7,0.4c4.4,0.4,7.4,1.1,9.8,2.3
	c4.6,2.4,8.4,6.1,10.7,10.7c1.3,2.5,2,5.4,2.3,9.8C169.5,35.9,169.5,41.5,169.5,49.2z"/>
<path d="M110.9,85.8c-0.4-0.2-0.8-0.4-1.2-0.5C109,72.4,101.9,65,89.8,64.9h-0.2c-7.2,0-13.2,3-16.8,8.5l6.6,4.5
	c2.8-4.1,7.1-5,10.2-5h0.1c4,0,6.9,1.2,8.9,3.4c1.4,1.6,2.3,3.8,2.8,6.6c-3.5-0.6-7.3-0.8-11.3-0.5C78.7,83,71.4,89.6,71.9,98.7
	c0.3,4.6,2.6,8.6,6.6,11.2c3.4,2.2,7.7,3.3,12.2,3c6-0.3,10.7-2.6,13.9-6.7c2.5-3.1,4.1-7.2,4.8-12.3c2.8,1.7,5,3.9,6.1,6.6
	c2,4.5,2.1,12-4.1,18.2c-5.4,5.3-11.9,7.7-21.8,7.7c-10.9-0.1-19.2-3.5-24.6-10.3c-5-6.3-7.6-15.4-7.7-27.1C57.4,77.5,60,68.4,65,62
	c5.4-6.8,13.6-10.2,24.6-10.3c11,0.1,19.4,3.6,25,10.3c2.7,3.3,4.8,7.5,6.2,12.4l7.7-2c-1.7-6-4.2-11.2-7.8-15.5
	c-7.1-8.7-17.6-13.1-31.1-13.2h-0.1C76.1,43.8,65.8,48.3,58.8,57c-6.2,7.8-9.4,18.5-9.5,32.1v0.1c0.1,13.5,3.3,24.3,9.5,32.1
	c7,8.7,17.3,13.2,30.8,13.3h0.1c12-0.1,20.4-3.2,27.4-10c9.1-9,8.8-20.2,5.8-27.1C120.6,92.5,116.5,88.5,110.9,85.8z M90.3,105
	c-5,0.3-10.2-1.9-10.5-6.7c-0.2-3.5,2.5-7.4,10.8-7.9c0.9-0.1,1.9-0.1,2.8-0.1c3,0,5.8,0.3,8.3,0.8C100.7,102.8,95.2,104.7,90.3,105
	z"/>
</svg>
