<svg width="167" height="167" viewBox="0 0 167 167" fill="none" xmlns="http://www.w3.org/2000/svg">
<path d="M0 43.68C0 28.3906 0 20.7458 2.97552 14.9061C5.59286 9.76923 9.76923 5.59286 14.9061 2.97552C20.7458 0 28.3906 0 43.68 0L122.85 0C138.139 0 145.784 0 151.624 2.97552C156.761 5.59286 160.937 9.76923 163.554 14.9061C166.53 20.7458 166.53 28.3906 166.53 43.68L166.53 122.85C166.53 138.139 166.53 145.784 163.554 151.624C160.937 156.761 156.761 160.937 151.624 163.554C145.784 166.53 138.139 166.53 122.85 166.53L43.68 166.53C28.3906 166.53 20.7458 166.53 14.9061 163.554C9.76923 160.937 5.59286 156.761 2.97552 151.624C0 145.784 0 138.139 0 122.85L0 43.68Z" fill="url(#paint0_linear_1389_18032)"/>
<path d="M163.8 43.68L163.8 122.85C163.8 130.54 163.798 136.143 163.437 140.558C163.079 144.942 162.381 147.914 161.122 150.385C158.766 155.008 155.008 158.766 150.385 161.122C147.914 162.381 144.942 163.079 140.558 163.437C136.143 163.798 130.54 163.8 122.85 163.8L43.68 163.8C35.9903 163.8 30.3871 163.798 25.9717 163.437C21.5882 163.079 18.6164 162.381 16.1455 161.122C11.5223 158.766 7.76358 155.008 5.40797 150.385C4.14898 147.914 3.45102 144.942 3.09287 140.558C2.73212 136.143 2.73 130.54 2.73 122.85L2.73 43.68C2.73 35.9903 2.73212 30.3871 3.09287 25.9717C3.45102 21.5882 4.14898 18.6164 5.40797 16.1455C7.76358 11.5223 11.5223 7.76358 16.1455 5.40797C18.6164 4.14898 21.5882 3.45102 25.9717 3.09287C30.3871 2.73212 35.9902 2.73 43.68 2.73L122.85 2.73C130.54 2.73 136.143 2.73212 140.558 3.09287C144.942 3.45102 147.914 4.14898 150.385 5.40797C155.008 7.76358 158.766 11.5223 161.122 16.1455C162.381 18.6164 163.079 21.5882 163.437 25.9717C163.798 30.3871 163.8 35.9902 163.8 43.68Z" stroke="black" stroke-opacity="0.5" stroke-width="5.46"/>
<path d="M125.579 125.579L91.3257 76.7671L122.85 40.9492H115.435L88.0361 72.0794L66.191 40.9492L40.9492 40.9492L73.9919 88.0361L40.9492 125.579H48.364L77.2815 92.7238L100.337 125.579H125.579ZM62.6224 46.3708L115.276 120.158H103.531L51.0021 46.3708H62.622H62.6224Z" fill="black"/>
<defs>
<linearGradient id="paint0_linear_1389_18032" x1="75.0076" y1="6.85062" x2="127.434" y2="165.536" gradientUnits="userSpaceOnUse">
<stop stop-color="white"/>
<stop offset="1" stop-color="#D7D7D7"/>
</linearGradient>
</defs>
</svg>
