<svg width="168" height="168" viewBox="0 0 168 168" fill="none" xmlns="http://www.w3.org/2000/svg">
<path d="M0.529297 44.4457C0.529297 29.1562 0.529297 21.5115 3.50482 15.6717C6.12216 10.5349 10.2985 6.35849 15.4354 3.74115C21.2751 0.765625 28.9199 0.765625 44.2093 0.765625L123.379 0.765625C138.669 0.765625 146.313 0.765625 152.153 3.74115C157.29 6.35849 161.466 10.5349 164.084 15.6717C167.059 21.5115 167.059 29.1562 167.059 44.4456L167.059 123.616C167.059 138.905 167.059 146.55 164.084 152.39C161.466 157.526 157.29 161.703 152.153 164.32C146.313 167.296 138.669 167.296 123.379 167.296L44.2093 167.296C28.9199 167.296 21.2751 167.296 15.4354 164.32C10.2985 161.703 6.12216 157.526 3.50482 152.39C0.529297 146.55 0.529297 138.905 0.529297 123.616L0.529297 44.4457Z" fill="url(#paint0_linear_1389_17980)"/>
<path d="M164.329 44.4456L164.329 123.616C164.329 131.305 164.327 136.909 163.966 141.324C163.608 145.707 162.91 148.679 161.651 151.15C159.296 155.773 155.537 159.532 150.914 161.888C148.443 163.147 145.471 163.845 141.088 164.203C136.672 164.564 131.069 164.566 123.379 164.566L44.2093 164.566C36.5196 164.566 30.9164 164.564 26.501 164.203C22.1175 163.845 19.1456 163.147 16.6747 161.888C12.0516 159.532 8.29288 155.773 5.93727 151.15C4.67828 148.679 3.98032 145.707 3.62217 141.324C3.26142 136.909 3.2593 131.305 3.2593 123.616L3.2593 44.4457C3.2593 36.7559 3.26142 31.1527 3.62217 26.7374C3.98032 22.3538 4.67828 19.382 5.93727 16.9111C8.29288 12.2879 12.0516 8.5292 16.6747 6.17359C19.1456 4.91461 22.1175 4.21665 26.501 3.8585C30.9164 3.49775 36.5195 3.49563 44.2093 3.49563L123.379 3.49563C131.069 3.49563 136.672 3.49775 141.088 3.8585C145.471 4.21665 148.443 4.91461 150.914 6.17359C155.537 8.5292 159.296 12.2879 161.651 16.9111C162.91 19.382 163.608 22.3538 163.966 26.7373C164.327 31.1527 164.329 36.7559 164.329 44.4456Z" stroke="#FF0000" stroke-opacity="0.5" stroke-width="5.46"/>
<path d="M128.948 61.5782C127.863 57.5468 124.683 54.3698 120.655 53.2852C113.29 51.2695 83.8323 51.2695 83.8323 51.2695C83.8323 51.2695 54.375 51.2695 47.0131 53.2084C43.0586 54.293 39.8047 57.55 38.7201 61.5814C36.7812 68.9433 36.7812 84.2142 36.7812 84.2142C36.7812 84.2142 36.7812 99.562 38.7201 106.847C39.8047 110.878 42.985 114.055 47.0131 115.14C54.455 117.156 83.8323 117.156 83.8323 117.156C83.8323 117.156 113.29 117.156 120.652 115.217C124.683 114.132 127.86 110.952 128.945 106.924C130.883 99.5588 130.883 84.2878 130.883 84.2878C130.883 84.2878 130.96 68.9401 128.945 61.575L128.948 61.5782Z" fill="#FF0000"/>
<path d="M74.4531 70.1055V98.3214L98.9481 84.215L74.4531 70.1087V70.1055Z" fill="white"/>
<defs>
<linearGradient id="paint0_linear_1389_17980" x1="75.5369" y1="7.61624" x2="127.963" y2="166.302" gradientUnits="userSpaceOnUse">
<stop stop-color="white"/>
<stop offset="1" stop-color="#D7D7D7"/>
</linearGradient>
</defs>
</svg>
