<svg width="168" height="167" viewBox="0 0 168 167" fill="none" xmlns="http://www.w3.org/2000/svg">
<path d="M0.585937 43.68C0.585937 28.3906 0.585937 20.7458 3.56146 14.9061C6.1788 9.76923 10.3552 5.59286 15.492 2.97552C21.3318 0 28.9765 0 44.2659 0L123.436 0C138.725 0 146.37 0 152.21 2.97552C157.347 5.59286 161.523 9.76923 164.14 14.9061C167.116 20.7458 167.116 28.3906 167.116 43.68L167.116 122.85C167.116 138.139 167.116 145.784 164.14 151.624C161.523 156.761 157.347 160.937 152.21 163.554C146.37 166.53 138.725 166.53 123.436 166.53L44.266 166.53C28.9765 166.53 21.3318 166.53 15.492 163.554C10.3552 160.937 6.1788 156.761 3.56146 151.624C0.585937 145.784 0.585937 138.139 0.585937 122.85L0.585937 43.68Z" fill="url(#paint0_linear_1389_10705)"/>
<path d="M164.386 43.68L164.386 122.85C164.386 130.54 164.384 136.143 164.023 140.558C163.665 144.942 162.967 147.914 161.708 150.385C159.352 155.008 155.594 158.766 150.97 161.122C148.5 162.381 145.528 163.079 141.144 163.437C136.729 163.798 131.126 163.8 123.436 163.8L44.266 163.8C36.5762 163.8 30.9731 163.798 26.5577 163.437C22.1742 163.079 19.2023 162.381 16.7314 161.122C12.1082 158.766 8.34952 155.008 5.99391 150.385C4.73492 147.914 4.03696 144.942 3.67881 140.558C3.31806 136.143 3.31594 130.54 3.31594 122.85L3.31594 43.68C3.31594 35.9903 3.31806 30.3871 3.67881 25.9717C4.03696 21.5882 4.73492 18.6164 5.99391 16.1455C8.34952 11.5223 12.1082 7.76358 16.7314 5.40797C19.2023 4.14898 22.1742 3.45102 26.5577 3.09287C30.973 2.73212 36.5762 2.73 44.2659 2.73L123.436 2.73C131.126 2.73 136.729 2.73212 141.144 3.09287C145.528 3.45102 148.5 4.14898 150.97 5.40797C155.594 7.76358 159.352 11.5223 161.708 16.1455C162.967 18.6164 163.665 21.5882 164.023 25.9717C164.384 30.3871 164.386 35.9902 164.386 43.68Z" stroke="#2993E0" stroke-opacity="0.5" stroke-width="5.46"/>
<path d="M68.0436 38.9023H95.8077L66.9857 124.31C66.3783 126.112 64.6925 127.32 62.7884 127.32H41.1804C38.7371 127.32 36.7578 125.341 36.7578 122.898C36.7578 122.42 36.8329 121.942 36.9899 121.485L63.8462 41.9122C64.4537 40.1172 66.1394 38.9023 68.0436 38.9023Z" fill="url(#paint1_linear_1389_10705)"/>
<path d="M108.396 96.1826L64.361 96.1826C63.2349 96.1826 62.3203 97.0903 62.3203 98.2165C62.3203 98.7829 62.5524 99.3221 62.9687 99.7111L91.2651 126.117C92.091 126.888 93.1761 127.311 94.3023 127.311L119.234 127.311L108.396 96.1758V96.1826Z" fill="#0078D4"/>
<path d="M68.045 38.9024C66.1203 38.8955 64.4209 40.1377 63.8408 41.9736L37.0253 121.417C36.1995 123.71 37.3939 126.242 39.6871 127.061C40.1717 127.232 40.6767 127.32 41.1886 127.32H63.3562C65.0351 127.02 66.4274 125.839 66.9939 124.229L72.3379 108.47L91.4342 126.283C92.2328 126.945 93.236 127.313 94.2803 127.32H119.123L108.231 96.1846L76.4738 96.1846L95.9114 38.9024H68.045Z" fill="url(#paint2_linear_1389_10705)"/>
<path d="M103.506 41.9122C102.899 40.1104 101.213 38.9023 99.3156 38.9023L68.3711 38.9023C70.2684 38.9023 71.9542 40.1104 72.5616 41.9122L99.418 121.485C100.196 123.799 98.9539 126.31 96.6402 127.088C96.183 127.245 95.7052 127.32 95.2275 127.32L126.172 127.32C128.615 127.32 130.595 125.341 130.595 122.898C130.595 122.42 130.513 121.942 130.363 121.485L103.506 41.9122Z" fill="url(#paint3_linear_1389_10705)"/>
<defs>
<linearGradient id="paint0_linear_1389_10705" x1="75.5936" y1="6.85062" x2="128.02" y2="165.536" gradientUnits="userSpaceOnUse">
<stop stop-color="white"/>
<stop offset="1" stop-color="#D7D7D7"/>
</linearGradient>
<linearGradient id="paint1_linear_1389_10705" x1="80.0652" y1="44.4937" x2="51.2757" y2="129.553" gradientUnits="userSpaceOnUse">
<stop stop-color="#114A8B"/>
<stop offset="1" stop-color="#0669BC"/>
</linearGradient>
<linearGradient id="paint2_linear_1389_10705" x1="89.0632" y1="84.1325" x2="82.3982" y2="86.3896" gradientUnits="userSpaceOnUse">
<stop stop-opacity="0.3"/>
<stop offset="0.07" stop-opacity="0.2"/>
<stop offset="0.32" stop-opacity="0.1"/>
<stop offset="0.62" stop-opacity="0.05"/>
<stop offset="1" stop-opacity="0"/>
</linearGradient>
<linearGradient id="paint3_linear_1389_10705" x1="85.6015" y1="41.9384" x2="117.212" y2="126.135" gradientUnits="userSpaceOnUse">
<stop stop-color="#3CCBF4"/>
<stop offset="1" stop-color="#2892DF"/>
</linearGradient>
</defs>
</svg>
