<svg width="168" height="167" viewBox="0 0 168 167" fill="none" xmlns="http://www.w3.org/2000/svg">
<path d="M0.652344 43.68C0.652344 28.3906 0.652344 20.7458 3.62786 14.9061C6.24521 9.76923 10.4216 5.59286 15.5584 2.97552C21.3982 0 29.0429 0 44.3323 0L123.502 0C138.792 0 146.436 0 152.276 2.97552C157.413 5.59286 161.589 9.76923 164.207 14.9061C167.182 20.7458 167.182 28.3906 167.182 43.68L167.182 122.85C167.182 138.139 167.182 145.784 164.207 151.624C161.589 156.761 157.413 160.937 152.276 163.554C146.436 166.53 138.792 166.53 123.502 166.53L44.3323 166.53C29.0429 166.53 21.3982 166.53 15.5584 163.554C10.4216 160.937 6.24521 156.761 3.62786 151.624C0.652344 145.784 0.652344 138.139 0.652344 122.85L0.652344 43.68Z" fill="url(#paint0_linear_1390_21383)"/>
<path d="M164.452 43.68L164.452 122.85C164.452 130.54 164.45 136.143 164.089 140.558C163.731 144.942 163.033 147.914 161.774 150.385C159.419 155.008 155.66 158.766 151.037 161.122C148.566 162.381 145.594 163.079 141.21 163.437C136.795 163.798 131.192 163.8 123.502 163.8L44.3323 163.8C36.6426 163.8 31.0394 163.798 26.6241 163.437C22.2406 163.079 19.2687 162.381 16.7978 161.122C12.1746 158.766 8.41592 155.008 6.06031 150.385C4.80133 147.914 4.10336 144.942 3.74522 140.558C3.38447 136.143 3.38234 130.54 3.38234 122.85L3.38234 43.68C3.38234 35.9902 3.38447 30.3871 3.74522 25.9717C4.10336 21.5882 4.80133 18.6163 6.06031 16.1454C8.41592 11.5223 12.1746 7.76358 16.7978 5.40797C19.2687 4.14898 22.2406 3.45102 26.6241 3.09287C31.0394 2.73212 36.6426 2.73 44.3323 2.73L123.502 2.73C131.192 2.73 136.795 2.73212 141.21 3.09287C145.594 3.45102 148.566 4.14898 151.037 5.40797C155.66 7.76358 159.419 11.5223 161.774 16.1454C163.033 18.6163 163.731 21.5882 164.089 25.9717C164.45 30.3871 164.452 35.9902 164.452 43.68Z" stroke="#00599C" stroke-opacity="0.5" stroke-width="5.46"/>
<path fill-rule="evenodd" clip-rule="evenodd" d="M81.3575 34.9016C82.9429 34.012 84.8948 34.012 86.4778 34.9016C94.3113 39.2981 117.884 52.532 125.72 56.9286C127.305 57.8158 128.281 59.4596 128.281 61.2387L128.281 105.29C128.281 107.07 127.305 108.713 125.72 109.603C117.886 113.999 94.3136 127.233 86.4778 131.63C84.8925 132.519 82.9405 132.519 81.3575 131.63C73.5241 127.233 49.9514 113.999 42.1156 109.603C40.5326 108.713 39.5566 107.072 39.5566 105.293L39.5566 61.2411C39.5566 59.4619 40.5326 57.8182 42.118 56.9286C49.9491 52.532 73.5264 39.2981 81.3575 34.9016Z" fill="#004482"/>
<path fill-rule="evenodd" clip-rule="evenodd" d="M40.2664 107.559C39.6454 106.728 39.5566 105.938 39.5566 104.876L39.5566 61.0765C39.5566 59.3067 40.5303 57.6723 42.111 56.7897C49.9164 52.4189 73.4097 39.262 81.2151 34.8888C82.7958 34.0039 84.9368 34.0226 86.5175 34.9075C94.3229 39.2783 117.737 52.3232 125.542 56.694C126.173 57.0489 126.654 57.4762 127.083 58.0389L40.2664 107.559Z" fill="#659AD2"/>
<path fill-rule="evenodd" clip-rule="evenodd" d="M83.9184 50.5781C101.96 50.5781 116.606 65.2247 116.606 83.2661C116.606 101.308 101.96 115.954 83.9184 115.954C65.877 115.954 51.2305 101.308 51.2305 83.2661C51.2305 65.2247 65.877 50.5781 83.9184 50.5781ZM83.9184 66.9221C92.9379 66.9221 100.262 74.2442 100.262 83.2661C100.262 92.288 92.9379 99.6101 83.9184 99.6101C74.8989 99.6101 67.5744 92.2856 67.5744 83.2661C67.5744 74.2465 74.8965 66.9221 83.9184 66.9221Z" fill="white"/>
<path fill-rule="evenodd" clip-rule="evenodd" d="M127.079 58.0625C128.284 59.1902 128.26 60.89 128.26 62.2279C128.26 71.0887 128.185 96.2911 128.281 105.152C128.291 106.076 127.985 107.05 127.527 107.783L82.9687 83.2673L127.079 58.0625Z" fill="#00599C"/>
<defs>
<linearGradient id="paint0_linear_1390_21383" x1="75.6599" y1="6.85062" x2="128.086" y2="165.536" gradientUnits="userSpaceOnUse">
<stop stop-color="white"/>
<stop offset="1" stop-color="#D7D7D7"/>
</linearGradient>
</defs>
</svg>
