<svg width="168" height="167" viewBox="0 0 168 167" fill="none" xmlns="http://www.w3.org/2000/svg">
<path d="M0.773437 43.68C0.773437 28.3906 0.773437 20.7458 3.74896 14.9061C6.3663 9.76923 10.5427 5.59286 15.6795 2.97552C21.5193 0 29.164 0 44.4534 0L123.623 0C138.913 0 146.557 0 152.397 2.97552C157.534 5.59286 161.71 9.76923 164.328 14.9061C167.303 20.7458 167.303 28.3906 167.303 43.68L167.303 122.85C167.303 138.139 167.303 145.784 164.328 151.624C161.71 156.761 157.534 160.937 152.397 163.554C146.557 166.53 138.913 166.53 123.623 166.53L44.4534 166.53C29.164 166.53 21.5193 166.53 15.6795 163.554C10.5427 160.937 6.3663 156.761 3.74896 151.624C0.773437 145.784 0.773437 138.139 0.773437 122.85L0.773437 43.68Z" fill="url(#paint0_linear_1390_21436)"/>
<path d="M164.573 43.68L164.573 122.85C164.573 130.54 164.571 136.143 164.21 140.558C163.852 144.942 163.154 147.914 161.895 150.385C159.54 155.008 155.781 158.766 151.158 161.122C148.687 162.381 145.715 163.079 141.332 163.437C136.916 163.798 131.313 163.8 123.623 163.8L44.4534 163.8C36.7637 163.8 31.1605 163.798 26.7452 163.437C22.3616 163.079 19.3898 162.381 16.9189 161.122C12.2957 158.766 8.53701 155.008 6.18141 150.385C4.92242 147.914 4.22446 144.942 3.86631 140.558C3.50556 136.143 3.50344 130.54 3.50344 122.85L3.50344 43.68C3.50344 35.9902 3.50556 30.3871 3.86631 25.9717C4.22446 21.5882 4.92242 18.6163 6.18141 16.1454C8.53701 11.5223 12.2957 7.76358 16.9189 5.40797C19.3898 4.14898 22.3616 3.45102 26.7451 3.09287C31.1605 2.73212 36.7637 2.73 44.4534 2.73L123.623 2.73C131.313 2.73 136.916 2.73212 141.332 3.09287C145.715 3.45102 148.687 4.14898 151.158 5.40797C155.781 7.76358 159.54 11.5223 161.895 16.1454C163.154 18.6163 163.852 21.5882 164.21 25.9717C164.571 30.3871 164.573 35.9902 164.573 43.68Z" stroke="#A90533" stroke-opacity="0.5" stroke-width="5.46"/>
<path d="M56.0767 99.2588C49.734 92.5383 46.0229 83.2503 46.0296 72.1709C46.0195 62.3701 49.0997 53.9492 54.3932 47.5391H54.383L43.2598 47.5424L43.2598 99.2622H56.0767V99.2588Z" fill="#A90533"/>
<path d="M114.67 99.264C117.403 96.3356 119.852 92.8909 122.068 88.947L109.754 82.7899C105.429 89.8208 99.1066 96.2917 90.3585 96.3356C77.6293 96.2917 72.6294 85.4079 72.6564 71.4001L120.22 71.4001C120.284 69.8178 120.284 69.0823 120.22 68.3232C120.53 59.99 118.32 52.9827 114.302 47.5273L114.282 47.5442L124.99 47.5442L124.99 99.264L114.643 99.264H114.666H114.67Z" fill="#A90533"/>
<path d="M73.4277 59.394C73.954 53.0514 78.954 48.7869 84.8175 48.7734C90.7216 48.7869 94.9861 53.0514 95.1311 59.394L73.4277 59.394Z" fill="#A90533"/>
<path d="M50.0353 108.015L50.0353 105.859H43.416L43.416 118.636H50.0353L50.0353 116.48H45.8789L45.8789 113.093H49.8801L49.8801 110.937H45.8789L45.8789 108.012H50.0353V108.015Z" fill="black"/>
<path d="M61.2689 113.248C62.9187 113.002 63.8262 111.369 63.8869 109.709C63.8262 106.993 62.0651 105.869 59.5787 105.859H56.1914L56.1914 118.636H58.6542L58.6542 113.555L61.7311 118.636H64.808L61.2689 113.248ZM58.6509 107.86H58.9579C60.3006 107.911 61.3094 108.218 61.2655 109.861C61.3094 111.365 60.3344 111.777 58.9579 111.706H58.6509L58.6509 107.857V107.86Z" fill="black"/>
<path d="M72.5078 105.859H70.0449L70.0449 118.636H76.0468L76.0468 116.48H72.5078L72.5078 105.859Z" fill="black"/>
<path d="M88.6695 116.02L89.7457 118.638L92.3637 118.638L87.5932 105.555H85.5926L80.5117 118.638H83.1298L84.206 116.02H88.6695ZM88.0554 114.019H84.9786L86.3652 109.249L88.0588 114.019H88.0554Z" fill="black"/>
<path d="M96.9824 118.638H99.6005L99.6005 110.018L106.375 118.945L108.22 118.945L108.22 105.862L105.602 105.862L105.602 114.482L98.8279 105.555H96.9824L96.9824 118.638Z" fill="black"/>
<path d="M118.993 111.868L118.993 113.869H121.763C121.705 115.478 120.39 116.838 118.838 116.794C116.388 116.841 115.174 114.473 115.143 112.33C115.174 110.215 116.371 107.745 118.838 107.712C120.133 107.745 121.226 108.633 121.763 109.712L123.919 108.636C122.971 106.639 121.058 105.532 118.838 105.559C115.022 105.535 112.576 108.683 112.525 112.33C112.576 115.886 114.951 119.054 118.682 119.101C122.711 119.051 124.576 115.832 124.533 112.175L124.533 111.868L118.993 111.868Z" fill="black"/>
<defs>
<linearGradient id="paint0_linear_1390_21436" x1="75.781" y1="6.85062" x2="128.207" y2="165.536" gradientUnits="userSpaceOnUse">
<stop stop-color="white"/>
<stop offset="1" stop-color="#D7D7D7"/>
</linearGradient>
</defs>
</svg>
