<svg width="167" height="167" viewBox="0 0 167 167" fill="none" xmlns="http://www.w3.org/2000/svg">
<g filter="url(#filter0_i_1_1191)">
<path d="M0.234375 43.9154C0.234375 28.6259 0.234375 20.9812 3.2099 15.1414C5.82724 10.0046 10.0036 5.82821 15.1404 3.21087C20.9802 0.235352 28.6249 0.235352 43.9144 0.235352L123.084 0.235352C138.374 0.235352 146.018 0.235352 151.858 3.21087C156.995 5.82821 161.171 10.0046 163.789 15.1414C166.764 20.9812 166.764 28.6259 166.764 43.9153L166.764 123.085C166.764 138.375 166.764 146.02 163.789 151.859C161.171 156.996 156.995 161.172 151.858 163.79C146.018 166.765 138.374 166.765 123.084 166.765L43.9144 166.765C28.6249 166.765 20.9802 166.765 15.1404 163.79C10.0036 161.172 5.82724 156.996 3.2099 151.859C0.234375 146.02 0.234375 138.375 0.234375 123.085L0.234375 43.9154Z" fill="url(#paint0_linear_1_1191)"/>
</g>
<path d="M2.96437 43.9154C2.96437 36.2256 2.9665 30.6225 3.32725 26.2071C3.68539 21.8236 4.38336 18.8517 5.64234 16.3808C7.99795 11.7577 11.7567 7.99893 16.3798 5.64332C18.8507 4.38433 21.8226 3.68637 26.2061 3.32822C30.6215 2.96747 36.2246 2.96535 43.9144 2.96535L123.084 2.96535C130.774 2.96535 136.377 2.96747 140.792 3.32822C145.176 3.68637 148.148 4.38433 150.619 5.64332C155.242 7.99893 159.001 11.7577 161.356 16.3808C162.615 18.8517 163.313 21.8236 163.671 26.2071C164.032 30.6224 164.034 36.2256 164.034 43.9153L164.034 123.085C164.034 130.775 164.032 136.378 163.671 140.794C163.313 145.177 162.615 148.149 161.356 150.62C159.001 155.243 155.242 159.002 150.619 161.357C148.148 162.616 145.176 163.314 140.792 163.672C136.377 164.033 130.774 164.035 123.084 164.035L43.9144 164.035C36.2246 164.035 30.6215 164.033 26.2061 163.672C21.8226 163.314 18.8507 162.616 16.3798 161.357C11.7567 159.002 7.99795 155.243 5.64234 150.62C4.38336 148.149 3.68539 145.177 3.32725 140.794C2.9665 136.378 2.96437 130.775 2.96437 123.085L2.96437 43.9154Z" stroke="#512BD4" stroke-opacity="0.5" stroke-width="5.46"/>
<path fill-rule="evenodd" clip-rule="evenodd" d="M101.715 48.1603L112.044 48.1603C121.228 48.1603 128.689 55.6207 128.689 64.8051L128.689 101.124C128.689 110.309 121.228 117.769 112.044 117.769H111.227C106.501 117.028 104.449 115.61 102.865 114.412L89.7324 103.616C89.0557 103.068 88.0835 103.068 87.4067 103.616L83.1421 107.124L71.1271 97.2463C70.4504 96.6984 69.4836 96.6984 68.8015 97.2463L52.1083 111.931C48.746 114.665 46.5278 114.16 45.0883 113.999C41.3662 110.942 38.9922 106.307 38.9922 101.124L38.9922 64.8051C38.9922 55.6207 46.4526 48.1603 55.637 48.1603L65.9441 48.1603L65.928 48.2032L65.5788 49.2184L65.4714 49.5675L65.0041 51.6407L64.9397 52.0059L64.7356 54.0845L64.7087 54.6539L64.7087 54.8526L64.7248 55.8033L64.7732 56.3619L64.8913 57.2373L65.0417 58.0215L65.219 58.7466L65.4446 59.5308L66.0354 61.1904L66.2287 61.6899L67.2546 63.8598L67.6145 64.5259L68.8015 66.5615L69.258 67.2973L70.9176 69.7358L71.1593 70.058L73.3131 72.8671L74.0114 73.7318L76.4713 76.6107L76.9762 77.1639L79.0064 79.3499L79.8121 80.1824L81.1387 81.5037L80.8702 81.7293L80.7037 81.8797C80.2525 82.2986 79.8228 82.7498 79.4254 83.2171C79.232 83.4427 79.0494 83.679 78.8722 83.9207C78.6036 84.2913 78.3673 84.678 78.1632 85.0808C78.0558 85.2903 77.9591 85.5052 77.8785 85.7254C77.6637 86.2893 77.5294 86.8801 77.4918 87.4817L77.4918 88.0027C77.5025 88.7332 77.6529 89.4582 77.9269 90.135C78.2008 90.8225 78.6036 91.4563 79.1139 91.9934C79.4845 92.3855 79.9034 92.7292 80.3653 93.0139C80.7574 93.2556 81.1763 93.4543 81.6114 93.6047C82.5567 93.927 83.5611 94.0397 84.5547 93.9377H84.5601C85.4087 93.8571 86.2305 93.6101 86.9878 93.218C87.3154 93.0461 87.6216 92.8474 87.9116 92.6164C88.7441 91.9665 89.3887 91.1125 89.7807 90.1296C90.0869 89.3669 90.2373 88.5505 90.2212 87.7288L90.1997 87.2991C90.146 86.7298 90.0063 86.1765 89.7969 85.6448C89.7055 85.4138 89.6035 85.1883 89.4853 84.968C89.2705 84.5652 89.0234 84.1785 88.7549 83.8079C88.6313 83.6414 88.5024 83.4749 88.3682 83.3138C87.9224 82.782 87.4497 82.2825 86.9395 81.8152L86.5796 81.5091L87.1865 80.9075L89.8022 78.179L90.7046 77.1854L92.1118 75.6063L93.0248 74.5375L94.33 72.9477L95.2109 71.8358L96.5053 70.101L97.1606 69.204L98.0897 67.8183L98.8632 66.6367L100.319 64.1015L101.151 62.4365L101.173 62.3828L101.812 60.8359C101.812 60.8359 101.828 60.793 101.833 60.7769L102.521 58.6338L102.591 58.3223L102.891 56.6143L102.951 56.1524L102.967 55.8677L102.988 54.7989L102.988 54.6002L102.929 53.6441L102.859 52.9029L102.521 50.7599C102.521 50.733 102.51 50.7008 102.499 50.6739L102.064 49.0895L101.914 48.649L101.721 48.1603H101.715ZM106.624 93.4489C104.471 93.4812 102.709 95.2429 102.682 97.3913C102.714 99.5451 104.476 101.301 106.624 101.334C108.773 101.301 110.534 99.5451 110.567 97.3913C110.534 95.2375 108.773 93.4758 106.624 93.4489Z" fill="url(#paint1_radial_1_1191)"/>
<path fill-rule="evenodd" clip-rule="evenodd" d="M77.9338 116.351L77.2355 116.937C76.591 117.469 75.7853 117.759 74.9528 117.769L55.6386 117.769C51.7929 117.769 48.06 116.443 45.0898 113.999C46.5293 114.155 48.7529 114.659 52.1152 111.931L68.8084 97.2465C69.4851 96.6987 70.4519 96.6987 71.134 97.2465L83.149 107.124L87.4136 103.617C88.0904 103.069 89.0625 103.069 89.7393 103.617L102.871 114.412C104.456 115.61 106.508 117.028 111.234 117.769L102.501 117.769C101.727 117.759 100.981 117.511 100.358 117.055L100.202 116.937L99.5522 116.4C99.4985 116.335 99.4448 116.276 99.3803 116.228C96.0342 113.451 92.688 110.68 89.3418 107.903C88.9336 107.564 88.3482 107.57 87.94 107.903C87.94 107.903 87.9615 107.93 78.0627 116.222C78.0143 116.26 77.9713 116.303 77.9284 116.351H77.9338ZM106.626 93.4492C104.472 93.4814 102.71 95.2431 102.684 97.3915C102.716 99.5453 104.477 101.302 106.626 101.334C108.78 101.302 110.536 99.5453 110.574 97.3915C110.541 95.2378 108.78 93.4761 106.626 93.4492ZM81.1295 81.4986L79.8029 80.1773L78.9972 79.3448L76.967 77.1588L76.4621 76.6056L74.0021 73.7267L73.3039 72.862L71.1501 70.0583L70.9084 69.736L69.2488 67.2976L68.7922 66.5617L67.6052 64.5261L67.2454 63.8601L66.2195 61.6902L66.0262 61.1907L65.4353 59.531L65.2098 58.7469L65.0325 58.0218L64.8821 57.2322L64.764 56.3568L64.7156 55.7982L64.6941 54.8475L64.6941 54.6488L64.7264 54.0794L64.9305 52.0008L64.9949 51.6356L65.4622 49.5624L65.5696 49.2133L65.9187 48.1981L66.0315 47.935L66.5847 46.7211L66.9661 45.996L67.4978 45.1152L68.0296 44.331L68.4109 43.8315L68.846 43.3051L69.3293 42.7788L69.7429 42.3652L70.7473 41.4843L71.4831 40.8828C71.4831 40.8828 71.5207 40.8559 71.5368 40.8398L72.407 40.2544L73.0944 39.8139L74.405 39.1264C74.405 39.1264 74.4479 39.105 74.4694 39.0942L76.3278 38.3262L76.4997 38.2617L78.1486 37.7783L78.8468 37.6226L79.7868 37.4346L80.4098 37.3379L81.3658 37.2197L82.0211 37.1606L83.3209 37.0908H83.8312L84.7926 37.1069L85.045 37.123L86.4415 37.2412L88.2837 37.499L88.4986 37.542L90.3194 37.9932L90.8565 38.1543L91.4527 38.3584L92.1777 38.6323L92.7524 38.874L93.5957 39.2715L94.1274 39.5454L95.0781 40.104L95.4326 40.3242L96.7324 41.2695L97.103 41.5918L98.0107 42.4189L98.0537 42.4619L98.8217 43.2836L99.0849 43.5844L99.9872 44.7822L100.17 45.0668L100.884 46.2753L101.099 46.6889L101.502 47.5912L101.926 48.6439L102.077 49.0844L102.512 50.6688C102.517 50.6957 102.528 50.7225 102.533 50.7548L102.871 52.8978L102.941 53.639L102.995 54.5951V54.7938L102.979 55.8626L102.963 56.1473L102.904 56.6092L102.603 58.3172L102.533 58.6287L101.846 60.7718C101.846 60.7718 101.835 60.8147 101.824 60.8308L101.185 62.3777L101.163 62.4314L100.331 64.0964L98.8754 66.6316L98.102 67.8132L97.1728 69.1989L96.5175 70.0959L95.2231 71.8307L94.3423 72.9425L93.0371 74.5324L92.124 75.6012L90.7168 77.1803L89.8145 78.1739L87.1988 80.9024L86.5919 81.504L86.9517 81.8101C87.462 82.2774 87.9346 82.7769 88.3804 83.3087C88.5147 83.4698 88.6436 83.6363 88.7671 83.8028C89.0411 84.168 89.2828 84.5601 89.4976 84.9629C89.6158 85.1832 89.7178 85.4087 89.8091 85.6397C90.0186 86.1714 90.1582 86.73 90.2119 87.294L90.2334 87.7237C90.2495 88.5454 90.0992 89.3618 89.793 90.1245C89.4009 91.102 88.7564 91.9614 87.9239 92.6059C87.6338 92.8315 87.3223 93.0356 87.0001 93.2075C86.2427 93.5996 85.421 93.8467 84.5724 93.9272H84.567C83.5733 94.0293 82.569 93.9111 81.6237 93.5942C81.1886 93.4438 80.7697 93.2451 80.3776 93.0034C79.9157 92.7187 79.4967 92.3804 79.1261 91.9829C78.6159 91.4404 78.213 90.812 77.9391 90.1245C77.6652 89.4478 77.5202 88.7227 77.4987 87.9922L77.4987 87.4712C77.547 86.8697 77.6759 86.2788 77.8908 85.7149C77.9767 85.4947 78.068 85.2798 78.1754 85.0704C78.3849 84.6675 78.6212 84.2754 78.8844 83.9102C79.0563 83.6685 79.2443 83.4322 79.4376 83.2066C79.8405 82.7393 80.2648 82.2882 80.716 81.8692L80.8825 81.7188L81.151 81.4932L81.1295 81.4986Z" fill="#24175B"/>
<path fill-rule="evenodd" clip-rule="evenodd" d="M77.2363 116.938L87.9408 107.904C88.3436 107.565 88.9344 107.565 89.3426 107.904L100.203 116.938C100.864 117.475 101.691 117.77 102.539 117.77L74.916 117.77C75.7646 117.77 76.5864 117.475 77.2417 116.938H77.2363ZM83.8964 84.6954L83.9984 84.7276C84.0307 84.7437 84.0629 84.7652 84.0898 84.7867L84.1757 84.8619C84.3905 85.0606 84.6 85.2701 84.8041 85.4849C84.9437 85.6353 85.0834 85.7911 85.2177 85.9576C85.3895 86.1617 85.5453 86.3765 85.6903 86.5968C85.7548 86.6934 85.8085 86.7955 85.8622 86.8975C85.9105 86.9888 85.9535 87.0801 85.9911 87.1715C86.0556 87.338 86.1039 87.5098 86.12 87.6817L86.12 88.0093C86.0717 88.6109 85.7387 89.1587 85.223 89.4756C84.8954 89.6744 84.5194 89.7979 84.1381 89.8355L83.7299 89.8462L83.3861 89.814C83.225 89.7925 83.0693 89.7496 82.9135 89.7012C82.7577 89.6475 82.6073 89.5777 82.4677 89.4917L82.1991 89.293C81.8823 89.0245 81.6674 88.6539 81.5869 88.2457C81.5761 88.1758 81.5654 88.106 81.5546 88.0362L81.5439 87.7193C81.5493 87.6334 81.56 87.5474 81.5815 87.4669C81.6298 87.2842 81.6943 87.107 81.7802 86.9351C81.893 86.7203 82.0165 86.5162 82.1562 86.3228C82.3871 86.0059 82.6396 85.7105 82.9081 85.4259C83.08 85.2432 83.2572 85.066 83.4452 84.8941L83.5795 84.776C83.6708 84.7169 83.6708 84.7169 83.7782 84.6847H83.891L83.8964 84.6954ZM83.2196 40.8301H83.2626L83.2626 77.611L83.1713 77.4391C81.9628 75.1994 80.8349 72.9167 79.7929 70.591C78.9497 68.7112 78.1816 66.7937 77.4995 64.8494C76.9516 63.2972 76.4897 61.7234 76.1191 60.1229C75.8291 58.8499 75.6035 57.5663 75.5122 56.2611C75.4746 55.7079 75.4639 55.1493 75.48 54.5907C75.4907 54.1073 75.5068 53.6239 75.5391 53.1405C75.5874 52.3778 75.6626 51.6205 75.7754 50.8632C75.8667 50.2724 75.9741 49.6816 76.1084 49.0961C76.2158 48.6342 76.3393 48.1723 76.4844 47.7158C76.6885 47.0605 76.9355 46.4213 77.2202 45.7929C77.3222 45.5673 77.435 45.3418 77.5532 45.1269C78.2622 43.811 79.229 42.6025 80.4912 41.7915C81.3129 41.2598 82.2475 40.9268 83.2196 40.8301ZM87.9891 40.9214L90.4652 41.625C91.6146 42.0439 92.7103 42.6025 93.7308 43.29C95.1111 44.2246 96.3035 45.4116 97.2381 46.7919C97.7859 47.6137 98.2424 48.4892 98.5969 49.413C99.1126 50.7773 99.4294 52.206 99.5422 53.6561C99.5745 54.0375 99.5959 54.4188 99.6013 54.8002C99.6121 55.1547 99.6067 55.5091 99.5798 55.8636C99.51 56.6532 99.3596 57.4373 99.134 58.2C98.9514 58.8231 98.7366 59.4407 98.4949 60.0423C98.1887 60.7889 97.8504 61.5247 97.4798 62.2391C96.6526 63.8343 95.7073 65.3543 94.6922 66.8313C93.4354 68.6413 92.0926 70.3923 90.6693 72.0842C89.1278 73.9265 87.5165 75.7096 85.8407 77.4338C86.974 75.3068 88.0375 73.1369 89.0204 70.9348C89.5682 69.7048 90.0838 68.4641 90.5672 67.2127C91.099 65.8377 91.577 64.4412 92.0067 63.0286C92.3236 61.9705 92.6029 60.9017 92.8338 59.8167C93.0325 58.8875 93.1883 57.953 93.285 57.0077C93.3655 56.2235 93.3978 55.4286 93.3763 54.639C93.3709 54.1556 93.3494 53.6722 93.3226 53.1942C93.2044 51.2553 92.9144 49.3217 92.345 47.4579C92.1302 46.7543 91.8724 46.0615 91.5662 45.3901C90.8411 43.811 89.8314 42.3393 88.4618 41.2598C88.4618 41.2598 87.9999 40.9268 88.0052 40.9268L87.9891 40.9214Z" fill="white"/>
<defs>
<filter id="filter0_i_1_1191" x="0.234375" y="-1.12965" width="166.53" height="167.895" filterUnits="userSpaceOnUse" color-interpolation-filters="sRGB">
<feFlood flood-opacity="0" result="BackgroundImageFix"/>
<feBlend mode="normal" in="SourceGraphic" in2="BackgroundImageFix" result="shape"/>
<feColorMatrix in="SourceAlpha" type="matrix" values="0 0 0 0 0 0 0 0 0 0 0 0 0 0 0 0 0 0 127 0" result="hardAlpha"/>
<feOffset dy="-1.365"/>
<feGaussianBlur stdDeviation="0.6825"/>
<feComposite in2="hardAlpha" operator="arithmetic" k2="-1" k3="1"/>
<feColorMatrix type="matrix" values="0 0 0 0 0 0 0 0 0 0 0 0 0 0 0 0 0 0 0.11 0"/>
<feBlend mode="normal" in2="shape" result="effect1_innerShadow_1_1191"/>
</filter>
<linearGradient id="paint0_linear_1_1191" x1="75.2419" y1="7.08597" x2="127.668" y2="165.771" gradientUnits="userSpaceOnUse">
<stop stop-color="white"/>
<stop offset="1" stop-color="#D7D7D7"/>
</linearGradient>
<radialGradient id="paint1_radial_1_1191" cx="0" cy="0" r="1" gradientUnits="userSpaceOnUse" gradientTransform="translate(86.1796 82.2005) scale(64.9788 64.9789)">
<stop stop-color="#BA7BF0"/>
<stop offset="0.45" stop-color="#996BEC"/>
<stop offset="1" stop-color="#5046E4"/>
</radialGradient>
</defs>
</svg>
