<svg width="168" height="167" viewBox="0 0 168 167" fill="none" xmlns="http://www.w3.org/2000/svg">
<path d="M0.589844 43.9144C0.589844 28.6249 0.589844 20.9802 3.56536 15.1404C6.18271 10.0036 10.3591 5.82724 15.4959 3.2099C21.3357 0.234375 28.9804 0.234375 44.2698 0.234375L123.44 0.234375C138.729 0.234375 146.374 0.234375 152.214 3.2099C157.35 5.82724 161.527 10.0036 164.144 15.1404C167.12 20.9802 167.12 28.6249 167.12 43.9144L167.12 123.084C167.12 138.374 167.12 146.019 164.144 151.858C161.527 156.995 157.35 161.172 152.214 163.789C146.374 166.764 138.729 166.764 123.44 166.764L44.2698 166.764C28.9804 166.764 21.3357 166.764 15.4959 163.789C10.3591 161.172 6.18271 156.995 3.56536 151.858C0.589844 146.019 0.589844 138.374 0.589844 123.084L0.589844 43.9144Z" fill="url(#paint0_linear_1390_22213)"/>
<path d="M164.39 43.9144L164.39 123.084C164.39 130.774 164.388 136.377 164.027 140.793C163.669 145.176 162.971 148.148 161.712 150.619C159.356 155.242 155.597 159.001 150.974 161.356C148.503 162.615 145.531 163.313 141.148 163.672C136.733 164.032 131.129 164.034 123.44 164.034L44.2698 164.034C36.5801 164.034 30.9769 164.032 26.5616 163.672C22.1781 163.313 19.2062 162.615 16.7353 161.356C12.1121 159.001 8.35342 155.242 5.99781 150.619C4.73883 148.148 4.04086 145.176 3.68272 140.793C3.32197 136.377 3.31984 130.774 3.31984 123.084L3.31984 43.9144C3.31984 36.2246 3.32197 30.6215 3.68272 26.2061C4.04086 21.8226 4.73883 18.8507 5.99781 16.3798C8.35342 11.7567 12.1121 7.99795 16.7353 5.64234C19.2062 4.38336 22.1781 3.68539 26.5616 3.32725C30.9769 2.9665 36.5801 2.96437 44.2698 2.96437L123.44 2.96437C131.129 2.96437 136.733 2.9665 141.148 3.32725C145.531 3.68539 148.503 4.38336 150.974 5.64234C155.597 7.99795 159.356 11.7567 161.712 16.3798C162.971 18.8507 163.669 21.8226 164.027 26.2061C164.388 30.6215 164.39 36.2246 164.39 43.9144Z" stroke="#FFD600" stroke-opacity="0.5" stroke-width="5.46"/>
<path d="M44.9531 122.403L44.9531 44.5977L122.758 44.5977L122.758 122.403L44.9531 122.403Z" fill="#FFD600"/>
<path d="M97.0847 104.879C98.733 107.555 100.525 110.135 104.347 110.135C107.547 110.135 109.22 108.534 109.22 106.36C109.22 103.733 107.476 102.801 103.964 101.272L102.029 100.46C96.4637 98.0954 92.7611 95.1334 92.7611 88.8987C92.7611 83.1418 97.1564 78.7704 104.06 78.7704C108.957 78.7704 112.492 80.4664 115.024 84.9095L109.028 88.7554C107.715 86.3905 106.281 85.4589 104.06 85.4589C101.838 85.4589 100.357 86.8922 100.357 88.7554C100.357 91.0486 101.791 91.9802 105.087 93.4135L107.022 94.2256C113.591 97.0205 117.27 99.8631 117.27 106.289C117.27 113.192 111.823 116.99 104.49 116.99C97.1564 116.99 93.2627 113.383 90.9934 108.94L97.0608 104.903L97.0847 104.879ZM69.3991 105.071C70.6174 107.244 72.4329 108.893 75.0844 108.893C77.7359 108.893 79.0736 107.889 79.0736 104.02L79.0736 78.7227H87.0281L87.0281 105.238C87.0281 113.288 82.37 116.943 75.5382 116.943C69.3753 116.943 64.9322 112.762 63.1406 108.893L69.3991 105.071Z" fill="#000001"/>
<defs>
<linearGradient id="paint0_linear_1390_22213" x1="75.5974" y1="7.08499" x2="128.023" y2="165.77" gradientUnits="userSpaceOnUse">
<stop stop-color="white"/>
<stop offset="1" stop-color="#D7D7D7"/>
</linearGradient>
</defs>
</svg>
