<svg width="168" height="167" viewBox="0 0 168 167" fill="none" xmlns="http://www.w3.org/2000/svg">
<path d="M0.589844 43.68C0.589844 28.3906 0.589844 20.7458 3.56536 14.9061C6.18271 9.76923 10.3591 5.59286 15.4959 2.97552C21.3357 0 28.9804 0 44.2698 0L123.44 0C138.729 0 146.374 0 152.214 2.97552C157.35 5.59286 161.527 9.76923 164.144 14.9061C167.12 20.7458 167.12 28.3906 167.12 43.68L167.12 122.85C167.12 138.139 167.12 145.784 164.144 151.624C161.527 156.761 157.35 160.937 152.214 163.554C146.374 166.53 138.729 166.53 123.44 166.53L44.2698 166.53C28.9804 166.53 21.3357 166.53 15.4959 163.554C10.3591 160.937 6.18271 156.761 3.56536 151.624C0.589844 145.784 0.589844 138.139 0.589844 122.85L0.589844 43.68Z" fill="url(#paint0_linear_1390_22203)"/>
<path d="M164.39 43.68L164.39 122.85C164.39 130.54 164.388 136.143 164.027 140.558C163.669 144.942 162.971 147.914 161.712 150.385C159.356 155.008 155.597 158.766 150.974 161.122C148.503 162.381 145.531 163.079 141.148 163.437C136.733 163.798 131.129 163.8 123.44 163.8L44.2698 163.8C36.5801 163.8 30.9769 163.798 26.5616 163.437C22.1781 163.079 19.2062 162.381 16.7353 161.122C12.1121 158.766 8.35342 155.008 5.99781 150.385C4.73883 147.914 4.04086 144.942 3.68272 140.558C3.32197 136.143 3.31984 130.54 3.31984 122.85L3.31984 43.68C3.31984 35.9902 3.32197 30.3871 3.68272 25.9717C4.04086 21.5882 4.73883 18.6163 5.99781 16.1454C8.35342 11.5223 12.1121 7.76358 16.7353 5.40797C19.2062 4.14898 22.1781 3.45102 26.5616 3.09287C30.9769 2.73212 36.5801 2.73 44.2698 2.73L123.44 2.73C131.129 2.73 136.733 2.73212 141.148 3.09287C145.531 3.45102 148.503 4.14898 150.974 5.40797C155.597 7.76358 159.356 11.5223 161.712 16.1454C162.971 18.6163 163.669 21.5882 164.027 25.9717C164.388 30.3871 164.39 35.9902 164.39 43.68Z" stroke="#21A366" stroke-opacity="0.5" stroke-width="5.46"/>
<path d="M83.8721 128.326C82.6556 128.326 81.4518 128.008 80.3837 127.393L69.2784 120.815C67.6211 119.887 68.4307 119.56 68.9775 119.37C71.19 118.594 71.6351 118.42 73.996 117.077C74.2461 116.932 74.5683 116.988 74.8226 117.136L83.355 122.197C83.6644 122.362 84.101 122.362 84.385 122.197L117.65 102.991C117.959 102.813 118.159 102.462 118.159 102.093L118.159 63.716C118.159 63.3345 117.959 62.9912 117.642 62.8004L84.3977 43.612C84.0883 43.4297 83.6814 43.4297 83.3762 43.612L50.1239 62.7962C49.8018 62.9785 49.5941 63.3387 49.5941 63.7033L49.5941 102.093C49.5941 102.462 49.7933 102.809 50.1112 102.983L59.2201 108.247C64.1666 110.719 67.1887 107.807 67.1887 104.878L67.1887 66.9882C67.1887 66.4499 67.6126 66.0303 68.1552 66.0303L72.3684 66.0303C72.894 66.0303 73.3263 66.4457 73.3263 66.9882L73.3263 104.895C73.3263 111.49 69.7277 115.279 63.4757 115.279C61.5513 115.279 60.0339 115.279 55.8037 113.198L47.0763 108.167C44.9188 106.916 43.5879 104.581 43.5879 102.093L43.5879 63.7075C43.5879 61.2109 44.9231 58.8754 47.0763 57.642L80.3837 38.4324C82.4903 37.2413 85.2878 37.2413 87.3817 38.4324L120.642 57.6547C122.787 58.8966 124.127 61.2194 124.127 63.7202L124.127 102.11C124.127 104.598 122.787 106.921 120.638 108.175L87.3775 127.385C86.3093 128.004 85.1056 128.317 83.8721 128.317" fill="#21A366"/>
<path d="M94.1504 101.87C79.5948 101.87 76.543 95.19 76.543 89.5823C76.543 89.0524 76.9711 88.6243 77.5051 88.6243H81.8031C82.2779 88.6243 82.6805 88.9719 82.7526 89.4381C83.4011 93.8167 85.3339 96.025 94.1376 96.025C101.148 96.025 104.132 94.444 104.132 90.7225C104.132 88.5819 103.28 86.9924 92.3913 85.9243C83.2824 85.0257 77.6535 83.0166 77.6535 75.7303C77.6535 69.0205 83.3163 65.0234 92.7982 65.0234C103.45 65.0234 108.731 68.7238 109.393 76.667C109.418 76.9426 109.321 77.2054 109.134 77.4088C108.952 77.5996 108.693 77.7182 108.426 77.7182H104.103C103.653 77.7182 103.263 77.4003 103.17 76.968C102.128 72.3606 99.614 70.8897 92.777 70.8897C85.122 70.8897 84.2319 73.5516 84.2319 75.5523C84.2319 77.9726 85.2831 78.6804 95.6085 80.0495C105.832 81.4059 110.69 83.3217 110.69 90.5063C110.69 97.6908 104.641 101.908 94.1037 101.908" fill="#21A366"/>
<defs>
<linearGradient id="paint0_linear_1390_22203" x1="75.5974" y1="6.85062" x2="128.023" y2="165.536" gradientUnits="userSpaceOnUse">
<stop stop-color="white"/>
<stop offset="1" stop-color="#D7D7D7"/>
</linearGradient>
</defs>
</svg>
