<svg width="167" height="167" viewBox="0 0 167 167" fill="none" xmlns="http://www.w3.org/2000/svg">
<path d="M0.121094 43.68C0.121094 28.3906 0.121094 20.7458 3.09661 14.9061C5.71396 9.76923 9.89032 5.59286 15.0271 2.97552C20.8669 0 28.5116 0 43.8011 0L122.971 0C138.26 0 145.905 0 151.745 2.97552C156.882 5.59286 161.058 9.76923 163.675 14.9061C166.651 20.7458 166.651 28.3906 166.651 43.68L166.651 122.85C166.651 138.139 166.651 145.784 163.675 151.624C161.058 156.761 156.882 160.937 151.745 163.554C145.905 166.53 138.26 166.53 122.971 166.53L43.8011 166.53C28.5117 166.53 20.8669 166.53 15.0271 163.554C9.89032 160.937 5.71396 156.761 3.09661 151.624C0.121094 145.784 0.121094 138.139 0.121094 122.85L0.121094 43.68Z" fill="url(#paint0_linear_1390_22208)"/>
<path d="M163.921 43.68L163.921 122.85C163.921 130.54 163.919 136.143 163.558 140.558C163.2 144.942 162.502 147.914 161.243 150.385C158.887 155.008 155.129 158.766 150.505 161.122C148.035 162.381 145.063 163.079 140.679 163.437C136.264 163.798 130.661 163.8 122.971 163.8L43.8011 163.8C36.1113 163.8 30.5082 163.798 26.0928 163.437C21.7093 163.079 18.7374 162.381 16.2665 161.122C11.6434 158.766 7.88467 155.008 5.52906 150.385C4.27008 147.914 3.57211 144.942 3.21397 140.558C2.85322 136.143 2.85109 130.54 2.85109 122.85L2.85109 43.68C2.85109 35.9902 2.85322 30.3871 3.21397 25.9717C3.57211 21.5882 4.27008 18.6163 5.52906 16.1454C7.88467 11.5223 11.6434 7.76358 16.2665 5.40797C18.7374 4.14898 21.7093 3.45102 26.0928 3.09287C30.5082 2.73212 36.1113 2.73 43.8011 2.73L122.971 2.73C130.661 2.73 136.264 2.73212 140.679 3.09287C145.063 3.45102 148.035 4.14898 150.505 5.40797C155.129 7.76358 158.887 11.5223 161.243 16.1454C162.502 18.6163 163.2 21.5882 163.558 25.9717C163.919 30.3871 163.921 35.9902 163.921 43.68Z" stroke="url(#paint1_linear_1390_22208)" stroke-opacity="0.5" stroke-width="5.46"/>
<path d="M83.895 40.1334C80.3801 40.1489 77.0187 40.4505 74.0641 40.9765C65.3537 42.5234 63.7727 45.7718 63.7727 51.7582L63.7727 59.6627L84.3477 59.6627L84.3477 62.3001L56.0523 62.3001C50.074 62.3001 44.8324 65.9198 43.1978 72.8111C41.3099 80.7079 41.2254 85.6424 43.1978 93.8873C44.6636 100.028 48.1554 104.398 54.1337 104.398H61.2095L61.2095 94.9237C61.2095 88.0788 67.0881 82.0382 74.0641 82.0382L94.6161 82.0382C100.333 82.0382 104.907 77.2893 104.907 71.504L104.907 51.7582C104.907 46.1353 100.203 41.9201 94.6161 40.9765C91.0782 40.3887 87.4098 40.118 83.895 40.1334ZM72.7671 46.4911C74.8929 46.4911 76.6273 48.27 76.6273 50.4511C76.6273 52.6322 74.8929 54.3879 72.7671 54.3879C70.6336 54.3879 68.9069 52.6244 68.9069 50.4511C68.9069 48.2777 70.6336 46.4911 72.7671 46.4911Z" fill="url(#paint2_linear_1390_22208)"/>
<path d="M107.511 62.293L107.511 71.4346C107.511 78.5191 101.515 84.4831 94.6847 84.4831L74.1772 84.4831C68.5565 84.4831 63.9082 89.3033 63.9082 94.9372L63.9082 114.533C63.9082 120.113 68.7479 123.391 74.1772 124.987C80.6786 126.906 86.912 127.251 94.6847 124.987C99.8536 123.49 104.954 120.466 104.954 114.533L104.954 106.689L84.4463 106.689L84.4463 104.071L115.223 104.071C121.188 104.071 123.416 99.8956 125.492 93.64C127.636 87.1925 127.544 80.9907 125.492 72.7241C124.014 66.7678 121.203 62.293 115.223 62.293L107.519 62.293H107.511ZM95.9788 111.923C98.1077 111.923 99.8307 113.673 99.8307 115.83C99.8307 117.987 98.1077 119.76 95.9788 119.76C93.85 119.76 92.127 117.995 92.127 115.83C92.127 113.666 93.8576 111.923 95.9788 111.923Z" fill="url(#paint3_linear_1390_22208)"/>
<defs>
<linearGradient id="paint0_linear_1390_22208" x1="75.1287" y1="6.85062" x2="127.555" y2="165.536" gradientUnits="userSpaceOnUse">
<stop stop-color="white"/>
<stop offset="1" stop-color="#D7D7D7"/>
</linearGradient>
<linearGradient id="paint1_linear_1390_22208" x1="83.386" y1="0" x2="83.386" y2="166.53" gradientUnits="userSpaceOnUse">
<stop stop-color="#326B9B"/>
<stop offset="1" stop-color="#FFD844"/>
</linearGradient>
<linearGradient id="paint2_linear_1390_22208" x1="39.2335" y1="42.9335" x2="87.0982" y2="83.0753" gradientUnits="userSpaceOnUse">
<stop stop-color="#5A9FD4"/>
<stop offset="1" stop-color="#306998"/>
</linearGradient>
<linearGradient id="paint3_linear_1390_22208" x1="104.245" y1="108.945" x2="87.1013" y2="85.1705" gradientUnits="userSpaceOnUse">
<stop stop-color="#FFD43B"/>
<stop offset="1" stop-color="#FFE873"/>
</linearGradient>
</defs>
</svg>
