<svg width="167" height="167" viewBox="0 0 167 167" fill="none" xmlns="http://www.w3.org/2000/svg">
<g filter="url(#filter0_i_1_2016)">
<path d="M0.234375 43.9154C0.234375 28.6259 0.234375 20.9812 3.2099 15.1414C5.82724 10.0046 10.0036 5.82821 15.1404 3.21087C20.9802 0.235352 28.6249 0.235352 43.9144 0.235352L123.084 0.235352C138.374 0.235352 146.018 0.235352 151.858 3.21087C156.995 5.82821 161.171 10.0046 163.789 15.1414C166.764 20.9812 166.764 28.6259 166.764 43.9153L166.764 123.085C166.764 138.375 166.764 146.02 163.789 151.859C161.171 156.996 156.995 161.172 151.858 163.79C146.018 166.765 138.374 166.765 123.084 166.765L43.9144 166.765C28.6249 166.765 20.9802 166.765 15.1404 163.79C10.0036 161.172 5.82724 156.996 3.2099 151.859C0.234375 146.02 0.234375 138.375 0.234375 123.085L0.234375 43.9154Z" fill="url(#paint0_linear_1_2016)"/>
</g>
<path d="M2.96437 43.9154C2.96437 36.2256 2.9665 30.6225 3.32725 26.2071C3.68539 21.8236 4.38336 18.8517 5.64234 16.3808C7.99795 11.7577 11.7567 7.99893 16.3798 5.64332C18.8507 4.38433 21.8226 3.68637 26.2061 3.32822C30.6215 2.96747 36.2246 2.96535 43.9144 2.96535L123.084 2.96535C130.774 2.96535 136.377 2.96747 140.792 3.32822C145.176 3.68637 148.148 4.38433 150.619 5.64332C155.242 7.99893 159.001 11.7577 161.356 16.3808C162.615 18.8517 163.313 21.8236 163.671 26.2071C164.032 30.6224 164.034 36.2256 164.034 43.9153L164.034 123.085C164.034 130.775 164.032 136.378 163.671 140.794C163.313 145.177 162.615 148.149 161.356 150.62C159.001 155.243 155.242 159.002 150.619 161.357C148.148 162.616 145.176 163.314 140.792 163.672C136.377 164.033 130.774 164.035 123.084 164.035L43.9144 164.035C36.2246 164.035 30.6215 164.033 26.2061 163.672C21.8226 163.314 18.8507 162.616 16.3798 161.357C11.7567 159.002 7.99795 155.243 5.64234 150.62C4.38336 148.149 3.68539 145.177 3.32725 140.794C2.9665 136.378 2.96437 130.775 2.96437 123.085L2.96437 43.9154Z" stroke="#61DAFB" stroke-opacity="0.5" stroke-width="5.46"/>
<path d="M83.8531 75.5723C79.4005 75.5723 75.7754 79.1974 75.7754 83.65C75.7754 88.1025 79.4005 91.7276 83.8531 91.7276C88.3056 91.7276 91.9308 88.1025 91.9308 83.65C91.9308 79.1974 88.3056 75.5723 83.8531 75.5723Z" fill="#61DAFB"/>
<path d="M129.155 83.6503C129.155 77.3064 121.708 71.8293 110.123 68.48C110.557 66.7069 110.951 64.9337 111.226 63.2394C112.763 53.7038 111.069 47.0052 106.459 44.3652C100.942 41.1735 92.4705 44.9168 83.8018 53.2703C75.1724 44.9168 66.7007 41.2129 61.1843 44.4046C56.6135 47.0446 54.9191 53.7432 56.4559 63.2788C56.7317 64.9731 57.1257 66.7069 57.5591 68.5194C45.9746 71.8293 38.5273 77.3458 38.5273 83.6897C38.5273 90.0337 45.9746 95.5501 57.5591 98.86C54.6433 110.563 55.6678 119.744 61.1843 122.935C62.524 123.724 64.0607 124.118 65.755 124.118C69.7742 124.118 74.6208 121.911 79.9008 117.616C81.2011 116.552 82.5409 115.331 83.8412 114.07C85.1415 115.331 86.4812 116.552 87.7815 117.616C93.0615 121.911 97.9081 124.118 101.927 124.118C103.622 124.118 105.158 123.724 106.498 122.935C112.015 119.744 113.039 110.563 110.123 98.86C121.708 95.5501 129.155 90.0337 129.155 83.6897V83.6503ZM104.528 47.7933C107.562 49.527 108.586 54.9253 107.365 62.6089C107.129 64.1851 106.734 65.8006 106.34 67.4555C102.637 66.5887 98.578 65.9582 94.283 65.5642C91.8006 62.0573 89.2 58.8656 86.6388 56.068C92.6281 50.2757 98.184 47.1234 102.006 47.1234C102.991 47.1234 103.858 47.3204 104.607 47.7539L104.528 47.7933ZM96.4896 90.9005C95.0711 93.3041 93.6132 95.6683 92.1159 97.8749C89.4758 98.0719 86.7176 98.1902 83.8806 98.1902C81.0435 98.1902 78.2853 98.0719 75.6453 97.8749C74.1479 95.6683 72.6506 93.3041 71.2715 90.9005C69.8924 88.4969 68.5921 86.0539 67.41 83.6109C68.5527 81.2073 69.853 78.8037 71.2715 76.3213C72.69 73.8389 74.1873 71.5141 75.6453 69.3469C78.2853 69.1499 81.0435 69.0317 83.8806 69.0317C86.7176 69.0317 89.4758 69.1499 92.1159 69.3469C93.6132 71.5141 95.0711 73.8389 96.4896 76.3213C97.9081 78.8037 99.2085 81.2467 100.351 83.6109C99.1691 86.0145 97.9081 88.4575 96.4896 90.9005ZM102.44 88.2211C103.582 90.9005 104.489 93.5012 105.277 95.9442C102.755 96.4958 100.036 97.0081 97.1595 97.3627C98.1052 95.9048 99.0114 94.4074 99.9177 92.8707C100.824 91.334 101.651 89.7972 102.44 88.2211ZM83.8806 108.317C82.1074 106.386 80.3343 104.258 78.6005 101.973C80.3343 102.052 82.068 102.091 83.8806 102.091C85.6931 102.091 87.4269 102.052 89.1606 101.973C87.4269 104.258 85.6931 106.347 83.8806 108.317ZM70.6016 97.3627C67.7252 97.0081 65.0064 96.5352 62.4846 95.9442C63.2726 93.4618 64.1789 90.9005 65.3216 88.2211C66.1097 89.7578 66.9371 91.334 67.8434 92.8707C68.7497 94.4074 69.656 95.9048 70.6016 97.3627ZM65.3216 78.9613C64.2183 76.3213 63.2726 73.7601 62.4846 71.2383C65.0064 70.6866 67.7252 70.1744 70.6016 69.8197C69.656 71.2777 68.7497 72.775 67.8434 74.3117C66.9371 75.8485 66.1097 77.4246 65.3216 78.9613ZM83.8806 58.8656C85.6143 60.757 87.3875 62.8848 89.1606 65.2096C87.4269 65.1307 85.6931 65.0913 83.8806 65.0913C82.068 65.0913 80.3343 65.1307 78.6005 65.2096C80.3737 62.8848 82.1074 60.757 83.8806 58.8656ZM99.9177 74.3511C99.0114 72.8144 98.1052 71.3171 97.1595 69.8591C100.036 70.2138 102.755 70.6866 105.277 71.2777C104.489 73.7995 103.543 76.3607 102.44 79.0007C101.651 77.464 100.824 75.9273 99.9177 74.3511ZM60.3568 62.6089C59.1353 54.9253 60.1598 49.527 63.1938 47.7933C63.9425 47.3598 64.8094 47.1628 65.7944 47.1628C69.6166 47.1628 75.1724 50.3151 81.1617 56.1074C78.5611 58.905 75.9999 62.0967 73.5175 65.6036C69.2225 65.9976 65.164 66.6281 61.4601 67.4949C61.0266 65.84 60.672 64.1851 60.4356 62.6483L60.3568 62.6089ZM42.4677 83.6503C42.4677 79.5524 48.5358 75.1392 58.623 72.2628C59.7657 75.9273 61.2631 79.7494 63.0362 83.6503C61.2237 87.5907 59.7657 91.4128 58.623 95.0379C48.5358 92.1614 42.4677 87.7877 42.4677 83.6503ZM77.4184 114.503C71.3897 119.389 66.1885 121.202 63.1544 119.468C59.6081 117.419 58.8201 109.932 61.3813 99.7663C65.0852 100.633 69.1437 101.264 73.4387 101.658C75.9211 105.125 78.4823 108.356 81.0829 111.154C79.8614 112.336 78.6399 113.479 77.4184 114.464L77.4184 114.503ZM104.528 119.468C101.494 121.202 96.2926 119.389 90.2639 114.503C89.0424 113.518 87.8209 112.375 86.5994 111.193C89.2394 108.356 91.8006 105.165 94.2436 101.697C98.5386 101.303 102.597 100.673 106.301 99.8057C108.862 109.972 108.074 117.419 104.528 119.507V119.468ZM109.059 94.9985C107.956 91.3734 106.459 87.5513 104.646 83.6109C106.419 79.7494 107.917 75.9273 109.059 72.2233C119.107 75.0998 125.215 79.4736 125.215 83.6109C125.215 87.7483 119.107 92.122 109.059 94.9985Z" fill="#61DAFB"/>
<defs>
<filter id="filter0_i_1_2016" x="0.234375" y="-1.12965" width="166.53" height="167.895" filterUnits="userSpaceOnUse" color-interpolation-filters="sRGB">
<feFlood flood-opacity="0" result="BackgroundImageFix"/>
<feBlend mode="normal" in="SourceGraphic" in2="BackgroundImageFix" result="shape"/>
<feColorMatrix in="SourceAlpha" type="matrix" values="0 0 0 0 0 0 0 0 0 0 0 0 0 0 0 0 0 0 127 0" result="hardAlpha"/>
<feOffset dy="-1.365"/>
<feGaussianBlur stdDeviation="0.6825"/>
<feComposite in2="hardAlpha" operator="arithmetic" k2="-1" k3="1"/>
<feColorMatrix type="matrix" values="0 0 0 0 0 0 0 0 0 0 0 0 0 0 0 0 0 0 0.11 0"/>
<feBlend mode="normal" in2="shape" result="effect1_innerShadow_1_2016"/>
</filter>
<linearGradient id="paint0_linear_1_2016" x1="75.2419" y1="7.08597" x2="127.668" y2="165.771" gradientUnits="userSpaceOnUse">
<stop stop-color="white"/>
<stop offset="1" stop-color="#D7D7D7"/>
</linearGradient>
</defs>
</svg>
