<svg width="167" height="167" viewBox="0 0 167 167" fill="none" xmlns="http://www.w3.org/2000/svg">
<path d="M0.121094 43.9144C0.121094 28.6249 0.121094 20.9802 3.09661 15.1404C5.71396 10.0036 9.89032 5.82724 15.0271 3.2099C20.8669 0.234375 28.5116 0.234375 43.8011 0.234375L122.971 0.234375C138.26 0.234375 145.905 0.234375 151.745 3.2099C156.882 5.82724 161.058 10.0036 163.675 15.1404C166.651 20.9802 166.651 28.6249 166.651 43.9144L166.651 123.084C166.651 138.374 166.651 146.019 163.675 151.858C161.058 156.995 156.882 161.172 151.745 163.789C145.905 166.764 138.26 166.764 122.971 166.764L43.8011 166.764C28.5117 166.764 20.8669 166.764 15.0271 163.789C9.89032 161.172 5.71396 156.995 3.09661 151.858C0.121094 146.019 0.121094 138.374 0.121094 123.084L0.121094 43.9144Z" fill="url(#paint0_linear_1390_21375)"/>
<path d="M163.921 43.9144L163.921 123.084C163.921 130.774 163.919 136.377 163.558 140.793C163.2 145.176 162.502 148.148 161.243 150.619C158.887 155.242 155.129 159.001 150.505 161.356C148.035 162.615 145.063 163.313 140.679 163.672C136.264 164.032 130.661 164.034 122.971 164.034L43.8011 164.034C36.1113 164.034 30.5082 164.032 26.0928 163.672C21.7093 163.313 18.7374 162.615 16.2665 161.356C11.6434 159.001 7.88467 155.242 5.52906 150.619C4.27008 148.148 3.57211 145.176 3.21397 140.793C2.85322 136.377 2.85109 130.774 2.85109 123.084L2.85109 43.9144C2.85109 36.2246 2.85322 30.6215 3.21397 26.2061C3.57211 21.8226 4.27008 18.8507 5.52906 16.3798C7.88467 11.7567 11.6434 7.99795 16.2665 5.64234C18.7374 4.38336 21.7093 3.68539 26.0928 3.32725C30.5082 2.9665 36.1113 2.96437 43.8011 2.96437L122.971 2.96437C130.661 2.96437 136.264 2.9665 140.679 3.32725C145.063 3.68539 148.035 4.38336 150.505 5.64234C155.129 7.99795 158.887 11.7567 161.243 16.3798C162.502 18.8507 163.2 21.8226 163.558 26.2061C163.919 30.6215 163.921 36.2246 163.921 43.9144Z" stroke="url(#paint1_linear_1390_21375)" stroke-opacity="0.5" stroke-width="5.46"/>
<path fill-rule="evenodd" clip-rule="evenodd" d="M114.171 71.5933C114.795 70.1934 116.431 69.5544 117.831 70.1782C119.232 70.8021 119.863 72.4454 119.247 73.8453C118.623 75.2528 116.987 75.8842 115.586 75.2604C114.179 74.6365 113.547 73.0008 114.171 71.5933ZM81.6693 45.4446C82.7803 44.3871 84.5382 44.4251 85.596 45.5359C86.6538 46.6466 86.6157 48.4041 85.5047 49.4692C84.3936 50.5267 82.6434 50.4887 81.578 49.3779C80.5202 48.2595 80.5583 46.5021 81.6693 45.4446ZM117.915 82.8532C117.915 83.7053 117.885 84.5498 117.824 85.3943H114.316C113.966 85.3943 113.821 85.6225 113.821 85.9649L113.821 87.5778C113.821 91.3666 111.683 92.1958 109.811 92.4012C108.03 92.599 106.051 91.6557 105.808 90.5601C104.758 84.6411 103 83.3781 100.23 81.1946C103.669 79.0111 107.246 75.7929 107.246 71.4868C107.246 66.8307 104.058 63.9016 101.881 62.4637C98.8295 60.4552 95.4508 60.052 94.5376 60.052L58.2614 60.052C63.1773 54.5666 69.8436 50.6789 77.3849 49.2638L81.6617 53.7449C82.6281 54.7568 84.2262 54.7948 85.2383 53.8286L90.0249 49.2562C100.047 51.1202 108.54 57.3587 113.425 65.9177L110.153 73.3127C109.59 74.5909 110.168 76.0897 111.439 76.6603L117.748 79.46C117.862 80.5708 117.915 81.7044 117.915 82.8532ZM75.9847 77.0559L75.9847 70.6195H87.5213C88.1149 70.6195 91.7295 71.3118 91.7295 74.0051C91.7295 76.2494 88.9596 77.0483 86.6842 77.0483H75.9847V77.0559ZM49.7383 79.1785L55.7197 76.5233C56.9981 75.9527 57.5765 74.4615 57.0057 73.1758L55.7729 70.3913H60.6204L60.6204 92.2263H50.8493C50.0047 89.2439 49.5481 86.1018 49.5481 82.8532C49.5405 81.6055 49.6089 80.3806 49.7383 79.1785ZM52.9953 71.4564C53.6193 72.8562 52.9877 74.5072 51.5799 75.1234C50.1797 75.7473 48.5359 75.1234 47.9195 73.7083C47.2955 72.3009 47.9272 70.6651 49.335 70.0413C50.7352 69.4174 52.3789 70.0565 52.9953 71.4564ZM63.5959 114.426C62.0967 114.754 60.6204 113.795 60.3008 112.296C59.9812 110.79 60.9324 109.314 62.4316 108.994C63.9307 108.675 65.407 109.626 65.7266 111.132C66.0462 112.623 65.095 114.107 63.5959 114.426ZM102.239 105.54C100.869 105.244 99.522 106.118 99.2329 107.488L97.8403 113.993C93.5407 115.948 88.7617 117.028 83.7316 117.028C78.7015 117.028 73.7094 115.887 69.3261 113.856L67.9335 107.351C67.6367 105.982 66.2974 105.114 64.9276 105.403L59.1821 106.636C58.1168 105.54 57.1275 104.369 56.2143 103.136L84.1577 103.136C84.4773 103.136 84.6828 103.075 84.6828 102.794L84.6828 92.911C84.6828 92.6219 84.4697 92.5686 84.1577 92.5686H75.9847L75.9847 86.3072H84.8198C85.6264 86.3072 89.1346 86.5355 90.2532 91.0166C90.6033 92.3936 91.3719 96.8748 91.9046 98.3127C92.4296 99.9256 94.568 103.136 96.851 103.136H110.769C110.929 103.136 111.097 103.121 111.272 103.083C110.305 104.391 109.247 105.639 108.106 106.796L102.239 105.54ZM103.57 114.563C102.071 114.236 101.12 112.76 101.44 111.262C101.759 109.763 103.236 108.804 104.735 109.131C106.234 109.451 107.193 110.934 106.866 112.433C106.546 113.924 105.07 114.883 103.57 114.563ZM129.847 82.0011L125.921 79.5741C125.89 79.1937 125.852 78.8133 125.807 78.4329L129.178 75.2908C129.52 74.9713 129.672 74.4996 129.581 74.0431C129.49 73.5866 129.17 73.2062 128.729 73.0388L124.414 71.4259C124.307 71.0531 124.193 70.6804 124.079 70.3152L126.765 66.5796C127.039 66.1992 127.093 65.7047 126.918 65.2711C126.743 64.8374 126.347 64.5331 125.89 64.457L121.34 63.719C121.165 63.3767 120.982 63.0343 120.792 62.6996L122.702 58.5075C122.9 58.0815 122.854 57.587 122.595 57.199C122.336 56.8109 121.895 56.5827 121.423 56.5979L116.804 56.7577C116.568 56.461 116.325 56.1643 116.074 55.8752L117.131 51.3788C117.238 50.9223 117.101 50.443 116.774 50.1159C116.446 49.7887 115.967 49.6518 115.51 49.7583L111.013 50.8158C110.724 50.5724 110.427 50.3289 110.13 50.0855L110.29 45.4674C110.305 45.0033 110.077 44.5544 109.689 44.2958C109.301 44.0371 108.806 43.999 108.38 44.1892L104.187 46.0989C103.852 45.9163 103.51 45.7261 103.167 45.5511L102.429 41.0015C102.353 40.5374 102.049 40.1494 101.615 39.9744C101.181 39.7918 100.686 39.8527 100.306 40.1266L96.5694 42.8198C96.2041 42.7057 95.8313 42.5916 95.4584 42.4851L93.8527 38.1561C93.6929 37.7148 93.3124 37.3953 92.8482 37.304C92.3916 37.2127 91.9198 37.3649 91.6002 37.7072L88.4497 41.0852C88.0692 41.0395 87.6887 41.0015 87.3082 40.9711L84.8807 37.0453C84.6371 36.6497 84.2034 36.4063 83.7316 36.4063C83.2598 36.4063 82.826 36.6497 82.5825 37.0453L80.1549 40.9711C79.7744 41.0015 79.394 41.0395 79.0135 41.0852L75.863 37.7072C75.5434 37.3649 75.0715 37.2127 74.615 37.304C74.1584 37.3953 73.7779 37.7148 73.6105 38.1561L71.9972 42.4698C71.6243 42.5763 71.2514 42.6905 70.8861 42.8046L67.1497 40.1114C66.7692 39.8375 66.2745 39.7766 65.8408 39.9592C65.407 40.1342 65.1026 40.5298 65.0265 40.9863L64.2884 45.5359C63.9459 45.7109 63.6035 45.8934 63.2686 46.0836L59.0756 44.174C58.6495 43.9762 58.1548 44.0219 57.7667 44.2805C57.3786 44.5392 57.1503 44.9805 57.1655 45.4522L57.3253 50.0702C57.0286 50.3061 56.7318 50.5495 56.4426 50.8006L51.9452 49.7431C51.4886 49.6366 51.0092 49.7735 50.6819 50.1007C50.3471 50.4354 50.2177 50.9071 50.3243 51.3636L51.382 55.8599C51.1385 56.149 50.895 56.4458 50.6515 56.7425L46.0323 56.5827C45.5681 56.5675 45.1191 56.7957 44.8604 57.1837C44.6016 57.5717 44.5636 58.0663 44.7538 58.4923L46.6639 62.6843C46.4813 63.0191 46.291 63.3614 46.116 63.7038L41.5653 64.4418C41.1011 64.5179 40.713 64.8222 40.538 65.2558C40.363 65.6895 40.4162 66.184 40.6902 66.5644L43.3841 70.3C43.2699 70.6651 43.1558 71.0379 43.0492 71.4107L38.7268 73.0312C38.2855 73.191 37.9658 73.5714 37.8745 74.0355C37.7832 74.492 37.9354 74.9637 38.2778 75.2832L41.649 78.4253C41.611 78.8057 41.5729 79.1861 41.5349 79.5665L37.6082 81.9935C37.2201 82.2521 36.9766 82.6858 36.9766 83.1499C36.9766 83.614 37.2201 84.0552 37.6158 84.2987L41.5425 86.7257C41.5729 87.1061 41.611 87.4865 41.6566 87.8669L38.2855 91.0166C37.943 91.3361 37.7908 91.8078 37.8821 92.2643C37.9735 92.7208 38.2931 93.1012 38.7344 93.2686L43.0492 94.8815C43.1558 95.2542 43.2699 95.627 43.3841 95.9922L40.6902 99.7278C40.4162 100.108 40.3553 100.603 40.538 101.036C40.7206 101.47 41.1087 101.782 41.5729 101.85L46.116 102.596C46.291 102.938 46.4737 103.281 46.6639 103.615L44.7538 107.807C44.556 108.234 44.6016 108.728 44.8604 109.116C45.1191 109.504 45.5681 109.732 46.0323 109.717L50.6439 109.557C50.8874 109.854 51.1233 110.151 51.3744 110.44L50.3167 114.936C50.2101 115.393 50.3471 115.864 50.6743 116.199C51.0015 116.534 51.481 116.663 51.9376 116.557L56.435 115.499C56.7242 115.75 57.0209 115.986 57.3177 116.23L57.1579 120.848C57.1427 121.312 57.371 121.761 57.7591 122.019C58.1472 122.278 58.6418 122.316 59.068 122.126L63.261 120.216C63.5959 120.406 63.9383 120.589 64.2808 120.764L65.0189 125.306C65.095 125.77 65.3994 126.158 65.8332 126.341C66.2669 126.523 66.7616 126.462 67.1421 126.188L70.8785 123.495C71.2438 123.609 71.6167 123.723 71.9896 123.838L73.6028 128.151C73.7627 128.593 74.1431 128.912 74.6073 129.003C75.0639 129.095 75.5357 128.943 75.8554 128.6L79.0058 125.23C79.3863 125.275 79.7668 125.314 80.1473 125.344L82.5749 129.27C82.8184 129.665 83.2522 129.909 83.724 129.909C84.1958 129.909 84.6295 129.665 84.8731 129.27L87.3006 125.344C87.6811 125.314 88.0616 125.275 88.4421 125.23L91.5926 128.6C91.9122 128.943 92.384 129.095 92.8406 129.003C93.2972 128.912 93.6777 128.593 93.8451 128.151L95.4584 123.838C95.8313 123.731 96.2041 123.617 96.5694 123.495L100.306 126.188C100.686 126.462 101.181 126.516 101.615 126.341C102.049 126.166 102.353 125.77 102.429 125.306L103.167 120.764C103.51 120.589 103.852 120.399 104.187 120.216L108.38 122.126C108.806 122.324 109.301 122.278 109.689 122.019C110.077 121.761 110.305 121.319 110.29 120.848L110.13 116.23C110.427 115.994 110.724 115.75 111.013 115.499L115.51 116.557C115.967 116.663 116.446 116.534 116.774 116.199C117.108 115.864 117.238 115.393 117.131 114.936L116.074 110.44C116.317 110.151 116.561 109.854 116.804 109.557L121.423 109.717C121.887 109.732 122.336 109.504 122.595 109.116C122.854 108.728 122.9 108.234 122.702 107.807L120.792 103.615C120.982 103.273 121.165 102.938 121.34 102.596L125.89 101.858C126.354 101.782 126.743 101.478 126.918 101.044C127.1 100.61 127.039 100.116 126.765 99.7354L124.071 95.9998C124.186 95.627 124.3 95.2619 124.406 94.8891L128.721 93.2762C129.162 93.1088 129.482 92.736 129.573 92.2719C129.665 91.8154 129.513 91.3437 129.17 91.0242L125.799 87.8745C125.837 87.4941 125.875 87.1137 125.913 86.7333L129.84 84.3063C130.235 84.0629 130.479 83.6292 130.479 83.1575C130.479 82.6858 130.243 82.2521 129.847 82.0011Z" fill="url(#paint2_linear_1390_21375)"/>
<defs>
<linearGradient id="paint0_linear_1390_21375" x1="75.1287" y1="7.08499" x2="127.555" y2="165.77" gradientUnits="userSpaceOnUse">
<stop stop-color="white"/>
<stop offset="1" stop-color="#D7D7D7"/>
</linearGradient>
<linearGradient id="paint1_linear_1390_21375" x1="74.7516" y1="0.234228" x2="131.632" y2="165.135" gradientUnits="userSpaceOnUse">
<stop stop-color="#4C4C4C"/>
<stop offset="1" stop-color="#1B1B1F"/>
</linearGradient>
<linearGradient id="paint2_linear_1390_21375" x1="78.8797" y1="36.4062" x2="110.817" y2="128.994" gradientUnits="userSpaceOnUse">
<stop stop-color="#4C4C4C"/>
<stop offset="1" stop-color="#1B1B1F"/>
</linearGradient>
</defs>
</svg>
